<svg width="16" height="16" viewBox="0 0 16 16" fill="none" xmlns="http://www.w3.org/2000/svg">
<g clip-path="url(#clip0_2042_7)">
<path d="M8.21094 8.56641C8.38672 8.39062 8.38672 8.14453 8.24609 7.96875L4.09766 3.89062C3.92188 3.71484 3.64062 3.71484 3.5 3.89062L3.25391 4.13672C3.07812 4.3125 3.07812 4.55859 3.25391 4.73438L6.83984 8.25L3.25391 11.8008C3.07812 11.9766 3.07812 12.2227 3.25391 12.3984L3.5 12.6445C3.64062 12.8203 3.92188 12.8203 4.09766 12.6445L8.21094 8.56641ZM12.7109 7.96875L8.59766 3.89062C8.42188 3.71484 8.14062 3.71484 8 3.89062L7.75391 4.13672C7.57812 4.3125 7.57812 4.55859 7.75391 4.73438L11.3398 8.25L7.75391 11.8008C7.57812 11.9766 7.57812 12.2227 7.75391 12.3984L8 12.6445C8.14062 12.8203 8.42188 12.8203 8.59766 12.6445L12.7461 8.56641C12.8867 8.39062 12.8867 8.14453 12.7109 7.96875Z" fill="#A7A7A7"/>
</g>
<defs>
<clipPath id="clip0_2042_7">
<rect width="16" height="16" fill="white"/>
</clipPath>
</defs>
</svg>
