<svg width="21" height="20" viewBox="0 0 21 20" fill="none" xmlns="http://www.w3.org/2000/svg">
<g clip-path="url(#clip0_2098_54168)">
<path d="M0.0142915 19.9883V19.1414C0.0142915 13.0742 0.0260819 7.00694 -0.000446569 0.939686C-0.00339418 0.2323 0.148408 -0.0306094 0.923628 0.00279898C2.6804 0.0797835 4.45044 -0.0465873 6.19837 0.100119C9.18577 0.348503 10.7362 1.90853 10.8276 4.85863C10.9337 8.29825 10.9425 11.7466 10.8232 15.1847C10.7156 18.267 8.85858 19.9287 5.73854 19.9839C3.86387 20.0173 1.98771 19.9897 0.0157653 19.9897L0.0142915 19.9883ZM3.84765 16.4862C5.98614 16.9016 6.93969 16.2582 7.05023 14.1897C7.14897 12.3436 7.10918 10.4887 7.10476 8.63669C7.10181 7.50806 7.08265 6.37654 7.00601 5.25082C6.95296 4.46935 6.6523 3.73582 5.77244 3.5775C5.14902 3.46565 4.48876 3.55571 3.84765 3.55571V16.4877V16.4862Z" fill="white"/>
</g>
<g clip-path="url(#clip1_2098_54168)">
<path d="M16.3762 2.87749C15.931 2.89649 15.573 3.10541 15.302 3.50427C15.031 3.90313 14.8955 4.61538 14.8955 5.64103L11.8179 5.29915C11.8179 3.60874 12.234 2.30453 13.0663 1.38335C13.8987 0.462171 15.0116 0 16.4053 0C18.0118 0 19.1635 0.424185 19.8603 1.26939C20.5571 2.11459 20.9056 3.25103 20.9056 4.6787C20.9249 5.55239 20.8346 6.33428 20.6313 7.01804C20.4281 7.7018 20.1216 8.43621 19.7184 9.21494L15.6246 17.1193H20.7055V19.9968H11.9921V17.3156C12.8631 15.698 13.7212 14.0867 14.56 12.4786C15.402 10.8705 16.2472 9.25926 17.1021 7.64166C17.3731 7.14783 17.5408 6.65717 17.6118 6.17284C17.6795 5.68851 17.715 5.17885 17.715 4.64704C17.715 4.4761 17.7021 4.28617 17.6731 4.07724C17.6441 3.86831 17.5795 3.67838 17.486 3.50744C17.3892 3.3365 17.2537 3.18772 17.0795 3.06426C16.9053 2.9408 16.673 2.87749 16.3827 2.87749H16.3762Z" fill="white"/>
</g>
<defs>
<clipPath id="clip0_2098_54168">
<rect width="10.9091" height="20" fill="white" transform="translate(-0.000488281)"/>
</clipPath>
<clipPath id="clip1_2098_54168">
<rect width="9.09091" height="20" fill="white" transform="translate(11.8179)"/>
</clipPath>
</defs>
</svg>
