<svg width="50" height="50" viewBox="0 0 50 50" fill="none" xmlns="http://www.w3.org/2000/svg">
<path d="M24.6396 43.525C19.5987 43.525 14.8608 41.5615 11.2959 37.9964C7.73225 34.4312 5.76953 29.6901 5.76953 24.6473C5.76953 19.6044 7.73225 14.8645 11.2959 11.2982C14.8596 7.73306 19.5987 5.76953 24.6396 5.76953C29.6804 5.76953 34.4183 7.73306 37.9832 11.2982C41.5469 14.8633 43.5096 19.6044 43.5096 24.6473C43.5096 29.6901 41.5469 34.43 37.9832 37.9964C34.4195 41.5615 29.6804 43.525 24.6396 43.525ZM24.6396 7.69578C20.1132 7.69578 15.8584 9.45851 12.6577 12.6605C9.457 15.8625 7.69499 20.119 7.69499 24.6473C7.69499 29.1755 9.457 33.432 12.6577 36.634C15.8584 39.836 20.1132 41.5987 24.6396 41.5987C29.166 41.5987 33.4207 39.836 36.6214 36.634C39.8221 33.432 41.5841 29.1755 41.5841 24.6473C41.5841 20.119 39.8221 15.8625 36.6214 12.6605C33.4207 9.45851 29.166 7.69578 24.6396 7.69578Z" fill="#F15623"/>
<path d="M35.7979 0H49.9996V14.2076H42.9V7.13627H35.7979V0Z" fill="#F15623"/>
<path d="M0 49.9986V35.791H7.08046V42.8948H14.2246V49.9986H0Z" fill="#F15623"/>
<path d="M35.7282 17.8164C35.7462 19.7859 34.1549 21.4116 32.1886 21.4296C30.2198 21.4476 28.5949 19.8545 28.5792 17.8885C28.5624 15.9154 30.1513 14.2945 32.1177 14.2765C34.09 14.2597 35.7102 15.8468 35.7282 17.8164Z" fill="#F15623"/>
<path d="M24.9588 28.5888C22.9937 28.5696 21.4048 26.9439 21.424 24.972C21.4432 23.0037 23.0658 21.4165 25.037 21.4357C27.0033 21.455 28.591 23.0794 28.573 25.0513C28.5537 27.0173 26.9276 28.6093 24.9588 28.5888Z" fill="#F15623"/>
<path d="M21.4175 32.1728C21.4151 34.1399 19.8034 35.7463 17.837 35.7439C15.8695 35.7415 14.2662 34.1303 14.2686 32.1608C14.2722 30.19 15.8791 28.5884 17.8491 28.5908C19.8166 28.5944 21.4199 30.2032 21.4175 32.1728Z" fill="#F15623"/>
</svg>
