<svg width="50" height="50" viewBox="0 0 50 50" fill="none" xmlns="http://www.w3.org/2000/svg">
<g clip-path="url(#clip0_2104_143)">
<path d="M25 50C18.3223 50 12.0442 47.3997 7.32228 42.6777C2.60034 37.9558 0 31.6777 0 25C0 18.3223 2.60034 12.0442 7.32228 7.32228C12.0442 2.60034 18.3223 0 25 0C31.6777 0 37.9558 2.60034 42.6777 7.32228C47.3997 12.0442 50 18.3223 50 25C50 31.6777 47.3997 37.9558 42.6777 42.6777C37.9558 47.3997 31.6777 50 25 50ZM25 2.55102C19.0034 2.55102 13.3665 4.88605 9.12585 9.12585C4.88605 13.3665 2.55102 19.0034 2.55102 25C2.55102 30.9966 4.88605 36.6335 9.12585 40.8741C13.3656 45.1139 19.0034 47.449 25 47.449C30.9966 47.449 36.6335 45.1139 40.8741 40.8741C45.1139 36.6344 47.449 30.9966 47.449 25C47.449 19.0034 45.1139 13.3665 40.8741 9.12585C36.6344 4.88605 30.9966 2.55102 25 2.55102Z" fill="#F15623"/>
<path d="M30.1328 13.1211H36.8837V19.8719H33.5087V16.5122H30.1328V13.1211Z" fill="#F15623"/>
<path d="M13.1152 36.8796V30.1279H16.4809V33.5038H19.8771V36.8796H13.1152Z" fill="#F15623"/>
<path d="M30.1002 21.5863C30.1087 22.5226 29.3519 23.2947 28.4182 23.3032C27.482 23.3117 26.7099 22.5549 26.7022 21.6204C26.6946 20.6833 27.4497 19.9129 28.3842 19.9044C29.3221 19.8959 30.0917 20.651 30.1002 21.5863Z" fill="#F15623"/>
<path d="M24.9811 26.7046C24.0475 26.6952 23.2915 25.9231 23.3009 24.986C23.3102 24.0506 24.0815 23.2964 25.0186 23.3058C25.9531 23.3151 26.7082 24.0864 26.6988 25.0234C26.6895 25.9571 25.9165 26.7139 24.9811 26.7046Z" fill="#F15623"/>
<path d="M23.2973 28.4095C23.2955 29.3441 22.5294 30.1077 21.5949 30.1068C20.6595 30.1051 19.8967 29.3398 19.8984 28.4044C19.9001 27.4682 20.6637 26.7072 21.6008 26.708C22.5362 26.7097 23.2981 27.4742 23.2973 28.4104V28.4095Z" fill="#F15623"/>
</g>
<defs>
<clipPath id="clip0_2104_143">
<rect width="50" height="50" fill="white"/>
</clipPath>
</defs>
</svg>
