<svg width="40" height="40" viewBox="0 0 40 40" fill="none" xmlns="http://www.w3.org/2000/svg">
<path d="M11.3623 40H0.000991961V28.6342H5.68093V34.2906H11.3623V40Z" fill="#F15623"/>
<path d="M40 -2.80136e-05V11.3672H34.3358V5.68358H28.6201V-2.80136e-05H40Z" fill="#F15623"/>
<path d="M11.4151 25.7472C11.4008 24.171 12.6745 22.871 14.2458 22.8567C15.8214 22.8424 17.1208 24.1166 17.1337 25.6899C17.1466 27.2676 15.8758 28.5647 14.303 28.579C12.7245 28.5933 11.4294 27.322 11.4151 25.7472Z" fill="#F15623"/>
<path d="M20.0285 17.1292C21.5998 17.1449 22.872 18.4448 22.8563 20.0225C22.8406 21.5973 21.5426 22.8672 19.9655 22.8514C18.3928 22.8357 17.122 21.5372 17.1377 19.9595C17.1535 18.3876 18.4543 17.1134 20.0285 17.1292Z" fill="#F15623"/>
<path d="M22.864 14.2593C22.8668 12.6859 24.1562 11.4003 25.729 11.4018C27.3032 11.4046 28.5868 12.6931 28.584 14.2679C28.5811 15.8441 27.296 17.1255 25.719 17.124C24.1448 17.1212 22.8625 15.8341 22.864 14.2579V14.2593Z" fill="#F15623"/>
</svg>
