<svg width="35" height="35" viewBox="0 0 35 35" fill="none" xmlns="http://www.w3.org/2000/svg">
<path d="M17.5193 34.9939C13.5832 34.9939 9.64926 35.0001 5.71319 34.9939C2.285 34.9855 0.00995118 32.7066 0.00370676 29.2716C-0.00253767 24.9888 -0.00253767 20.7039 0.00370676 16.4211C0.00786971 12.9673 2.24754 10.7301 5.7007 10.7197C7.46163 10.7155 9.22256 10.7092 10.9814 10.7238C11.9847 10.7322 12.5779 11.2321 12.6258 12.0591C12.6757 12.9319 12.0783 13.5672 11.0501 13.5902C9.25586 13.6318 7.45955 13.5902 5.66532 13.6089C3.78367 13.6277 2.89696 14.5317 2.89279 16.4357C2.88447 20.7185 2.88447 25.0034 2.89279 29.2862C2.89696 31.1235 3.86484 32.0963 5.70487 32.0984C13.5749 32.1067 21.445 32.1067 29.315 32.0984C31.0926 32.0984 32.0772 31.1152 32.0813 29.3445C32.0938 25.0263 32.0917 20.7081 32.0813 16.3898C32.0772 14.5255 31.1592 13.6256 29.263 13.6089C27.5021 13.5943 25.7411 13.6297 23.9823 13.5922C22.8604 13.5693 22.1735 12.834 22.3692 11.9091C22.5294 11.1488 23.0165 10.7176 23.8304 10.7197C25.9014 10.7259 27.9746 10.6738 30.0436 10.7447C32.6954 10.8342 34.9267 13.1756 34.9579 15.9482C35.0079 20.5414 35.0141 25.1388 34.9579 29.732C34.9204 32.7129 32.5496 34.9668 29.5294 34.9876C25.5247 35.0126 21.522 34.9939 17.5172 34.9939H17.5193Z" fill="#F15623"/>
<path d="M16.0792 21.9599V20.8475C16.0792 14.6295 16.0792 8.41361 16.0792 2.1956C16.0792 1.84981 16.0542 1.49777 16.1125 1.16239C16.2415 0.408317 16.7536 0.00419872 17.4821 3.25544e-05C18.2106 -0.00413362 18.7289 0.391653 18.8642 1.14365C18.9245 1.47902 18.8996 1.83106 18.8996 2.17686C18.8996 8.39487 18.8996 14.6108 18.8996 20.8288V22.1349C19.2201 21.8891 19.4345 21.7579 19.6093 21.587C20.521 20.6913 21.4077 19.7727 22.3298 18.8895C22.948 18.2979 23.664 18.2854 24.2864 18.8415C24.9129 19.4019 25.0045 20.1935 24.4363 20.7892C22.4547 22.8577 20.4294 24.8867 18.3646 26.8718C17.813 27.4009 17.0554 27.3322 16.4871 26.7739C14.518 24.8367 12.5594 22.889 10.6299 20.9142C10.0325 20.3039 10.0783 19.3665 10.6673 18.8686C11.35 18.2895 12.0744 18.3083 12.703 18.9436C13.7417 19.9956 14.7428 21.085 15.7607 22.1578C15.8668 22.0912 15.973 22.0266 16.0792 21.9599Z" fill="#F15623"/>
</svg>
