<svg width="16" height="17" viewBox="0 0 16 17" fill="none" xmlns="http://www.w3.org/2000/svg">
<path d="M13.4844 7.44141C13.6602 7.26562 13.6602 6.98438 13.4844 6.84375L12.7812 6.14062C12.6406 5.96484 12.3594 5.96484 12.1836 6.14062L8.87891 9.55078V0.796875C8.87891 0.585938 8.70312 0.375 8.45703 0.375H7.47266C7.26172 0.375 7.05078 0.585938 7.05078 0.796875V9.55078L3.78125 6.14062C3.60547 5.96484 3.32422 5.96484 3.18359 6.14062L2.48047 6.84375C2.30469 6.98438 2.30469 7.26562 2.48047 7.44141L7.68359 12.6445C7.85938 12.8203 8.10547 12.8203 8.28125 12.6445L13.4844 7.44141ZM14.3281 14.2969H1.67188C1.42578 14.2969 1.25 14.5078 1.25 14.7188V15.7031C1.25 15.9492 1.42578 16.125 1.67188 16.125H14.3281C14.5391 16.125 14.75 15.9492 14.75 15.7031V14.7188C14.75 14.5078 14.5391 14.2969 14.3281 14.2969Z" fill="#AFAFAF"/>
</svg>
