<svg width="26" height="24" viewBox="0 0 26 24" fill="none" xmlns="http://www.w3.org/2000/svg">
<path d="M11.7169 21.2576L11.7155 21.2563C8.36979 18.2224 5.67333 15.7717 3.80161 13.4818C1.94088 11.2053 1 9.2102 1 7.10417C1 3.66639 3.67693 1 7.10417 1C9.04936 1 10.9329 1.91071 12.1578 3.33795L12.9167 4.2221L13.6755 3.33795C14.9005 1.91071 16.784 1 18.7292 1C22.1564 1 24.8333 3.66639 24.8333 7.10417C24.8333 9.2102 23.8925 11.2053 22.0317 13.4818C20.16 15.7717 17.4635 18.2224 14.1178 21.2563L14.1164 21.2576L12.9167 22.3498L11.7169 21.2576Z" stroke="#F15623" stroke-width="2"/>
</svg>
