<svg width="24" height="18" viewBox="0 0 24 18" fill="none" xmlns="http://www.w3.org/2000/svg">
<path d="M23.5562 16.1074C23.7063 16.4323 23.8476 16.7377 24 17.0674C23.8349 17.1213 23.6781 17.1745 23.5201 17.2242C21.7815 17.7704 19.9957 18.0731 18.1357 17.9848C16.5932 17.9119 15.1221 17.5747 13.6991 17.0752C12.4265 16.6286 11.1682 16.1507 9.89246 15.7112C8.81796 15.3413 7.70058 15.1088 6.53438 15.103C5.1189 15.0962 3.80305 15.4327 2.57175 16.0116C1.94142 16.3078 1.33927 16.6481 0.702578 16.9798C0.487042 16.7278 0.253643 16.4554 0 16.1592C0.451714 15.9032 0.884773 15.6441 1.33291 15.4064C2.43203 14.8241 3.59665 14.3724 4.86883 14.146C6.35059 13.8822 7.8149 13.9797 9.22958 14.4079C10.3811 14.7563 11.5044 15.1766 12.6285 15.5885C13.9317 16.0658 15.2376 16.5294 16.636 16.7664C18.7414 17.1226 20.7947 16.9355 22.8096 16.3368C23.0521 16.2649 23.2931 16.1885 23.5562 16.1077V16.1074Z" fill="#F15623"/>
<path d="M0.709643 8.00176C0.472566 7.72402 0.243034 7.45482 0 7.16992C0.133828 7.08666 0.258919 7.00648 0.386789 6.92937C1.58647 6.20808 2.85605 5.60655 4.27454 5.26331C6.09332 4.8235 7.8855 4.95214 9.63082 5.51886C10.8488 5.91431 12.0373 6.37629 13.237 6.812C14.4399 7.24873 15.663 7.62712 16.9568 7.81614C18.9066 8.1007 20.8056 7.90724 22.6693 7.37532C22.9576 7.29309 23.2427 7.20131 23.5532 7.10645C23.699 7.42104 23.8447 7.7346 24 8.06897C23.6839 8.1686 23.3845 8.26994 23.0795 8.35762C21.6257 8.77491 20.1373 9.01989 18.5988 8.99873C17.2034 8.97963 15.8457 8.76399 14.5443 8.33647C13.3653 7.94887 12.2041 7.52067 11.0394 7.10202C9.93302 6.70452 8.81951 6.33125 7.6242 6.17669C5.93567 5.95833 4.33927 6.22344 2.83738 6.89218C2.17023 7.18936 1.54477 7.55649 0.901052 7.89223C0.840294 7.92396 0.781918 7.95979 0.709246 8.00141L0.709643 8.00176Z" fill="#F15623"/>
<path d="M0.695129 2.98482C0.473608 2.72585 0.243752 2.45663 0 2.17138C0.0857497 2.11782 0.16356 2.06834 0.242561 2.01989C1.37319 1.3269 2.56733 0.736948 3.89447 0.363326C5.68727 -0.14132 7.48444 -0.117094 9.25184 0.416213C10.4039 0.763562 11.5258 1.18768 12.6497 1.59986C13.9589 2.07994 15.2722 2.54262 16.6783 2.776C18.7089 3.11312 20.6935 2.94013 22.6439 2.38396C22.7943 2.34097 22.9444 2.29661 23.0937 2.25055C23.2362 2.20653 23.3771 2.15978 23.5447 2.10587C23.6939 2.42695 23.8396 2.74018 24 3.08514C23.4319 3.24551 22.8853 3.41372 22.3291 3.55464C19.4283 4.2896 16.5882 4.09545 13.8077 3.11585C12.5723 2.68047 11.3503 2.21677 10.1129 1.7848C8.98546 1.39104 7.8195 1.12012 6.59122 1.10375C5.09615 1.08396 3.71939 1.45519 2.42719 2.07175C1.84441 2.34984 1.28902 2.66989 0.694732 2.98482H0.695129Z" fill="#F15623"/>
<path d="M0.717117 12.0026C0.476093 11.7201 0.246186 11.4505 0 11.1619C0.291453 10.989 0.569008 10.8175 0.854108 10.6559C1.92025 10.0523 3.04636 9.55554 4.28166 9.25764C5.93786 8.85794 7.57659 8.9413 9.2042 9.38336C10.5181 9.74036 11.7562 10.2555 13.0169 10.7246C14.3185 11.209 15.6424 11.6319 17.0516 11.826C18.9889 12.0924 20.8734 11.8936 22.7206 11.3586C22.995 11.279 23.2662 11.1923 23.5569 11.1031C23.7042 11.4218 23.8475 11.7317 24 12.0614C23.8328 12.1181 23.6768 12.1744 23.518 12.224C22.0091 12.6961 20.4593 12.9913 18.8472 12.9998C17.4177 13.0073 16.02 12.8102 14.6858 12.3787C13.2881 11.9268 11.9202 11.4075 10.5388 10.919C9.55759 10.5719 8.55815 10.2784 7.50114 10.1554C6.08239 9.99008 4.72201 10.1811 3.40889 10.6573C2.50832 10.9839 1.67724 11.4147 0.883889 11.9022C0.835843 11.9315 0.787399 11.9606 0.717117 12.0029V12.0026Z" fill="#F15623"/>
</svg>
