<svg width="24" height="27" viewBox="0 0 24 27" fill="none" xmlns="http://www.w3.org/2000/svg">
<path d="M11.5363 4.56052C13.1745 4.56052 14.5026 4.2654 14.5026 3.90136C14.5026 3.53731 13.1745 3.24219 11.5363 3.24219C9.89811 3.24219 8.57007 3.53731 8.57007 3.90136C8.57007 4.2654 9.89811 4.56052 11.5363 4.56052Z" fill="#F15623"/>
<path d="M22.8921 4.62623C23.2417 3.63313 23.1101 2.89263 22.2406 2.27101C21.5994 1.81285 20.8679 1.4327 20.1196 1.16151C18.2876 0.496555 16.3576 0.240231 14.4121 0.110211C10.9584 -0.121348 7.52537 -0.0297151 4.1504 0.790028C2.948 1.08226 1.77012 1.46489 0.801233 2.26359C0.147139 2.80471 -0.113467 3.47339 0.0452187 4.29932C0.148429 4.8355 0.26712 5.37787 0.272281 5.919C0.295503 8.61102 0.282602 11.3018 0.282602 13.9938C0.282602 16.8085 0.317435 19.6243 0.26583 22.4377C0.245188 23.5608 0.696733 24.4115 1.67465 24.8684C2.91059 25.4467 4.20459 25.9804 5.536 26.285C9.1161 27.1035 12.753 27.0577 16.3743 26.529C18.1276 26.2727 19.8603 25.8752 21.3826 24.9254C22.3193 24.3409 22.816 23.567 22.8082 22.4204C22.7682 16.7503 22.7889 11.0789 22.794 5.40759C22.794 5.14631 22.8069 4.86893 22.8934 4.62499L22.8921 4.62623ZM20.1351 23.7094C18.854 24.1428 17.5664 24.6282 16.2376 24.8511C12.4279 25.4901 8.61424 25.4281 4.86384 24.4338C4.033 24.2134 3.24344 23.8122 2.48614 23.4048C2.23069 23.2673 1.99589 22.8525 1.99331 22.564C1.96493 17.1824 1.97267 11.8021 1.97396 6.4205C1.97396 6.34373 1.9946 6.26695 1.99976 6.22733C8.35879 8.1219 14.6894 8.12809 21.0962 6.21618C21.0962 6.40193 21.0962 6.61739 21.0962 6.83161C21.0962 11.9457 21.0782 17.0598 21.1156 22.1739C21.122 22.9565 20.8356 23.4729 20.1338 23.7106L20.1351 23.7094ZM11.5815 6.20752C6.16687 6.20752 1.77657 5.18222 1.77657 3.91669C1.77657 2.65117 6.16687 1.62587 11.5815 1.62587C16.9962 1.62587 21.3865 2.65117 21.3865 3.91669C21.3865 5.18222 16.9962 6.20752 11.5815 6.20752Z" fill="#F15623"/>
<path d="M5.72157 9.71311C5.71383 10.4932 5.1178 11.0517 4.29857 11.0467C3.51288 11.043 2.86652 10.4338 2.86523 9.69577C2.86523 8.94289 3.56706 8.28413 4.34759 8.30518C5.12038 8.32623 5.72932 8.95032 5.72157 9.71187V9.71311Z" fill="#F15623"/>
<path d="M18.7619 11.0484C17.9452 11.0484 17.3556 10.4825 17.353 9.69988C17.3505 8.94081 17.971 8.31795 18.7412 8.30681C19.5217 8.29443 20.2197 8.9631 20.2094 9.71226C20.1991 10.4515 19.5514 11.0496 18.7619 11.0484Z" fill="#F15623"/>
<path d="M8.93895 12.1577C8.14939 12.159 7.50174 11.5609 7.49013 10.8216C7.47852 10.0712 8.17519 9.40501 8.95701 9.41615C9.72721 9.4273 10.3491 10.0502 10.3465 10.8092C10.3439 11.5918 9.75431 12.1565 8.93895 12.1577Z" fill="#F15623"/>
<path d="M14.1369 12.1577C13.3203 12.1577 12.7294 11.5918 12.7268 10.8092C12.7242 10.0502 13.3461 9.4273 14.1163 9.41615C14.8981 9.40501 15.5961 10.0724 15.5832 10.8204C15.5703 11.5658 14.9291 12.1577 14.1356 12.1577H14.1369Z" fill="#F15623"/>
<path d="M5.72159 13.5504C5.73191 14.3132 5.12684 14.9373 4.35406 14.9633C3.57611 14.9893 2.86912 14.3318 2.86525 13.5789C2.86138 12.8409 3.50644 12.2292 4.29213 12.2217C5.11265 12.2155 5.71127 12.7703 5.72159 13.5492V13.5504Z" fill="#F15623"/>
<path d="M17.3531 13.5938C17.3466 12.8063 17.9259 12.2317 18.7374 12.2218C19.5321 12.2119 20.1823 12.7927 20.2094 13.5344C20.2365 14.2798 19.5502 14.9596 18.7671 14.9634C17.9981 14.9671 17.3608 14.3479 17.3544 13.5938H17.3531Z" fill="#F15623"/>
<path d="M10.3462 14.7014C10.341 15.4555 9.70497 16.0747 8.93735 16.0747C8.15424 16.0747 7.4666 15.3961 7.49111 14.6494C7.51563 13.9064 8.16456 13.3244 8.95928 13.3331C9.77077 13.3418 10.3526 13.9151 10.3462 14.7014Z" fill="#F15623"/>
<path d="M12.7269 14.6655C12.7359 13.8853 13.3333 13.3269 14.1525 13.3331C14.9433 13.338 15.5807 13.9398 15.5832 14.6865C15.5858 15.4369 14.8801 16.0969 14.1009 16.0746C13.3268 16.0523 12.7179 15.4282 12.7269 14.6667V14.6655Z" fill="#F15623"/>
<path d="M5.721 17.4383C5.72745 18.2284 5.15077 18.8042 4.34057 18.8166C3.52005 18.8289 2.85434 18.211 2.86337 17.4458C2.8724 16.7152 3.53553 16.0824 4.30057 16.0762C5.06949 16.0688 5.71326 16.6879 5.71971 17.4396L5.721 17.4383Z" fill="#F15623"/>
<path d="M18.789 18.8169C17.9672 18.8268 17.3673 18.2745 17.3518 17.4944C17.3364 16.7093 17.984 16.0642 18.7774 16.0753C19.5399 16.0865 20.2043 16.7242 20.2095 17.4523C20.2146 18.1928 19.576 18.8082 18.7903 18.8169H18.789Z" fill="#F15623"/>
<path d="M8.94156 19.9252C8.15071 19.9277 7.50307 19.3333 7.49017 18.5928C7.47727 17.8437 8.17135 17.175 8.95317 17.1837C9.72209 17.1923 10.3465 17.8152 10.3465 18.573C10.3465 19.3569 9.75692 19.9228 8.94156 19.9252Z" fill="#F15623"/>
<path d="M14.1699 19.926C13.3481 19.9383 12.743 19.3848 12.7276 18.6097C12.7121 17.8221 13.3559 17.177 14.148 17.1856C14.9118 17.1943 15.5762 17.8283 15.5839 18.5577C15.5916 19.3019 14.9582 19.9148 14.1712 19.926H14.1699Z" fill="#F15623"/>
<path d="M5.72106 21.3469C5.72106 22.1035 5.09663 22.7251 4.32643 22.7338C3.5459 22.7424 2.85052 22.07 2.86472 21.3221C2.87891 20.5816 3.52784 19.9885 4.31869 19.9922C5.13405 19.9959 5.72106 20.5631 5.72106 21.3469Z" fill="#F15623"/>
<path d="M17.3531 21.3606C17.3479 20.5743 17.9285 20.001 18.7399 19.9923C19.5347 19.9836 20.1836 20.5656 20.2081 21.3086C20.2326 22.0553 19.545 22.7326 18.7619 22.7338C17.9943 22.7338 17.3582 22.1147 17.3531 21.3606Z" fill="#F15623"/>
<path d="M8.94418 21.1006C9.75954 21.1043 10.3465 21.6715 10.3465 22.4553C10.3465 23.2119 9.72212 23.8335 8.95192 23.8422C8.17139 23.8508 7.47601 23.1797 7.4902 22.4305C7.5044 21.69 8.15333 21.0969 8.94418 21.1006Z" fill="#F15623"/>
<path d="M12.7269 22.474C12.7191 21.6852 13.2997 21.1106 14.1112 21.1007C14.933 21.0908 15.5948 21.7087 15.5832 22.4752C15.5716 23.2045 14.9046 23.8373 14.1422 23.8423C13.3732 23.8472 12.7346 23.2281 12.7269 22.474Z" fill="#F15623"/>
</svg>
