<svg width="23" height="26" viewBox="0 0 23 26" fill="none" xmlns="http://www.w3.org/2000/svg">
<path d="M6.5059 0C6.78225 0.12769 7.08793 0.218242 7.32854 0.391208C7.75639 0.698477 7.94151 1.14463 7.94365 1.65589C7.94418 1.80699 7.94365 1.95858 7.94365 2.15292C8.06901 2.15292 8.17891 2.15292 8.28934 2.15292C10.7823 2.15292 13.2758 2.1519 15.7688 2.15393C16.354 2.15393 16.9393 2.1636 17.525 2.17174C17.9129 2.17734 18.1636 2.38947 18.1652 2.70539C18.1668 3.02182 17.9102 3.24311 17.5314 3.24922C17.3815 3.25176 17.2311 3.24922 17.0358 3.24922V3.55038C17.0358 6.08026 17.0358 8.60963 17.0342 11.1395C17.0342 11.2657 17.0305 11.3949 17.0006 11.5165C16.9403 11.7576 16.7024 11.9199 16.4506 11.9138C16.2057 11.9077 15.9854 11.75 15.9262 11.5175C15.8974 11.4041 15.8926 11.2835 15.8926 11.166C15.891 8.63609 15.891 6.10671 15.891 3.57683V3.26397H2.28016V11.9189H2.61466C6.3768 11.9189 10.1384 11.9189 13.9005 11.9189C14.0072 11.9189 14.1139 11.9158 14.2196 11.9235C14.529 11.9453 14.7536 12.1682 14.7563 12.4505C14.7595 12.7303 14.5354 12.9643 14.2318 12.9938C14.1438 13.0025 14.0547 12.9979 13.9656 12.9979C10.1768 12.9979 6.38854 12.9979 2.59972 12.9979H2.27376V21.6492C2.40073 21.6492 2.5133 21.6492 2.62533 21.6492C4.90545 21.6492 7.18556 21.6502 9.46621 21.6482C9.7559 21.6482 10.0194 21.692 10.1635 21.9682C10.3433 22.3121 10.0931 22.7237 9.69028 22.744C9.49555 22.7537 9.29977 22.746 9.10504 22.746C6.29251 22.746 3.47997 22.746 0.667436 22.746C0.264655 22.746 0.0187181 22.5558 0.00111305 22.2399C-0.0159585 21.9341 0.193168 21.6965 0.51486 21.6752C0.706914 21.6625 0.901103 21.6726 1.11076 21.6726V12.9974C0.934713 12.9974 0.760263 13.002 0.585813 12.9964C0.239581 12.9857 0.00431396 12.769 4.60783e-05 12.4642C-0.00368832 12.1519 0.219842 11.9357 0.570342 11.9219C0.745859 11.9148 0.921376 11.9209 1.11183 11.9209V3.24922C0.942182 3.24922 0.776268 3.25227 0.610887 3.24871C0.243849 3.24057 0.00324699 3.02843 4.60783e-05 2.71404C-0.00315483 2.39253 0.226244 2.17784 0.59915 2.17276C1.41485 2.16207 2.23108 2.15902 3.04732 2.15292C3.15241 2.1519 3.25751 2.15292 3.40475 2.15292C3.40475 1.99877 3.40422 1.86701 3.40475 1.73576C3.40955 0.846516 3.84328 0.295568 4.7374 0.0406979C4.76087 0.0340845 4.78061 0.0142443 4.80195 0.000508723C5.37011 0.000508723 5.93774 0.000508723 6.5059 0.000508723V0ZM6.80946 2.13511C6.80946 1.9596 6.81959 1.79325 6.80732 1.62842C6.78278 1.3003 6.57365 1.09681 6.22742 1.08358C5.85612 1.06985 5.48321 1.07086 5.1119 1.08358C4.80622 1.09376 4.58375 1.26825 4.55014 1.53024C4.52507 1.72661 4.54534 1.92806 4.54534 2.1346H6.80999L6.80946 2.13511Z" fill="#F15623"/>
<path d="M22.7038 21.2045C22.6681 23.7196 20.6115 25.7931 17.9606 25.9865C15.3753 26.1752 13.02 24.4084 12.5633 21.967C12.3606 20.8824 12.6316 19.8884 13.0888 18.9167C13.7941 17.418 14.7634 16.0755 15.8074 14.7793C16.2337 14.2497 16.6845 13.7369 17.1369 13.2272C17.3994 12.9316 17.7792 12.9174 18.0379 13.2043C19.6373 14.9787 21.1172 16.8335 22.1378 18.9808C22.4723 19.6844 22.7219 20.4154 22.7043 21.2045H22.7038ZM17.6378 14.4044C17.5706 14.4328 17.5493 14.4354 17.5391 14.4466C16.2486 15.9458 15.0248 17.4913 14.1782 19.2672C13.9322 19.7831 13.7124 20.3457 13.6575 20.9028C13.4926 22.5628 14.566 24.0803 16.2316 24.6796C17.8245 25.2529 19.6795 24.7579 20.7235 23.4561C21.7195 22.2148 21.8044 20.8804 21.1343 19.4707C20.4968 18.1302 19.6501 16.9149 18.7315 15.7418C18.3772 15.2895 18.0038 14.851 17.6378 14.4044Z" fill="#F15623"/>
</svg>
