<svg width="25" height="31" viewBox="0 0 25 31" fill="none" xmlns="http://www.w3.org/2000/svg">
<path d="M6.01255 0.000606629C6.86172 1.26846 7.70188 2.54238 8.56247 3.80235C9.51501 5.19699 10.4892 6.57646 11.2037 8.11851C11.5733 8.91502 11.8768 9.73639 11.9574 10.6215C12.2248 13.5575 10.3456 16.2837 7.51618 17.0171C5.52216 17.534 3.72586 17.0827 2.11165 15.7881C2.15913 15.722 2.19038 15.6716 2.22824 15.6268C2.37668 15.4508 2.52692 15.2761 2.68798 15.0875C3.35025 15.6322 4.08103 16.0053 4.90436 16.1958C7.8359 16.874 10.7867 14.6992 11.0655 11.674C11.1737 10.4995 10.8329 9.44339 10.3474 8.41394C9.59133 6.81365 8.55887 5.38686 7.55585 3.94248C7.04081 3.20057 6.52398 2.45988 5.99212 1.69492C5.71327 2.10136 5.44343 2.48475 5.18381 2.87421C4.16937 4.39563 3.1351 5.90432 2.15372 7.44758C1.60263 8.31385 1.18135 9.25958 0.990838 10.2811C0.722204 11.7249 1.06356 13.0401 1.90612 14.2285C1.96381 14.3098 2.02331 14.3892 2.09723 14.4918C1.87186 14.6859 1.65431 14.8727 1.42294 15.0723C0.696362 14.1981 0.259456 13.2118 0.0743572 12.1047C-0.19608 10.4874 0.305731 9.03877 1.02089 7.63564C1.87907 5.95285 2.99988 4.44174 4.0648 2.89423C4.66277 2.02493 5.24331 1.1435 5.82865 0.265097C5.88214 0.185022 5.91219 0.0885678 5.95306 0C5.97289 0 5.99332 0 6.01315 0L6.01255 0.000606629Z" fill="#F15623"/>
<path d="M14.4651 4.59746C13.7638 5.62144 13.0787 6.62117 12.3827 7.63727C12.1267 7.45528 11.9002 7.29392 11.6616 7.12406C12.5979 5.72578 13.5282 4.33479 14.506 2.87402C14.5192 2.92134 14.521 2.96805 14.5426 3.00081C16.2007 5.43582 17.8612 7.8684 19.5187 10.3034C20.8943 12.3241 22.2267 14.3721 23.2002 16.6299C23.8553 18.1489 24.2916 19.7146 24.2549 21.3993C24.1594 25.8149 20.9111 29.8277 16.6244 30.7541C13.5901 31.4092 10.8401 30.7553 8.38148 28.8474C8.31057 28.7922 8.24386 28.7316 8.14771 28.6497C8.33401 28.424 8.5155 28.2038 8.71382 27.963C8.78654 28.0176 8.84904 28.0612 8.90853 28.1086C14.2788 32.3926 22.092 29.3558 23.2405 22.5446C23.5542 20.6852 23.1918 18.9369 22.4821 17.2347C21.6485 15.2359 20.5253 13.4015 19.3161 11.6198C17.741 9.29883 16.1364 6.99788 14.5438 4.68845C14.5276 4.66479 14.506 4.64417 14.4651 4.59685V4.59746Z" fill="#F15623"/>
<path d="M14.4876 29.1388C14.4755 28.8622 14.4635 28.585 14.4497 28.2726C16.3229 28.1161 17.9143 27.3784 19.1866 25.9995C20.4528 24.6273 21.073 22.9822 21.1193 21.0713H21.9781C22.1241 25.2121 18.6241 29.0242 14.487 29.1395L14.4876 29.1388Z" fill="#F15623"/>
<path d="M5.18925 18.1484C5.4699 18.2382 5.73313 18.3225 6.01078 18.4117C5.01797 21.7979 5.78241 24.7595 8.06309 27.3619C7.86537 27.5682 7.67306 27.769 7.48075 27.9692C5.17002 25.8047 3.9212 21.6675 5.18985 18.1484H5.18925Z" fill="#F15623"/>
<path d="M9.71319 11.6299C9.79072 13.4965 8.21798 15.2436 6.21614 15.3685C6.19931 15.2242 6.18068 15.0786 6.16566 14.9318C6.15124 14.7935 6.14102 14.6551 6.1272 14.4974C6.8724 14.3907 7.52986 14.1316 8.05091 13.5905C8.56834 13.0536 8.81354 12.3997 8.84298 11.6299H9.71199H9.71319Z" fill="#F15623"/>
<path d="M22.0071 19.2783V20.1349H21.1375V19.2783H22.0071Z" fill="#F15623"/>
<path d="M9.71206 10.6731H8.85327V9.80566H9.71206V10.6731Z" fill="#F15623"/>
</svg>
