<svg width="21" height="49" viewBox="0 0 21 49" fill="none" xmlns="http://www.w3.org/2000/svg">
<path d="M9.57537 7.54782C8.89111 8.56879 8.28474 9.50554 7.64221 10.4101C7.47068 10.6513 7.21386 10.8748 6.95703 10.9663C6.55649 11.1087 6.1884 10.9237 5.96217 10.5109C5.72945 10.0846 5.7619 9.64901 6.028 9.2477C6.62696 8.34526 7.23147 7.44698 7.83414 6.54765C8.46461 5.60675 9.08953 4.66064 9.72835 3.72597C10.2476 2.96701 10.8836 2.97324 11.4019 3.7426C12.6109 5.53813 13.8153 7.33885 15.017 9.14165C15.4277 9.75818 15.3832 10.4069 14.9242 10.7947C14.469 11.1794 13.896 11.0422 13.4834 10.4371C12.8557 9.51697 12.2326 8.5927 11.6077 7.67051C11.6012 7.66011 11.5799 7.66219 11.5326 7.64867V41.3654C11.6161 41.2802 11.6958 41.2188 11.7505 41.1367C12.3281 40.281 12.8984 39.4191 13.4778 38.5645C13.8904 37.9553 14.4606 37.8139 14.9177 38.1923C15.3823 38.577 15.4323 39.2289 15.0244 39.8433C13.8339 41.6336 12.6397 43.4209 11.4381 45.2018C10.879 46.0315 10.2355 46.0211 9.66809 45.18C8.4674 43.398 7.27227 41.6118 6.07992 39.8236C5.66733 39.205 5.71091 38.5614 6.17728 38.1778C6.63994 37.7972 7.21386 37.9334 7.62181 38.5354C8.256 39.4701 8.88184 40.412 9.5763 41.4465V7.54782H9.57537Z" fill="#F15623"/>
<path d="M10.4781 48.9978C7.36466 48.9978 4.25121 48.9978 1.13776 48.9978C0.454435 48.9978 0.0372074 48.6297 0.0019748 48.0028C-0.0304763 47.4112 0.340393 46.9205 0.865173 46.8664C0.98756 46.8539 1.1118 46.8623 1.23512 46.8623C7.40082 46.8623 13.5665 46.8623 19.7313 46.8623C19.8704 46.8623 20.0104 46.8519 20.1467 46.8706C20.6325 46.9371 20.9997 47.3987 20.9987 47.929C20.9978 48.4478 20.6659 48.8803 20.1865 48.9645C20.0048 48.9967 19.8185 48.9957 19.6339 48.9957C16.5817 48.9978 13.5304 48.9967 10.4781 48.9967V48.9978Z" fill="#F15623"/>
<path d="M10.4975 2.13487C7.36825 2.13487 4.23904 2.13487 1.11076 2.13487C0.420943 2.13591 -0.00184827 1.72731 6.07483e-06 1.06296C0.00186042 0.419399 0.410744 0.00248886 1.07645 0.00144918C7.33488 -0.000630172 13.5924 -0.000630172 19.8508 0.00248886C20.5573 0.00248886 20.9875 0.409003 20.9996 1.05048C21.0116 1.7034 20.5545 2.13383 19.8387 2.13487C16.7253 2.13591 13.6118 2.13487 10.4984 2.13591L10.4975 2.13487Z" fill="#F15623"/>
<path d="M1.09102 14.9142C0.589417 14.9236 0.14901 14.4453 0.133248 13.8756C0.117486 13.3069 0.531932 12.8109 1.04373 12.787C1.56202 12.7621 2.02746 13.2642 2.02839 13.8475C2.02839 14.4068 1.59076 14.9059 1.09195 14.9142H1.09102Z" fill="#F15623"/>
<path d="M20.0242 12.7862C20.5314 12.7789 20.9681 13.2541 20.981 13.8259C20.994 14.4102 20.5397 14.9248 20.0214 14.9155C19.5207 14.9061 19.085 14.4092 19.085 13.8477C19.085 13.2853 19.5198 12.7935 20.0233 12.7862H20.0242Z" fill="#F15623"/>
<path d="M20.0517 27.6959C19.5547 27.7094 19.1041 27.2291 19.0856 26.6635C19.0661 26.0844 19.5204 25.5594 20.0378 25.5625C20.5403 25.5656 20.9761 26.0553 20.9807 26.6209C20.9853 27.1875 20.5579 27.6814 20.0526 27.6949L20.0517 27.6959Z" fill="#F15623"/>
<path d="M20.9801 30.8621C20.994 31.4277 20.5759 31.9278 20.0678 31.9517C19.5532 31.9756 19.085 31.4693 19.085 30.8871C19.085 30.3267 19.5226 29.8297 20.0233 29.8214C20.5249 29.8131 20.9662 30.2924 20.9801 30.8621Z" fill="#F15623"/>
<path d="M1.08238 36.2115C0.57614 36.2136 0.141295 35.7343 0.132951 35.1635C0.123679 34.5803 0.581703 34.0688 1.10092 34.0833C1.60159 34.0979 2.03551 34.6 2.02995 35.1583C2.02438 35.7208 1.58398 36.2105 1.0833 36.2126L1.08238 36.2115Z" fill="#F15623"/>
<path d="M20.0545 34.0833C20.558 34.0989 20.9873 34.5959 20.9808 35.1594C20.9743 35.7499 20.5098 36.2417 19.9887 36.2095C19.4815 36.1783 19.0661 35.673 19.0856 35.1116C19.106 34.546 19.5566 34.0688 20.0545 34.0833Z" fill="#F15623"/>
<path d="M2.02798 5.32176C2.03076 5.88839 1.59035 6.38743 1.08412 6.39159C0.576953 6.39575 0.136545 5.90606 0.132836 5.3332C0.129128 4.75618 0.557482 4.27169 1.07392 4.26857C1.58664 4.26545 2.0252 4.7489 2.02798 5.32176Z" fill="#F15623"/>
<path d="M1.09774 10.6554C0.596138 10.6689 0.152949 10.1948 0.133479 9.6251C0.114008 9.05535 0.523819 8.55943 1.03747 8.5324C1.55947 8.50432 2.02399 8.99609 2.02862 9.58247C2.03326 10.1418 1.59934 10.6419 1.09867 10.6554H1.09774Z" fill="#F15623"/>
<path d="M20.0402 8.52835C20.5483 8.53251 20.9785 9.01596 20.9803 9.5857C20.9822 10.1502 20.552 10.6451 20.0495 10.6566C19.5339 10.668 19.0731 10.1492 19.0852 9.5701C19.0963 9.00244 19.5349 8.52419 20.0402 8.52835Z" fill="#F15623"/>
<path d="M2.02897 18.0952C2.03546 18.6535 1.6034 19.1567 1.10272 19.1744C0.586289 19.192 0.125483 18.6805 0.132901 18.0952C0.139391 17.5286 0.577017 17.042 1.08047 17.042C1.57929 17.042 2.02248 17.5338 2.02897 18.0952Z" fill="#F15623"/>
<path d="M20.9812 18.1014C20.984 18.667 20.5556 19.1629 20.0512 19.1754C19.5385 19.1889 19.0749 18.6681 19.0851 18.09C19.0953 17.5265 19.5385 17.0389 20.0383 17.042C20.5417 17.0451 20.9784 17.5348 20.9812 18.1004V18.1014Z" fill="#F15623"/>
<path d="M1.07858 21.3008C1.5774 21.3008 2.02152 21.7916 2.02894 22.352C2.03728 22.93 1.57184 23.4488 1.05911 23.4332C0.553803 23.4176 0.127303 22.9227 0.132866 22.3561C0.138429 21.7916 0.57791 21.3008 1.07858 21.2998V21.3008Z" fill="#F15623"/>
<path d="M20.9799 22.3783C20.9734 22.9429 20.5349 23.4326 20.0342 23.4336C19.5177 23.4346 19.0644 22.9065 19.0857 22.3284C19.1061 21.7628 19.5567 21.2846 20.0546 21.3002C20.5608 21.3158 20.9864 21.8107 20.9799 22.3773V22.3783Z" fill="#F15623"/>
<path d="M2.02823 26.6251C2.03008 27.1845 1.59338 27.6835 1.09271 27.6939C0.574419 27.7054 0.120104 27.1897 0.133084 26.6054C0.146064 26.0367 0.585545 25.5553 1.08807 25.5626C1.58689 25.5688 2.0273 26.0668 2.02823 26.6251Z" fill="#F15623"/>
<path d="M1.09385 29.8215C1.5936 29.8329 2.0303 30.333 2.02844 30.8913C2.02566 31.4714 1.55466 31.9788 1.041 31.9518C0.531057 31.9247 0.11661 31.4257 0.133299 30.858C0.149989 30.2893 0.593178 29.8111 1.09385 29.8215Z" fill="#F15623"/>
<path d="M2.02905 39.4119C2.02534 39.9754 1.5905 40.463 1.08612 40.4682C0.578952 40.4734 0.14318 39.9961 0.132981 39.4254C0.122782 38.839 0.57617 38.3295 1.09724 38.342C1.59977 38.3545 2.03276 38.8525 2.02905 39.4129V39.4119Z" fill="#F15623"/>
<path d="M20.0527 38.3431C20.5571 38.3566 20.9845 38.8526 20.9799 39.4171C20.9753 39.9868 20.5414 40.4703 20.0351 40.4703C19.5131 40.4703 19.0644 39.9525 19.0857 39.3714C19.1061 38.8047 19.5539 38.3286 20.0527 38.3421V38.3431Z" fill="#F15623"/>
<path d="M2.02805 43.6807C2.02063 44.2515 1.57744 44.7339 1.0675 44.7266C0.55199 44.7193 0.12549 44.2296 0.132908 43.6537C0.140325 43.0798 0.582587 42.5953 1.09068 42.6046C1.59877 42.6129 2.03547 43.1151 2.02805 43.6807Z" fill="#F15623"/>
<path d="M20.9804 5.3113C20.9906 5.88209 20.5594 6.38321 20.0504 6.39465C19.5451 6.40608 19.0963 5.92055 19.0852 5.34977C19.0732 4.77587 19.4987 4.2841 20.0152 4.27266C20.5316 4.26123 20.9702 4.73324 20.9804 5.31026V5.3113Z" fill="#F15623"/>
<path d="M20.027 42.6055C20.5369 42.6003 20.9746 43.0859 20.9801 43.6608C20.9848 44.2357 20.5555 44.7234 20.04 44.7275C19.5282 44.7317 19.0887 44.2482 19.085 43.6754C19.0813 43.1087 19.5198 42.6097 20.027 42.6045V42.6055Z" fill="#F15623"/>
</svg>
