<svg width="456" height="36" viewBox="0 0 456 36" fill="none" xmlns="http://www.w3.org/2000/svg">
<path d="M26.6015 23.009H33.4975C33.2896 23.9086 32.9874 24.8622 32.6095 25.8338C32.2128 26.8054 31.5893 27.903 30.7202 29.1265C29.8511 30.35 28.8497 31.4295 27.7162 32.3651C26.6015 33.3007 25.1278 34.0924 23.3141 34.7221C21.5004 35.3519 19.5354 35.6758 17.3816 35.6758C12.4694 35.6758 8.35074 34.0204 5.00666 30.7098C1.66258 27.3992 0 23.2069 0 18.133C0 13.0771 1.66258 8.88485 5.00666 5.57422C8.35074 2.26359 12.4694 0.608317 17.3816 0.608317C19.3843 0.608317 21.2548 0.896199 22.974 1.45397C24.6933 2.02973 26.1291 2.74942 27.3005 3.63105C28.453 4.51268 29.4922 5.52027 30.3612 6.67179C31.2492 7.82331 31.9293 8.90288 32.4017 9.94645C32.874 10.972 33.233 12.0156 33.4786 13.0232H26.5826C25.9025 11.3319 24.8067 9.85647 23.2763 8.579C21.7649 7.31952 19.7999 6.6898 17.3816 6.6898C14.2454 6.6898 11.6759 7.73335 9.65435 9.82049C7.65168 11.9256 6.6315 14.6784 6.6315 18.115C6.6315 21.5516 7.65168 24.3225 9.65435 26.4276C11.6759 28.5148 14.2454 29.5583 17.3816 29.5583C19.8377 29.5583 21.8216 28.9105 23.333 27.6151C24.8822 26.3376 25.9591 24.7903 26.6015 23.009Z" fill="#F9F9F9"/>
<path d="M35.0512 35.1669L47.8229 1.08904H57.534L70.3057 35.1669H62.8997L60.1979 27.8619H45.1779L42.4762 35.1669H35.0512ZM47.3128 22.0144H58.0441L53.1886 8.394H52.1683L47.3128 22.0144Z" fill="#F9F9F9"/>
<path d="M74.9146 35.1669V1.08904H91.276C94.4689 1.08904 97.1518 2.15063 99.2867 4.27375C101.44 6.39687 102.517 9.1497 102.517 12.5143C102.517 15.699 101.497 18.2899 99.4756 20.2691C97.4541 22.2663 94.9791 23.3278 92.0317 23.4537L103.538 35.1489H95.0924L83.5865 23.4537H81.5461V35.1489H74.9146V35.1669ZM81.5649 17.6422H91.0304C92.334 17.6422 93.4487 17.1564 94.4311 16.1488C95.3947 15.1592 95.8859 13.9537 95.8859 12.5323C95.8859 10.967 95.4136 9.68947 94.45 8.68189C93.4865 7.67431 92.3529 7.17052 91.0304 7.17052H81.5649V17.6422Z" fill="#F9F9F9"/>
<path d="M117.346 35.1669L105.065 1.08904H112.49L121.691 27.3762H122.712L131.913 1.08904H139.319L127.057 35.1669H117.346Z" fill="#F9F9F9"/>
<path d="M144.191 35.1669V1.08904H150.842V35.1669H144.191Z" fill="#F9F9F9"/>
<path d="M159.249 35.1669V1.08904H165.899V29.0854H182.771V35.1669H159.249Z" fill="#F9F9F9"/>
<path d="M188.385 35.1669V1.08904H195.035V29.0854H211.907V35.1669H188.385Z" fill="#F9F9F9"/>
<path d="M217.536 1.08904H241.568V6.93661H224.187V15.2132H240.529V21.0608H224.187V29.3373H241.568V35.1849H217.536V1.08904Z" fill="#F9F9F9"/>
<path d="M262.523 35.1669V1.08904H278.885C282.096 1.08904 284.76 2.15063 286.914 4.27375C289.068 6.39687 290.145 9.1497 290.145 12.5143C290.145 15.699 289.125 18.2899 287.084 20.2691C285.063 22.2663 282.588 23.3278 279.64 23.4537L291.146 35.1489H282.701L271.195 23.4537H269.155V35.1489H262.523V35.1669ZM269.155 17.6422H278.62C279.924 17.6422 281.057 17.1564 282.021 16.1488C282.984 15.1592 283.476 13.9537 283.476 12.5323C283.476 10.967 283.003 9.68947 282.04 8.68189C281.095 7.67431 279.943 7.17052 278.62 7.17052H269.155V17.6422Z" fill="#F9F9F9"/>
<path d="M293.452 35.1669L306.224 1.08904H315.935L328.707 35.1669H321.282L318.58 27.8619H303.541L300.839 35.1669H293.452ZM305.714 22.0144H316.445L311.59 8.394H310.569L305.714 22.0144Z" fill="#F9F9F9"/>
<path d="M357.345 23.0055H364.241C364.052 23.9052 363.731 24.8588 363.353 25.8304C362.956 26.802 362.333 27.8995 361.464 29.123C360.595 30.3465 359.593 31.4261 358.479 32.3617C357.364 33.2973 355.89 34.089 354.076 34.7187C352.263 35.3484 350.298 35.6723 348.144 35.6723C343.232 35.6723 339.113 34.017 335.769 30.7063C332.425 27.3957 330.762 23.2035 330.762 18.1296C330.762 13.0737 332.425 8.88139 335.769 5.57076C339.113 2.26013 343.232 0.604859 348.144 0.604859C350.147 0.604859 352.017 0.892741 353.736 1.45051C355.456 2.02627 356.891 2.74596 358.063 3.62759C359.234 4.50923 360.254 5.51681 361.124 6.66833C362.012 7.81986 362.692 8.89942 363.164 9.94299C363.636 10.9686 363.995 12.0121 364.241 13.0197H357.345C356.665 11.3284 355.569 9.85301 354.058 8.57554C352.527 7.31606 350.581 6.68634 348.163 6.68634C345.027 6.68634 342.457 7.72989 340.436 9.81703C338.433 11.9222 337.413 14.675 337.413 18.1116C337.413 21.5481 338.414 24.319 340.436 26.4242C342.438 28.5113 345.027 29.5548 348.163 29.5548C350.619 29.5548 352.603 28.9071 354.114 27.6116C355.626 26.3341 356.703 24.7868 357.345 23.0055Z" fill="#F9F9F9"/>
<path d="M370.628 35.1669V1.08904H377.279V35.1669H370.628Z" fill="#F9F9F9"/>
<path d="M385.704 35.1669V1.08904H394.641L407.677 24.6952H408.697V1.08904H415.347V35.1669H406.411L393.375 11.5427H392.355V35.1669H385.704Z" fill="#F9F9F9"/>
<path d="M450.88 35.1666L450.37 31.2802H450.124C449.482 32.0899 448.632 32.8096 447.574 33.4573C445.25 34.9147 442.624 35.6524 439.658 35.6524C434.745 35.6524 430.627 33.9971 427.282 30.6865C423.938 27.3759 422.276 23.1836 422.276 18.1097C422.276 13.0538 423.938 8.86155 427.282 5.55092C430.627 2.24029 434.745 0.584961 439.658 0.584961C441.981 0.584961 444.097 0.962795 446.043 1.70049C447.97 2.43818 449.595 3.42776 450.899 4.66925C452.184 5.91073 453.242 7.2062 454.035 8.55564C454.829 9.92307 455.414 11.3265 455.754 12.7479H448.858C446.875 8.69961 443.814 6.66645 439.658 6.66645C436.521 6.66645 433.952 7.71 431.93 9.79713C429.928 11.9023 428.907 14.6551 428.907 18.0917C428.907 21.5283 429.928 24.2991 431.93 26.4043C433.952 28.4914 436.521 29.5349 439.658 29.5349C441.226 29.5349 442.643 29.2651 443.946 28.7073C445.25 28.1495 446.27 27.4838 447.007 26.6922C447.763 25.9005 448.329 25.1088 448.745 24.2991C449.142 23.5074 449.35 22.8237 449.35 22.23V22.0141H440.413V17.1561H456V35.1666H450.88Z" fill="#F9F9F9"/>
</svg>
