<svg width="24" height="24" viewBox="0 0 24 24" fill="none" xmlns="http://www.w3.org/2000/svg">
<path d="M13.625 7.875C13.8125 7.875 14 7.71875 14 7.5V6.5C14 6.3125 13.8125 6.125 13.625 6.125H0.375C0.15625 6.125 0 6.3125 0 6.5V7.5C0 7.71875 0.15625 7.875 0.375 7.875H13.625ZM13.625 12.875C13.8125 12.875 14 12.7188 14 12.5V11.5C14 11.3125 13.8125 11.125 13.625 11.125H0.375C0.15625 11.125 0 11.3125 0 11.5V12.5C0 12.7188 0.15625 12.875 0.375 12.875H13.625ZM13.625 17.875C13.8125 17.875 14 17.7188 14 17.5V16.5C14 16.3125 13.8125 16.125 13.625 16.125H0.375C0.15625 16.125 0 16.3125 0 16.5V17.5C0 17.7188 0.15625 17.875 0.375 17.875H13.625Z" fill="white"/>
</svg>
