<svg width="14" height="14" viewBox="0 0 14 14" fill="none" xmlns="http://www.w3.org/2000/svg">
<path d="M12.5 0H1.5C0.65625 0 0 0.6875 0 1.5V12.5C0 13.3438 0.65625 14 1.5 14H12.5C13.3125 14 14 13.3438 14 12.5V1.5C14 0.6875 13.3125 0 12.5 0ZM12.3125 12.5H1.6875C1.5625 12.5 1.5 12.4375 1.5 12.3125V1.6875C1.5 1.59375 1.5625 1.5 1.6875 1.5H12.3125C12.4062 1.5 12.5 1.59375 12.5 1.6875V12.3125C12.5 12.4375 12.4062 12.5 12.3125 12.5ZM10.625 3H6.375C6.03125 3 5.84375 3.40625 6.09375 3.65625L7.59375 5.15625L3.09375 9.65625C2.9375 9.8125 2.9375 10.0625 3.09375 10.1875L3.8125 10.9062C3.9375 11.0625 4.1875 11.0625 4.34375 10.9062L8.84375 6.40625L10.3438 7.90625C10.5938 8.125 11 7.96875 11 7.625V3.375C11 3.1875 10.8125 3 10.625 3Z" fill="#F15623"/>
</svg>
