<svg width="65" height="44" viewBox="0 0 65 44" fill="none" xmlns="http://www.w3.org/2000/svg">
<path d="M0.00264291 22.7266C0.00264291 26.1255 2.53736 28.4991 6.16782 28.4991H29.0278V23.6723L27.5281 21.7994H8.41739C7.37446 21.7994 6.585 21.0126 6.585 19.9635V9.06214C6.585 8.01307 7.37182 7.22096 8.41739 7.22096H27.6047L29.0252 5.62086V0.5H6.16518C2.53472 0.5 0 2.87102 0 6.27256V22.7266H0.00264291Z" fill="white"/>
<path d="M57.5992 28.4991H64.3928V26.1705L58.6871 19.6191L59.4765 19.5582C62.7294 19.2959 65.0001 16.9355 65.0001 13.8148V6.27256C65.0001 3.4035 62.8825 0.5 58.8376 0.5H34.5386V28.4991H41.1235V19.6032L50.3146 19.5953L57.5992 28.4991ZM41.1262 7.22891H56.5854C57.6283 7.22891 58.4177 8.01836 58.4177 9.07009V11.0119C58.4177 12.061 57.6283 12.8531 56.5854 12.8531L41.1262 12.8452V7.22891Z" fill="white"/>
<path d="M4.08966 41.6356H5.05338C5.02434 41.7681 4.9821 41.9085 4.92929 42.0516C4.87384 42.1946 4.78671 42.3562 4.66526 42.5364C4.5438 42.7165 4.40386 42.8755 4.24544 43.0132C4.08966 43.151 3.88371 43.2675 3.63024 43.3603C3.37677 43.453 3.10217 43.5007 2.80117 43.5007C2.11469 43.5007 1.5391 43.2569 1.07176 42.7695C0.604418 42.282 0.37207 41.6648 0.37207 40.9177C0.37207 40.1733 0.604418 39.556 1.07176 39.0686C1.5391 38.5811 2.11469 38.3374 2.80117 38.3374C3.08105 38.3374 3.34245 38.3798 3.58272 38.4619C3.82299 38.5467 4.02365 38.6527 4.18735 38.7825C4.34841 38.9123 4.49364 39.0606 4.61509 39.2302C4.73919 39.3997 4.83423 39.5587 4.90024 39.7123C4.96625 39.8633 5.01642 40.017 5.05074 40.1654H4.08702C3.99197 39.9163 3.83883 39.6991 3.62496 39.511C3.41374 39.3256 3.13914 39.2328 2.80117 39.2328C2.36288 39.2328 2.00379 39.3865 1.72128 39.6938C1.4414 40.0038 1.29883 40.4091 1.29883 40.9151C1.29883 41.4211 1.4414 41.829 1.72128 42.139C2.00379 42.4463 2.36288 42.5999 2.80117 42.5999C3.14442 42.5999 3.42166 42.5046 3.63289 42.3138C3.84939 42.1257 3.99989 41.8979 4.08966 41.6356Z" fill="white"/>
<path d="M5.27051 43.4257L7.05538 38.4082H8.41251L10.1974 43.4257H9.16237L8.7848 42.3502H6.68574L6.30816 43.4257H5.27051ZM6.9841 41.4892H8.48381L7.80524 39.4838H7.66266L6.9841 41.4892Z" fill="white"/>
<path d="M10.8415 43.4257V38.4082H13.128C13.5742 38.4082 13.9491 38.5645 14.2475 38.8771C14.5485 39.1897 14.699 39.595 14.699 40.0904C14.699 40.5593 14.5564 40.9408 14.2739 41.2322C13.9914 41.5263 13.6455 41.6826 13.2336 41.7011L14.8416 43.4231H13.6613L12.0534 41.7011H11.7682V43.4231H10.8415V43.4257ZM11.7709 40.8454H13.0937C13.2759 40.8454 13.4316 40.7739 13.5689 40.6256C13.7036 40.4799 13.7722 40.3024 13.7722 40.0931C13.7722 39.8626 13.7062 39.6745 13.5716 39.5262C13.4369 39.3778 13.2785 39.3036 13.0937 39.3036H11.7709V40.8454Z" fill="white"/>
<path d="M16.7713 43.4257L15.0551 38.4082H16.0927L17.3786 42.2787H17.5212L18.807 38.4082H19.842L18.1284 43.4257H16.7713Z" fill="white"/>
<path d="M20.523 43.4257V38.4082H21.4524V43.4257H20.523Z" fill="white"/>
<path d="M22.6273 43.4257V38.4082H23.5567V42.5303H25.9145V43.4257H22.6273Z" fill="white"/>
<path d="M26.6991 43.4257V38.4082H27.6285V42.5303H29.9863V43.4257H26.6991Z" fill="white"/>
<path d="M30.773 38.4082H34.1316V39.2692H31.7025V40.4878H33.9863V41.3488H31.7025V42.5674H34.1316V43.4284H30.773V38.4082Z" fill="white"/>
<path d="M37.06 43.4257V38.4082H39.3465C39.7954 38.4082 40.1677 38.5645 40.4687 38.8771C40.7697 39.1897 40.9202 39.595 40.9202 40.0904C40.9202 40.5593 40.7776 40.9408 40.4924 41.2322C40.2099 41.5263 39.864 41.6826 39.4521 41.7011L41.0601 43.4231H39.8799L38.2719 41.7011H37.9868V43.4231H37.06V43.4257ZM37.9868 40.8454H39.3096C39.4917 40.8454 39.6502 40.7739 39.7848 40.6256C39.9195 40.4799 39.9881 40.3024 39.9881 40.0931C39.9881 39.8626 39.9221 39.6745 39.7875 39.5262C39.6554 39.3778 39.4944 39.3036 39.3096 39.3036H37.9868V40.8454Z" fill="white"/>
<path d="M41.3824 43.4257L43.1672 38.4082H44.5244L46.3092 43.4257H45.2716L44.894 42.3502H42.7923L42.4147 43.4257H41.3824ZM43.096 41.4892H44.5957L43.9171 39.4838H43.7745L43.096 41.4892Z" fill="white"/>
<path d="M50.3114 41.6351H51.2752C51.2488 41.7676 51.2039 41.908 51.1511 42.0511C51.0956 42.1941 51.0085 42.3557 50.887 42.5359C50.7656 42.716 50.6257 42.875 50.4699 43.0127C50.3141 43.1505 50.1081 43.267 49.8547 43.3598C49.6012 43.4525 49.3266 43.5002 49.0256 43.5002C48.3391 43.5002 47.7635 43.2564 47.2962 42.769C46.8289 42.2815 46.5965 41.6643 46.5965 40.9172C46.5965 40.1728 46.8289 39.5555 47.2962 39.0681C47.7635 38.5806 48.3391 38.3369 49.0256 38.3369C49.3055 38.3369 49.5669 38.3793 49.8071 38.4614C50.0474 38.5462 50.2481 38.6522 50.4118 38.782C50.5755 38.9118 50.7181 39.0601 50.8395 39.2297C50.9636 39.3992 51.0587 39.5582 51.1247 39.7118C51.1907 39.8628 51.2409 40.0165 51.2752 40.1648H50.3114C50.2164 39.9158 50.0633 39.6986 49.852 39.5105C49.6382 39.3251 49.3662 39.2323 49.0283 39.2323C48.59 39.2323 48.2309 39.386 47.9484 39.6933C47.6685 40.0032 47.5259 40.4086 47.5259 40.9146C47.5259 41.4206 47.6658 41.8285 47.9484 42.1385C48.2282 42.4458 48.59 42.5994 49.0283 42.5994C49.3715 42.5994 49.6487 42.5041 49.86 42.3133C50.0712 42.1252 50.2217 41.8974 50.3114 41.6351Z" fill="white"/>
<path d="M52.1678 43.4257V38.4082H53.0972V43.4257H52.1678Z" fill="white"/>
<path d="M54.2747 43.4257V38.4082H55.5236L57.3454 41.8839H57.488V38.4082H58.4174V43.4257H57.1685L55.3467 39.9474H55.2041V43.4257H54.2747Z" fill="white"/>
<path d="M63.3831 43.4257L63.3118 42.8535H63.2775C63.1877 42.9727 63.0689 43.0787 62.921 43.174C62.5963 43.3886 62.2293 43.4972 61.8147 43.4972C61.1283 43.4972 60.5526 43.2535 60.0853 42.7661C59.618 42.2786 59.3856 41.6613 59.3856 40.9143C59.3856 40.1699 59.618 39.5526 60.0853 39.0652C60.5526 38.5777 61.1283 38.334 61.8147 38.334C62.1395 38.334 62.4352 38.3896 62.7072 38.4982C62.9765 38.6068 63.2035 38.7526 63.3857 38.9353C63.5653 39.1181 63.7131 39.3089 63.824 39.5076C63.9349 39.7089 64.0168 39.9155 64.0643 40.1248H63.1006C62.8233 39.5288 62.3956 39.2294 61.8147 39.2294C61.3764 39.2294 61.0174 39.3831 60.7348 39.6904C60.455 40.0003 60.3124 40.4056 60.3124 40.9116C60.3124 41.4176 60.455 41.8256 60.7348 42.1356C61.0174 42.4429 61.3764 42.5965 61.8147 42.5965C62.0339 42.5965 62.2319 42.5568 62.4141 42.4746C62.5963 42.3925 62.7388 42.2945 62.8418 42.1779C62.9474 42.0614 63.0267 41.9448 63.0847 41.8256C63.1402 41.709 63.1692 41.6084 63.1692 41.5209V41.4892H61.9203V40.7739H64.0986V43.4257H63.3831Z" fill="white"/>
</svg>
