<svg width="24" height="24" viewBox="0 0 24 24" fill="none" xmlns="http://www.w3.org/2000/svg">
<path d="M20.2969 4.59375L16.4062 0.65625C15.9844 0.234375 15.375 0 14.8125 0H5.25C3.98438 0 3 1.03125 3 2.25V21.75C3 23.0156 3.98438 24 5.25 24H18.75C19.9688 24 21 23.0156 21 21.75V6.1875C21 5.625 20.7188 5.01562 20.2969 4.59375ZM19.2656 5.67188C19.3594 5.76562 19.4062 5.90625 19.4531 6H15V1.54688C15.0938 1.59375 15.2344 1.64062 15.3281 1.73438L19.2656 5.67188ZM18.75 22.5H5.25C4.82812 22.5 4.5 22.1719 4.5 21.75V2.25C4.5 1.875 4.82812 1.5 5.25 1.5H13.5V6.375C13.5 7.03125 13.9688 7.5 14.625 7.5H19.5V21.75C19.5 22.1719 19.125 22.5 18.75 22.5ZM17.7188 14.4844C17.0625 13.875 15.1406 14.0625 14.25 14.2031C13.2656 13.5938 12.6094 12.75 12.1406 11.5312C12.3281 10.6875 12.7031 9.32812 12.4219 8.48438C12.2344 7.17188 10.5469 7.3125 10.3594 8.15625C10.125 9.04688 10.3125 10.2656 10.7344 11.8125C10.1719 13.125 9.32812 14.9531 8.76562 15.9844C7.78125 16.4531 6.23438 17.3438 6 18.4219C5.85938 19.2188 7.07812 20.25 8.48438 18.7031C8.90625 18.2812 9.375 17.5781 9.9375 16.5938C11.2031 16.1719 12.6094 15.6562 13.7812 15.4688C14.8125 16.0312 16.0312 16.4062 16.8281 16.4062C18.1406 16.4062 18.1875 15 17.7188 14.4844ZM6.9375 18.6562C7.21875 17.9062 8.29688 17.0625 8.625 16.7344C7.59375 18.4219 6.9375 18.7031 6.9375 18.6562ZM11.4375 8.25C11.8125 8.25 11.7656 9.98438 11.5312 10.5C11.25 9.70312 11.2969 8.25 11.4375 8.25ZM10.0781 15.7031C10.5938 14.7656 11.0625 13.6875 11.4375 12.75C11.9062 13.5469 12.4688 14.2031 13.0781 14.6719C11.9531 14.9062 10.9688 15.375 10.0781 15.7031ZM17.2969 15.4219C17.2969 15.4219 17.0156 15.75 15.2344 15C17.1562 14.8594 17.4844 15.3281 17.2969 15.4219Z" fill="white"/>
</svg>
