<svg width="17" height="14" viewBox="0 0 17 14" fill="none" xmlns="http://www.w3.org/2000/svg">
<path d="M8.49854 13.1967C6.016 13.1967 3.53248 13.1947 1.04993 13.1987C0.605096 13.1987 0.221448 12.9264 0.0689596 12.527C0.022339 12.4047 0 12.2785 0 12.1474C0 11.7767 0 11.4061 0 11.0354C0 8.28481 0 5.53422 0 2.78462C0 2.30068 0.288465 1.89723 0.73913 1.76209C0.837228 1.73327 0.943096 1.72134 1.04508 1.72134C2.1426 1.71836 3.2411 1.71936 4.33863 1.72134C4.39885 1.72134 4.44547 1.70544 4.47849 1.65973C4.56785 1.53751 4.65526 1.41329 4.74073 1.28809C4.87379 1.09232 4.99909 0.889607 5.13895 0.698814C5.24579 0.553732 5.37788 0.429518 5.55173 0.371883C5.63041 0.346046 5.71491 0.329153 5.79746 0.329153C7.59818 0.326172 9.3989 0.328159 11.1996 0.326172C11.4454 0.326172 11.6318 0.441443 11.794 0.615342C11.9747 0.81011 12.1068 1.04065 12.2476 1.26424C12.3292 1.39243 12.4176 1.51565 12.504 1.64085C12.5438 1.69749 12.5934 1.72035 12.6672 1.72035C13.7667 1.71737 14.8661 1.71836 15.9656 1.71836C16.4085 1.71836 16.7844 1.98368 16.9388 2.40601C16.9815 2.52327 17 2.6455 17 2.7707C17 5.89593 17 9.02016 17 12.1454C17 12.684 16.6193 13.1212 16.0977 13.1898C16.0452 13.1967 15.9909 13.1957 15.9374 13.1957C13.4578 13.1957 10.9782 13.1957 8.49951 13.1957L8.49854 13.1967ZM8.50146 12.5041C10.9811 12.5041 13.4607 12.5041 15.9394 12.5041C16.1851 12.5041 16.323 12.365 16.323 12.1156C16.323 9.01122 16.323 5.90587 16.323 2.80151C16.323 2.7548 16.3182 2.70611 16.3065 2.6614C16.2628 2.5024 16.1336 2.41396 15.952 2.41396C14.8457 2.41396 13.7385 2.41396 12.6322 2.41396C12.5827 2.41396 12.5322 2.41396 12.4827 2.40601C12.2874 2.3762 12.1398 2.26093 12.0116 2.11684C11.8329 1.91611 11.6979 1.68358 11.5541 1.45702C11.4745 1.33181 11.388 1.21157 11.3006 1.09133C11.2628 1.03966 11.2093 1.02078 11.1423 1.02078C9.39113 1.02276 7.63995 1.02276 5.88876 1.02078C5.79358 1.02078 5.72559 1.05258 5.67411 1.12512C5.59156 1.24138 5.51094 1.35963 5.43518 1.48087C5.29629 1.70346 5.16032 1.92903 4.98549 2.12578C4.81358 2.31956 4.60864 2.41893 4.34446 2.41694C3.33726 2.40999 2.33103 2.41396 1.32383 2.41396C1.22379 2.41396 1.12375 2.41396 1.02371 2.41396C0.916871 2.41595 0.825573 2.4557 0.756613 2.54116C0.69251 2.62065 0.679883 2.71506 0.679883 2.81343C0.679883 5.90885 0.679883 9.00426 0.679883 12.1007C0.679883 12.1315 0.680855 12.1623 0.683769 12.1941C0.689596 12.2756 0.72359 12.3441 0.778952 12.4028C0.858596 12.4852 0.959607 12.5061 1.06839 12.5061C3.54608 12.5061 6.02377 12.5061 8.50146 12.5061V12.5041Z" fill="#F15623"/>
<path d="M8.50346 2.41211C10.9433 2.41907 12.9198 4.44525 12.9198 6.93549C12.9198 9.41778 10.9501 11.4609 8.49375 11.4579C6.02771 11.4549 4.05314 9.38797 4.07936 6.88481C4.10558 4.43034 6.06073 2.41708 8.50249 2.41211H8.50346ZM12.2418 6.93549C12.2438 4.82981 10.5732 3.11367 8.519 3.1097C6.43273 3.10671 4.76119 4.80795 4.76021 6.93449C4.75924 9.05011 6.42884 10.7593 8.49763 10.7613C10.5674 10.7623 12.2399 9.05408 12.2418 6.93549Z" fill="#F15623"/>
<path d="M2.90023 4.85371C2.79144 4.84774 2.69335 4.85371 2.59913 4.83482C2.25337 4.76725 2.01832 4.45821 2.04163 4.11438C2.06688 3.75068 2.33204 3.47741 2.68946 3.46052C2.86138 3.45257 3.03815 3.44959 3.20714 3.47841C3.50144 3.5271 3.75008 3.82124 3.7394 4.18096C3.73065 4.48504 3.50047 4.7762 3.20132 4.83085C3.09836 4.84973 2.9925 4.84675 2.89925 4.85371H2.90023Z" fill="#F15623"/>
<path d="M8.50322 3.8042C10.1864 3.8042 11.5617 5.21527 11.5598 6.93936C11.5578 8.66445 10.1806 10.0725 8.49739 10.0676C6.78894 10.0626 5.41363 8.62569 5.44083 6.88471C5.46705 5.20732 6.80739 3.80917 8.50322 3.80519V3.8042ZM6.12071 6.93638C6.12071 8.30373 7.21629 9.41967 8.5916 9.36998C9.83384 9.32427 10.877 8.29777 10.8809 6.93737C10.8857 5.58593 9.81248 4.49582 8.49545 4.50278C7.17453 4.50973 6.11391 5.59686 6.12071 6.93638Z" fill="#F15623"/>
</svg>
