<svg width="22" height="20" viewBox="0 0 22 20" fill="none" xmlns="http://www.w3.org/2000/svg">
<path d="M0 2.86523C0.340023 2.86523 0.621361 2.86523 0.902699 2.86523C5.30228 2.86523 9.70359 2.86523 14.1032 2.86523C14.3051 2.86523 14.5053 2.86523 14.7073 2.87387C17.8193 3.01383 19.1241 4.33393 19.2052 7.44065C19.2208 8.0454 19.2225 8.65016 19.2052 9.25492C19.1207 12.2683 18.1972 13.1582 15.893 13.794C17.1392 15.4925 18.3664 17.1669 19.7092 19.0001C18.1506 19.0001 16.7802 19.0243 15.4132 18.9759C15.2061 18.969 14.9679 18.6563 14.816 18.4368C13.8857 17.0874 12.9588 15.7327 12.0665 14.3573C11.7886 13.9271 11.4917 13.7388 10.9601 13.7457C8.66626 13.7768 6.37068 13.7595 3.99224 13.7595V18.9517H0V2.86523ZM3.99052 10.188C4.38405 10.188 4.69473 10.188 5.00541 10.188C7.67726 10.188 10.3491 10.188 13.021 10.188C15.1336 10.188 15.1854 10.1344 15.1733 8.01603C15.1647 6.7063 14.9282 6.46094 13.6113 6.45921C10.6512 6.4523 7.69279 6.45576 4.7327 6.45921C4.48761 6.45921 4.24424 6.4955 3.99052 6.51451V10.1897V10.188Z" fill="white"/>
<path d="M19.7613 3.04023C20.6009 3.04023 21.2814 2.35965 21.2814 1.52012C21.2814 0.680579 20.6009 0 19.7613 0C18.9218 0 18.2412 0.680579 18.2412 1.52012C18.2412 2.35965 18.9218 3.04023 19.7613 3.04023Z" fill="white"/>
</svg>
