<svg width="16" height="19" viewBox="0 0 16 19" fill="none" xmlns="http://www.w3.org/2000/svg">
<path d="M10.0703 10.75C13.2344 10.75 15.5 8.79688 15.5 5.75C15.5 2.70312 13.2344 0.75 10.0703 0.75H4.71875C4.44531 0.75 4.25 0.984375 4.25 1.21875V9.1875H0.96875C0.695312 9.1875 0.5 9.42188 0.5 9.65625V10.2812C0.5 10.5547 0.695312 10.75 0.96875 10.75H4.25V13.0156H0.96875C0.695312 13.0156 0.5 13.25 0.5 13.4844V14.0312C0.5 14.3047 0.695312 14.5 0.96875 14.5H4.25V17.7812C4.25 18.0547 4.44531 18.25 4.71875 18.25H5.46094C5.73438 18.25 5.92969 18.0547 5.92969 17.7812V14.5H12.5312C12.7656 14.5 13 14.3047 13 14.0312V13.4844C13 13.25 12.7656 13.0156 12.5312 13.0156H5.92969V10.75H10.0703ZM5.92969 2.3125H10.0312C12.3359 2.3125 13.8594 3.5625 13.8594 5.71094C13.8594 7.89844 12.3359 9.1875 9.99219 9.1875H5.92969V2.3125Z" fill="white"/>
</svg>
