<svg width="25" height="24" viewBox="0 0 25 24" fill="none" xmlns="http://www.w3.org/2000/svg">
<path d="M22.3774 20.8203L17.6509 16.0938C17.5337 16.0156 17.4165 15.9375 17.2993 15.9375H16.7915C18.0024 14.5312 18.7837 12.6562 18.7837 10.625C18.7837 6.17188 15.1118 2.5 10.6587 2.5C6.1665 2.5 2.53369 6.17188 2.53369 10.625C2.53369 15.1172 6.1665 18.75 10.6587 18.75C12.6899 18.75 14.5259 18.0078 15.9712 16.7969V17.3047C15.9712 17.4219 16.0103 17.5391 16.0884 17.6562L20.8149 22.3828C21.0103 22.5781 21.3228 22.5781 21.479 22.3828L22.3774 21.4844C22.5728 21.3281 22.5728 21.0156 22.3774 20.8203ZM10.6587 16.875C7.18213 16.875 4.40869 14.1016 4.40869 10.625C4.40869 7.1875 7.18213 4.375 10.6587 4.375C14.0962 4.375 16.9087 7.1875 16.9087 10.625C16.9087 14.1016 14.0962 16.875 10.6587 16.875Z" fill="#F15623"/>
</svg>
