<svg xmlns="http://www.w3.org/2000/svg">
    <symbol id="logo" viewBox="0 0 65 44">
        <path d="M0.00264291 22.7266C0.00264291 26.1255 2.53736 28.4991 6.16782 28.4991H29.0278V23.6723L27.5281 21.7994H8.41739C7.37446 21.7994 6.585 21.0126 6.585 19.9635V9.06214C6.585 8.01307 7.37182 7.22096 8.41739 7.22096H27.6047L29.0252 5.62086V0.5H6.16518C2.53472 0.5 0 2.87102 0 6.27256V22.7266H0.00264291Z" />
        <path d="M57.5992 28.4991H64.3928V26.1705L58.6871 19.6191L59.4765 19.5582C62.7294 19.2959 65.0001 16.9355 65.0001 13.8148V6.27256C65.0001 3.4035 62.8825 0.5 58.8376 0.5H34.5386V28.4991H41.1235V19.6032L50.3146 19.5953L57.5992 28.4991ZM41.1262 7.22891H56.5854C57.6283 7.22891 58.4177 8.01836 58.4177 9.07009V11.0119C58.4177 12.061 57.6283 12.8531 56.5854 12.8531L41.1262 12.8452V7.22891Z" />
        <path d="M4.08966 41.6356H5.05338C5.02434 41.7681 4.9821 41.9085 4.92929 42.0516C4.87384 42.1946 4.78671 42.3562 4.66526 42.5364C4.5438 42.7165 4.40386 42.8755 4.24544 43.0132C4.08966 43.151 3.88371 43.2675 3.63024 43.3603C3.37677 43.453 3.10217 43.5007 2.80117 43.5007C2.11469 43.5007 1.5391 43.2569 1.07176 42.7695C0.604418 42.282 0.37207 41.6648 0.37207 40.9177C0.37207 40.1733 0.604418 39.556 1.07176 39.0686C1.5391 38.5811 2.11469 38.3374 2.80117 38.3374C3.08105 38.3374 3.34245 38.3798 3.58272 38.4619C3.82299 38.5467 4.02365 38.6527 4.18735 38.7825C4.34841 38.9123 4.49364 39.0606 4.61509 39.2302C4.73919 39.3997 4.83423 39.5587 4.90024 39.7123C4.96625 39.8633 5.01642 40.017 5.05074 40.1654H4.08702C3.99197 39.9163 3.83883 39.6991 3.62496 39.511C3.41374 39.3256 3.13914 39.2328 2.80117 39.2328C2.36288 39.2328 2.00379 39.3865 1.72128 39.6938C1.4414 40.0038 1.29883 40.4091 1.29883 40.9151C1.29883 41.4211 1.4414 41.829 1.72128 42.139C2.00379 42.4463 2.36288 42.5999 2.80117 42.5999C3.14442 42.5999 3.42166 42.5046 3.63289 42.3138C3.84939 42.1257 3.99989 41.8979 4.08966 41.6356Z" />
        <path d="M5.27051 43.4257L7.05538 38.4082H8.41251L10.1974 43.4257H9.16237L8.7848 42.3502H6.68574L6.30816 43.4257H5.27051ZM6.9841 41.4892H8.48381L7.80524 39.4838H7.66266L6.9841 41.4892Z" />
        <path d="M10.8415 43.4257V38.4082H13.128C13.5742 38.4082 13.9491 38.5645 14.2475 38.8771C14.5485 39.1897 14.699 39.595 14.699 40.0904C14.699 40.5593 14.5564 40.9408 14.2739 41.2322C13.9914 41.5263 13.6455 41.6826 13.2336 41.7011L14.8416 43.4231H13.6613L12.0534 41.7011H11.7682V43.4231H10.8415V43.4257ZM11.7709 40.8454H13.0937C13.2759 40.8454 13.4316 40.7739 13.5689 40.6256C13.7036 40.4799 13.7722 40.3024 13.7722 40.0931C13.7722 39.8626 13.7062 39.6745 13.5716 39.5262C13.4369 39.3778 13.2785 39.3036 13.0937 39.3036H11.7709V40.8454Z" />
        <path d="M16.7713 43.4257L15.0551 38.4082H16.0927L17.3786 42.2787H17.5212L18.807 38.4082H19.842L18.1284 43.4257H16.7713Z" />
        <path d="M20.523 43.4257V38.4082H21.4524V43.4257H20.523Z" />
        <path d="M22.6273 43.4257V38.4082H23.5567V42.5303H25.9145V43.4257H22.6273Z" />
        <path d="M26.6991 43.4257V38.4082H27.6285V42.5303H29.9863V43.4257H26.6991Z" />
        <path d="M30.773 38.4082H34.1316V39.2692H31.7025V40.4878H33.9863V41.3488H31.7025V42.5674H34.1316V43.4284H30.773V38.4082Z" />
        <path d="M37.06 43.4257V38.4082H39.3465C39.7954 38.4082 40.1677 38.5645 40.4687 38.8771C40.7697 39.1897 40.9202 39.595 40.9202 40.0904C40.9202 40.5593 40.7776 40.9408 40.4924 41.2322C40.2099 41.5263 39.864 41.6826 39.4521 41.7011L41.0601 43.4231H39.8799L38.2719 41.7011H37.9868V43.4231H37.06V43.4257ZM37.9868 40.8454H39.3096C39.4917 40.8454 39.6502 40.7739 39.7848 40.6256C39.9195 40.4799 39.9881 40.3024 39.9881 40.0931C39.9881 39.8626 39.9221 39.6745 39.7875 39.5262C39.6554 39.3778 39.4944 39.3036 39.3096 39.3036H37.9868V40.8454Z" />
        <path d="M41.3824 43.4257L43.1672 38.4082H44.5244L46.3092 43.4257H45.2716L44.894 42.3502H42.7923L42.4147 43.4257H41.3824ZM43.096 41.4892H44.5957L43.9171 39.4838H43.7745L43.096 41.4892Z" />
        <path d="M50.3114 41.6351H51.2752C51.2488 41.7676 51.2039 41.908 51.1511 42.0511C51.0956 42.1941 51.0085 42.3557 50.887 42.5359C50.7656 42.716 50.6257 42.875 50.4699 43.0127C50.3141 43.1505 50.1081 43.267 49.8547 43.3598C49.6012 43.4525 49.3266 43.5002 49.0256 43.5002C48.3391 43.5002 47.7635 43.2564 47.2962 42.769C46.8289 42.2815 46.5965 41.6643 46.5965 40.9172C46.5965 40.1728 46.8289 39.5555 47.2962 39.0681C47.7635 38.5806 48.3391 38.3369 49.0256 38.3369C49.3055 38.3369 49.5669 38.3793 49.8071 38.4614C50.0474 38.5462 50.2481 38.6522 50.4118 38.782C50.5755 38.9118 50.7181 39.0601 50.8395 39.2297C50.9636 39.3992 51.0587 39.5582 51.1247 39.7118C51.1907 39.8628 51.2409 40.0165 51.2752 40.1648H50.3114C50.2164 39.9158 50.0633 39.6986 49.852 39.5105C49.6382 39.3251 49.3662 39.2323 49.0283 39.2323C48.59 39.2323 48.2309 39.386 47.9484 39.6933C47.6685 40.0032 47.5259 40.4086 47.5259 40.9146C47.5259 41.4206 47.6658 41.8285 47.9484 42.1385C48.2282 42.4458 48.59 42.5994 49.0283 42.5994C49.3715 42.5994 49.6487 42.5041 49.86 42.3133C50.0712 42.1252 50.2217 41.8974 50.3114 41.6351Z" />
        <path d="M52.1678 43.4257V38.4082H53.0972V43.4257H52.1678Z" />
        <path d="M54.2747 43.4257V38.4082H55.5236L57.3454 41.8839H57.488V38.4082H58.4174V43.4257H57.1685L55.3467 39.9474H55.2041V43.4257H54.2747Z" />
        <path d="M63.3831 43.4257L63.3118 42.8535H63.2775C63.1877 42.9727 63.0689 43.0787 62.921 43.174C62.5963 43.3886 62.2293 43.4972 61.8147 43.4972C61.1283 43.4972 60.5526 43.2535 60.0853 42.7661C59.618 42.2786 59.3856 41.6613 59.3856 40.9143C59.3856 40.1699 59.618 39.5526 60.0853 39.0652C60.5526 38.5777 61.1283 38.334 61.8147 38.334C62.1395 38.334 62.4352 38.3896 62.7072 38.4982C62.9765 38.6068 63.2035 38.7526 63.3857 38.9353C63.5653 39.1181 63.7131 39.3089 63.824 39.5076C63.9349 39.7089 64.0168 39.9155 64.0643 40.1248H63.1006C62.8233 39.5288 62.3956 39.2294 61.8147 39.2294C61.3764 39.2294 61.0174 39.3831 60.7348 39.6904C60.455 40.0003 60.3124 40.4056 60.3124 40.9116C60.3124 41.4176 60.455 41.8256 60.7348 42.1356C61.0174 42.4429 61.3764 42.5965 61.8147 42.5965C62.0339 42.5965 62.2319 42.5568 62.4141 42.4746C62.5963 42.3925 62.7388 42.2945 62.8418 42.1779C62.9474 42.0614 63.0267 41.9448 63.0847 41.8256C63.1402 41.709 63.1692 41.6084 63.1692 41.5209V41.4892H61.9203V40.7739H64.0986V43.4257H63.3831Z" />
    </symbol>
    <symbol id="link-burger" viewBox="0 0 24 24">
        <path d="M13.625 7.875C13.8125 7.875 14 7.71875 14 7.5V6.5C14 6.3125 13.8125 6.125 13.625 6.125H0.375C0.15625 6.125 0 6.3125 0 6.5V7.5C0 7.71875 0.15625 7.875 0.375 7.875H13.625ZM13.625 12.875C13.8125 12.875 14 12.7188 14 12.5V11.5C14 11.3125 13.8125 11.125 13.625 11.125H0.375C0.15625 11.125 0 11.3125 0 11.5V12.5C0 12.7188 0.15625 12.875 0.375 12.875H13.625ZM13.625 17.875C13.8125 17.875 14 17.7188 14 17.5V16.5C14 16.3125 13.8125 16.125 13.625 16.125H0.375C0.15625 16.125 0 16.3125 0 16.5V17.5C0 17.7188 0.15625 17.875 0.375 17.875H13.625Z" />
    </symbol>
    <symbol id="rub" viewBox="0 0 16 19">
        <path d="M10.0703 10.75C13.2344 10.75 15.5 8.79688 15.5 5.75C15.5 2.70312 13.2344 0.75 10.0703 0.75H4.71875C4.44531 0.75 4.25 0.984375 4.25 1.21875V9.1875H0.96875C0.695312 9.1875 0.5 9.42188 0.5 9.65625V10.2812C0.5 10.5547 0.695312 10.75 0.96875 10.75H4.25V13.0156H0.96875C0.695312 13.0156 0.5 13.25 0.5 13.4844V14.0312C0.5 14.3047 0.695312 14.5 0.96875 14.5H4.25V17.7812C4.25 18.0547 4.44531 18.25 4.71875 18.25H5.46094C5.73438 18.25 5.92969 18.0547 5.92969 17.7812V14.5H12.5312C12.7656 14.5 13 14.3047 13 14.0312V13.4844C13 13.25 12.7656 13.0156 12.5312 13.0156H5.92969V10.75H10.0703ZM5.92969 2.3125H10.0312C12.3359 2.3125 13.8594 3.5625 13.8594 5.71094C13.8594 7.89844 12.3359 9.1875 9.99219 9.1875H5.92969V2.3125Z" />
    </symbol>
    <symbol id="pdf" viewBox="0 0 24 24">
        <path d="M20.2969 4.59375L16.4062 0.65625C15.9844 0.234375 15.375 0 14.8125 0H5.25C3.98438 0 3 1.03125 3 2.25V21.75C3 23.0156 3.98438 24 5.25 24H18.75C19.9688 24 21 23.0156 21 21.75V6.1875C21 5.625 20.7188 5.01562 20.2969 4.59375ZM19.2656 5.67188C19.3594 5.76562 19.4062 5.90625 19.4531 6H15V1.54688C15.0938 1.59375 15.2344 1.64062 15.3281 1.73438L19.2656 5.67188ZM18.75 22.5H5.25C4.82812 22.5 4.5 22.1719 4.5 21.75V2.25C4.5 1.875 4.82812 1.5 5.25 1.5H13.5V6.375C13.5 7.03125 13.9688 7.5 14.625 7.5H19.5V21.75C19.5 22.1719 19.125 22.5 18.75 22.5ZM17.7188 14.4844C17.0625 13.875 15.1406 14.0625 14.25 14.2031C13.2656 13.5938 12.6094 12.75 12.1406 11.5312C12.3281 10.6875 12.7031 9.32812 12.4219 8.48438C12.2344 7.17188 10.5469 7.3125 10.3594 8.15625C10.125 9.04688 10.3125 10.2656 10.7344 11.8125C10.1719 13.125 9.32812 14.9531 8.76562 15.9844C7.78125 16.4531 6.23438 17.3438 6 18.4219C5.85938 19.2188 7.07812 20.25 8.48438 18.7031C8.90625 18.2812 9.375 17.5781 9.9375 16.5938C11.2031 16.1719 12.6094 15.6562 13.7812 15.4688C14.8125 16.0312 16.0312 16.4062 16.8281 16.4062C18.1406 16.4062 18.1875 15 17.7188 14.4844ZM6.9375 18.6562C7.21875 17.9062 8.29688 17.0625 8.625 16.7344C7.59375 18.4219 6.9375 18.7031 6.9375 18.6562ZM11.4375 8.25C11.8125 8.25 11.7656 9.98438 11.5312 10.5C11.25 9.70312 11.2969 8.25 11.4375 8.25ZM10.0781 15.7031C10.5938 14.7656 11.0625 13.6875 11.4375 12.75C11.9062 13.5469 12.4688 14.2031 13.0781 14.6719C11.9531 14.9062 10.9688 15.375 10.0781 15.7031ZM17.2969 15.4219C17.2969 15.4219 17.0156 15.75 15.2344 15C17.1562 14.8594 17.4844 15.3281 17.2969 15.4219Z"/>
    </symbol>
    <symbol id="favorites" viewBox="0 0 26 24">
        <path d="M11.7169 21.2576L11.7155 21.2563C8.36979 18.2224 5.67333 15.7717 3.80161 13.4818C1.94088 11.2053 1 9.2102 1 7.10417C1 3.66639 3.67693 1 7.10417 1C9.04936 1 10.9329 1.91071 12.1578 3.33795L12.9167 4.2221L13.6755 3.33795C14.9005 1.91071 16.784 1 18.7292 1C22.1564 1 24.8333 3.66639 24.8333 7.10417C24.8333 9.2102 23.8925 11.2053 22.0317 13.4818C20.16 15.7717 17.4635 18.2224 14.1178 21.2563L14.1164 21.2576L12.9167 22.3498L11.7169 21.2576Z" stroke-width="2"/>
    </symbol>
    <symbol id="vk" viewBox="0 0 24 14">
        <path d="M23.5469 0.971619C23.7351 1.49543 23.1213 2.69855 21.7054 4.581C21.5089 4.8429 21.2429 5.19074 20.9074 5.62452C20.58 6.04193 20.3549 6.33658 20.2321 6.50845C20.1094 6.68033 19.9825 6.88494 19.8516 7.12229C19.7288 7.35146 19.6797 7.52333 19.7042 7.63791C19.737 7.74431 19.7902 7.88345 19.8638 8.05533C19.9457 8.2272 20.0807 8.40317 20.269 8.58323C20.4572 8.76329 20.6905 8.98018 20.9688 9.2339C21.0015 9.25027 21.0219 9.26663 21.0301 9.283C22.1842 10.3552 22.9658 11.2596 23.375 11.9962C23.3996 12.0371 23.4241 12.0903 23.4487 12.1558C23.4814 12.2131 23.51 12.3195 23.5346 12.475C23.5673 12.6305 23.5673 12.7696 23.5346 12.8924C23.5019 13.0151 23.3996 13.1297 23.2277 13.2361C23.0558 13.3343 22.8144 13.3835 22.5033 13.3835L19.3605 13.4326C19.1641 13.4735 18.9349 13.453 18.673 13.3712C18.4111 13.2893 18.1983 13.1993 18.0346 13.1011L17.7891 12.9538C17.5435 12.7819 17.2571 12.52 16.9297 12.168C16.6023 11.8161 16.3199 11.501 16.0826 11.2227C15.8534 10.9363 15.6038 10.6989 15.3337 10.5107C15.0718 10.3143 14.8426 10.2488 14.6462 10.3143C14.6217 10.3224 14.5889 10.3388 14.548 10.3634C14.5071 10.3797 14.4375 10.437 14.3393 10.5352C14.2411 10.6335 14.151 10.7562 14.0692 10.9035C13.9955 11.0427 13.926 11.2555 13.8605 11.5419C13.8032 11.8202 13.7786 12.1353 13.7868 12.4872C13.7868 12.61 13.7705 12.7246 13.7377 12.831C13.7132 12.9292 13.6845 13.0029 13.6518 13.052L13.6027 13.1134C13.4554 13.2689 13.2385 13.3589 12.952 13.3835H11.5402C10.9591 13.4162 10.3616 13.3507 9.74777 13.187C9.13393 13.0151 8.59375 12.7983 8.12723 12.5364C7.6689 12.2663 7.2474 11.9962 6.86272 11.7261C6.48624 11.4478 6.19978 11.2105 6.00335 11.014L5.69643 10.7194C5.61458 10.6375 5.5 10.5148 5.35268 10.3511C5.21354 10.1874 4.92299 9.815 4.48103 9.2339C4.03906 8.65279 3.60528 8.03486 3.17969 7.3801C2.75409 6.72534 2.25074 5.86187 1.66964 4.7897C1.09673 3.71753 0.564732 2.60443 0.0736607 1.45041C0.0245536 1.31946 0 1.20897 0 1.11894C0 1.02891 0.0122768 0.963435 0.0368304 0.922512L0.0859375 0.848851C0.208705 0.693346 0.441964 0.615593 0.785714 0.615593L4.14955 0.591039C4.24777 0.607408 4.34189 0.636054 4.43192 0.676976C4.52195 0.709715 4.58743 0.742453 4.62835 0.775191L4.68973 0.812022C4.82068 0.902052 4.9189 1.033 4.98438 1.20488C5.14807 1.6141 5.33631 2.0397 5.54911 2.48166C5.76191 2.91544 5.92969 3.24692 6.05246 3.47608L6.24888 3.83211C6.48624 4.32318 6.7154 4.74878 6.93638 5.1089C7.15737 5.46902 7.3538 5.75138 7.52567 5.956C7.70573 6.15242 7.8776 6.30793 8.0413 6.42251C8.20499 6.5371 8.34412 6.59439 8.45871 6.59439C8.57329 6.59439 8.68378 6.57393 8.79018 6.533C8.80655 6.52482 8.82701 6.50436 8.85156 6.47162C8.87612 6.43888 8.92522 6.34885 8.99888 6.20153C9.07255 6.05421 9.12574 5.86187 9.15848 5.62452C9.19941 5.38717 9.24033 5.0557 9.28125 4.6301C9.32217 4.20451 9.32217 3.69297 9.28125 3.0955C9.26488 2.76812 9.22805 2.46939 9.17076 2.1993C9.11347 1.92921 9.05618 1.74096 8.99888 1.63457L8.92522 1.48724C8.72061 1.20897 8.37277 1.033 7.8817 0.959343C7.7753 0.942973 7.79576 0.844759 7.94308 0.6647C8.07403 0.509194 8.22954 0.386427 8.4096 0.296397C8.84338 0.0835988 9.82143 -0.0146155 11.3438 0.0017539C12.0149 0.00993817 12.5673 0.0631373 13.0011 0.161351C13.1648 0.202274 13.2999 0.259566 13.4062 0.333226C13.5208 0.398703 13.6068 0.496917 13.6641 0.627869C13.7214 0.750638 13.7623 0.88159 13.7868 1.02073C13.8196 1.15168 13.8359 1.33583 13.8359 1.57318C13.8359 1.81053 13.8318 2.03561 13.8237 2.24841C13.8155 2.4612 13.8032 2.75175 13.7868 3.12006C13.7786 3.48018 13.7746 3.81574 13.7746 4.12675C13.7746 4.21678 13.7705 4.38866 13.7623 4.64238C13.7541 4.8961 13.75 5.09253 13.75 5.23166C13.7582 5.3708 13.7746 5.53858 13.7991 5.73501C13.8237 5.92326 13.8687 6.08286 13.9342 6.21381C14.0078 6.33658 14.1019 6.43479 14.2165 6.50845C14.282 6.52482 14.3516 6.54119 14.4252 6.55756C14.4989 6.57393 14.6053 6.52891 14.7444 6.42251C14.8836 6.31611 15.0391 6.17698 15.2109 6.0051C15.3828 5.82504 15.5956 5.55086 15.8493 5.18256C16.1031 4.80607 16.3813 4.36411 16.6842 3.85666C17.1752 3.00547 17.6131 2.08472 17.9978 1.09439C18.0305 1.01254 18.0714 0.942973 18.1205 0.885682C18.1696 0.820206 18.2147 0.775191 18.2556 0.750637L18.3047 0.713807C18.3211 0.705622 18.3415 0.697438 18.3661 0.689254C18.3906 0.672885 18.4438 0.660608 18.5257 0.652423C18.6075 0.636054 18.6894 0.631962 18.7712 0.640147L22.3069 0.615593C22.6261 0.574671 22.888 0.586947 23.0926 0.652423C23.2972 0.709715 23.4241 0.775191 23.4732 0.848851L23.5469 0.971619Z" />
    </symbol>
    <symbol id="tg" viewBox="0 0 20 19">
        <path d="M10.6755 15.7439C10.0126 16.3807 9.35888 17.0069 8.70827 17.6347C7.81463 18.4968 6.88945 18.2959 6.49185 17.0866C6.02965 15.6821 5.61744 14.2565 5.24368 12.8227C5.08141 12.2006 4.81993 11.8493 4.20315 11.6768C3.2403 11.4085 2.30205 11.036 1.36534 10.6717C1.04849 10.5489 0.730875 10.3634 0.480933 10.1268C-0.199679 9.48432 -0.153536 8.47832 0.596291 7.92857C0.979279 7.64718 1.43071 7.46176 1.86523 7.26821C7.07787 4.94393 12.2921 2.62535 17.507 0.306771C17.6724 0.233579 17.8369 0.157133 18.0077 0.0993922C19.2028 -0.303981 20.171 0.566199 19.9757 1.88204C19.8788 2.53671 19.7419 3.18487 19.6211 3.83547C18.7806 8.37829 17.9431 12.9219 17.0971 17.4639C16.8372 18.8603 15.2844 19.4654 14.2039 18.5976C13.1226 17.7299 12.0483 16.8516 10.9708 15.9773C10.8808 15.9041 10.7886 15.8334 10.6755 15.7439ZM7.84616 16.262C8.81286 15.3308 9.69112 14.4858 10.5871 13.6238C10.7224 13.7311 10.8455 13.8263 10.9654 13.923C12.2967 15.0022 13.6271 16.0839 14.9599 17.1614C15.3806 17.5014 15.5367 17.4379 15.639 16.889C16.4288 12.6267 17.2163 8.36447 18.0046 4.1014C18.1507 3.31011 18.2945 2.51882 18.456 1.6405C12.8588 4.13312 7.33935 6.59077 1.74987 9.08013C1.92983 9.15658 2.03134 9.207 2.13747 9.24441C3.38642 9.68926 4.63843 10.1235 5.88276 10.5822C6.13809 10.6765 6.32651 10.6538 6.55645 10.5025C9.44656 8.59787 12.342 6.703 15.2383 4.80893C15.4113 4.69589 15.5936 4.59342 15.7828 4.51454C15.8443 4.48851 15.9727 4.52836 16.0112 4.58366C16.0504 4.6414 16.0496 4.77966 16.0089 4.83821C15.9043 4.98948 15.7736 5.12285 15.6428 5.25134C13.3203 7.54309 10.9954 9.83158 8.6752 12.1266C8.55984 12.2404 8.4291 12.3909 8.40449 12.543C8.21069 13.7425 8.04073 14.9461 7.84616 16.262Z" />
    </symbol>
    <symbol id="yt" viewBox="0 0 19 22">
        <path d="M11.5893 15.2723V17.8627C11.5893 18.4111 11.4297 18.6853 11.1105 18.6853C10.9222 18.6853 10.7381 18.5952 10.558 18.4152V14.7199C10.7381 14.5398 10.9222 14.4498 11.1105 14.4498C11.4297 14.4498 11.5893 14.724 11.5893 15.2723ZM15.7388 15.2846V15.8493H14.6339V15.2846C14.6339 14.7281 14.8181 14.4498 15.1864 14.4498C15.5547 14.4498 15.7388 14.7281 15.7388 15.2846ZM3.87946 12.6083H5.19308V11.4542H1.36272V12.6083H2.65179V19.5938H3.87946V12.6083ZM7.41518 19.5938H8.50781V13.529H7.41518V18.1696C7.16964 18.5134 6.93638 18.6853 6.7154 18.6853C6.56808 18.6853 6.48214 18.5993 6.45759 18.4275C6.4494 18.4029 6.44531 18.2597 6.44531 17.9978V13.529H5.35268V18.3292C5.35268 18.7303 5.38542 19.029 5.45089 19.2254C5.54911 19.5283 5.78646 19.6797 6.16295 19.6797C6.5558 19.6797 6.97321 19.4301 7.41518 18.9308V19.5938ZM12.6819 17.7768V15.3583C12.6819 14.7608 12.6451 14.3557 12.5714 14.1429C12.4323 13.6845 12.1417 13.4554 11.6998 13.4554C11.2906 13.4554 10.91 13.6763 10.558 14.1183V11.4542H9.4654V19.5938H10.558V19.0045C10.9263 19.4546 11.3069 19.6797 11.6998 19.6797C12.1417 19.6797 12.4323 19.4546 12.5714 19.0045C12.6451 18.7835 12.6819 18.3743 12.6819 17.7768ZM16.8315 17.654V17.4944H15.7143C15.7143 17.9118 15.7061 18.1615 15.6897 18.2433C15.6324 18.5379 15.4688 18.6853 15.1987 18.6853C14.8222 18.6853 14.6339 18.4029 14.6339 17.8382V16.7701H16.8315V15.5056C16.8315 14.859 16.721 14.3843 16.5 14.0815C16.1808 13.6641 15.747 13.4554 15.1987 13.4554C14.6421 13.4554 14.2042 13.6641 13.885 14.0815C13.6559 14.3843 13.5413 14.859 13.5413 15.5056V17.6295C13.5413 18.276 13.66 18.7507 13.8973 19.0536C14.2165 19.471 14.6585 19.6797 15.2232 19.6797C15.8125 19.6797 16.2545 19.4628 16.5491 19.029C16.6964 18.808 16.7824 18.5871 16.8069 18.3661C16.8233 18.2924 16.8315 18.0551 16.8315 17.654ZM9.36719 6.44531V3.86719C9.36719 3.30246 9.19122 3.02009 8.83929 3.02009C8.48735 3.02009 8.31138 3.30246 8.31138 3.86719V6.44531C8.31138 7.01823 8.48735 7.30469 8.83929 7.30469C9.19122 7.30469 9.36719 7.01823 9.36719 6.44531ZM18.1942 15.6652C18.1942 17.5804 18.0878 19.0126 17.875 19.9621C17.7604 20.4449 17.5231 20.8501 17.1629 21.1775C16.8028 21.5048 16.3854 21.6931 15.9107 21.7422C14.4048 21.9141 12.1336 22 9.0971 22C6.06064 22 3.78943 21.9141 2.28348 21.7422C1.80878 21.6931 1.38728 21.5048 1.01897 21.1775C0.658854 20.8501 0.425595 20.4449 0.319196 19.9621C0.106399 19.0454 0 17.6131 0 15.6652C0 13.75 0.106399 12.3177 0.319196 11.3683C0.43378 10.8854 0.671131 10.4803 1.03125 10.1529C1.39137 9.82552 1.81287 9.63319 2.29576 9.57589C3.79353 9.4122 6.06064 9.33036 9.0971 9.33036C12.1336 9.33036 14.4048 9.4122 15.9107 9.57589C16.3854 9.63319 16.8028 9.82552 17.1629 10.1529C17.5312 10.4803 17.7686 10.8854 17.875 11.3683C18.0878 12.285 18.1942 13.7173 18.1942 15.6652ZM5.94196 0H7.1942L5.70871 4.89844V8.22545H4.48103V4.89844C4.36644 4.29278 4.11682 3.42522 3.73214 2.29576C3.42932 1.45275 3.16332 0.687501 2.93415 0H4.23549L5.10714 3.2288L5.94196 0ZM10.4844 4.08817V6.23661C10.4844 6.89955 10.3698 7.38244 10.1406 7.68527C9.82961 8.10268 9.39583 8.31138 8.83929 8.31138C8.29092 8.31138 7.86124 8.10268 7.55022 7.68527C7.32106 7.37426 7.20647 6.89137 7.20647 6.23661V4.08817C7.20647 3.43341 7.32106 2.95461 7.55022 2.65179C7.86124 2.23438 8.29092 2.02567 8.83929 2.02567C9.39583 2.02567 9.82961 2.23438 10.1406 2.65179C10.3698 2.95461 10.4844 3.43341 10.4844 4.08817ZM14.5971 2.09933V8.22545H13.4799V7.55022C13.0461 8.05766 12.6246 8.31138 12.2154 8.31138C11.8389 8.31138 11.5975 8.15997 11.4911 7.85714C11.4256 7.66072 11.3929 7.3538 11.3929 6.93638V2.09933H12.51V6.60491C12.51 6.875 12.5141 7.01823 12.5223 7.0346C12.5469 7.21466 12.6328 7.30469 12.7801 7.30469C13.0011 7.30469 13.2344 7.12872 13.4799 6.77679V2.09933H14.5971Z" />
    </symbol>
    <symbol id="r" viewBox="0 0 22 20">
        <path d="M0 2.86523C0.340023 2.86523 0.621361 2.86523 0.902699 2.86523C5.30228 2.86523 9.70359 2.86523 14.1032 2.86523C14.3051 2.86523 14.5053 2.86523 14.7073 2.87387C17.8193 3.01383 19.1241 4.33393 19.2052 7.44065C19.2208 8.0454 19.2225 8.65016 19.2052 9.25492C19.1207 12.2683 18.1972 13.1582 15.893 13.794C17.1392 15.4925 18.3664 17.1669 19.7092 19.0001C18.1506 19.0001 16.7802 19.0243 15.4132 18.9759C15.2061 18.969 14.9679 18.6563 14.816 18.4368C13.8857 17.0874 12.9588 15.7327 12.0665 14.3573C11.7886 13.9271 11.4917 13.7388 10.9601 13.7457C8.66626 13.7768 6.37068 13.7595 3.99224 13.7595V18.9517H0V2.86523ZM3.99052 10.188C4.38405 10.188 4.69473 10.188 5.00541 10.188C7.67726 10.188 10.3491 10.188 13.021 10.188C15.1336 10.188 15.1854 10.1344 15.1733 8.01603C15.1647 6.7063 14.9282 6.46094 13.6113 6.45921C10.6512 6.4523 7.69279 6.45576 4.7327 6.45921C4.48761 6.45921 4.24424 6.4955 3.99052 6.51451V10.1897V10.188Z" />
        <path d="M19.7613 3.04023C20.6009 3.04023 21.2814 2.35965 21.2814 1.52012C21.2814 0.680579 20.6009 0 19.7613 0C18.9218 0 18.2412 0.680579 18.2412 1.52012C18.2412 2.35965 18.9218 3.04023 19.7613 3.04023Z" />
    </symbol>
    <symbol id="d2" viewBox="0 0 21 20">
        <g clip-path="url(#clip0_2098_54168)">
            <path d="M0.0142915 19.9883V19.1414C0.0142915 13.0742 0.0260819 7.00694 -0.000446569 0.939686C-0.00339418 0.2323 0.148408 -0.0306094 0.923628 0.00279898C2.6804 0.0797835 4.45044 -0.0465873 6.19837 0.100119C9.18577 0.348503 10.7362 1.90853 10.8276 4.85863C10.9337 8.29825 10.9425 11.7466 10.8232 15.1847C10.7156 18.267 8.85858 19.9287 5.73854 19.9839C3.86387 20.0173 1.98771 19.9897 0.0157653 19.9897L0.0142915 19.9883ZM3.84765 16.4862C5.98614 16.9016 6.93969 16.2582 7.05023 14.1897C7.14897 12.3436 7.10918 10.4887 7.10476 8.63669C7.10181 7.50806 7.08265 6.37654 7.00601 5.25082C6.95296 4.46935 6.6523 3.73582 5.77244 3.5775C5.14902 3.46565 4.48876 3.55571 3.84765 3.55571V16.4877V16.4862Z" />
        </g>
        <g clip-path="url(#clip1_2098_54168)">
            <path d="M16.3762 2.87749C15.931 2.89649 15.573 3.10541 15.302 3.50427C15.031 3.90313 14.8955 4.61538 14.8955 5.64103L11.8179 5.29915C11.8179 3.60874 12.234 2.30453 13.0663 1.38335C13.8987 0.462171 15.0116 0 16.4053 0C18.0118 0 19.1635 0.424185 19.8603 1.26939C20.5571 2.11459 20.9056 3.25103 20.9056 4.6787C20.9249 5.55239 20.8346 6.33428 20.6313 7.01804C20.4281 7.7018 20.1216 8.43621 19.7184 9.21494L15.6246 17.1193H20.7055V19.9968H11.9921V17.3156C12.8631 15.698 13.7212 14.0867 14.56 12.4786C15.402 10.8705 16.2472 9.25926 17.1021 7.64166C17.3731 7.14783 17.5408 6.65717 17.6118 6.17284C17.6795 5.68851 17.715 5.17885 17.715 4.64704C17.715 4.4761 17.7021 4.28617 17.6731 4.07724C17.6441 3.86831 17.5795 3.67838 17.486 3.50744C17.3892 3.3365 17.2537 3.18772 17.0795 3.06426C16.9053 2.9408 16.673 2.87749 16.3827 2.87749H16.3762Z" />
        </g>
        <defs>
            <clipPath id="clip0_2098_54168">
                <rect width="10.9091" height="20" transform="translate(-0.000488281)"/>
            </clipPath>
            <clipPath id="clip1_2098_54168">
                <rect width="9.09091" height="20" transform="translate(11.8179)"/>
            </clipPath>
        </defs>
    </symbol>
    <symbol id="arrow-right" viewBox="0 0 24 24">
        <path d="M11.8125 5.21875L11.1875 5.8125C11.0312 5.96875 11.0312 6.21875 11.1875 6.34375L16.0312 11.1875H5.375C5.15625 11.1875 5 11.375 5 11.5625V12.4375C5 12.6562 5.15625 12.8125 5.375 12.8125H16.0312L11.1875 17.6875C11.0312 17.8125 11.0312 18.0625 11.1875 18.2188L11.8125 18.8125C11.9375 18.9688 12.1875 18.9688 12.3438 18.8125L18.875 12.2812C19.0312 12.125 19.0312 11.9062 18.875 11.75L12.3438 5.21875C12.1875 5.0625 11.9375 5.0625 11.8125 5.21875Z" />
    </symbol>
    <symbol id="intro-logo" viewBox="0 0 456 36">
        <path d="M26.6015 23.009H33.4975C33.2896 23.9086 32.9874 24.8622 32.6095 25.8338C32.2128 26.8054 31.5893 27.903 30.7202 29.1265C29.8511 30.35 28.8497 31.4295 27.7162 32.3651C26.6015 33.3007 25.1278 34.0924 23.3141 34.7221C21.5004 35.3519 19.5354 35.6758 17.3816 35.6758C12.4694 35.6758 8.35074 34.0204 5.00666 30.7098C1.66258 27.3992 0 23.2069 0 18.133C0 13.0771 1.66258 8.88485 5.00666 5.57422C8.35074 2.26359 12.4694 0.608317 17.3816 0.608317C19.3843 0.608317 21.2548 0.896199 22.974 1.45397C24.6933 2.02973 26.1291 2.74942 27.3005 3.63105C28.453 4.51268 29.4922 5.52027 30.3612 6.67179C31.2492 7.82331 31.9293 8.90288 32.4017 9.94645C32.874 10.972 33.233 12.0156 33.4786 13.0232H26.5826C25.9025 11.3319 24.8067 9.85647 23.2763 8.579C21.7649 7.31952 19.7999 6.6898 17.3816 6.6898C14.2454 6.6898 11.6759 7.73335 9.65435 9.82049C7.65168 11.9256 6.6315 14.6784 6.6315 18.115C6.6315 21.5516 7.65168 24.3225 9.65435 26.4276C11.6759 28.5148 14.2454 29.5583 17.3816 29.5583C19.8377 29.5583 21.8216 28.9105 23.333 27.6151C24.8822 26.3376 25.9591 24.7903 26.6015 23.009Z" />
        <path d="M35.0512 35.1669L47.8229 1.08904H57.534L70.3057 35.1669H62.8997L60.1979 27.8619H45.1779L42.4762 35.1669H35.0512ZM47.3128 22.0144H58.0441L53.1886 8.394H52.1683L47.3128 22.0144Z" />
        <path d="M74.9146 35.1669V1.08904H91.276C94.4689 1.08904 97.1518 2.15063 99.2867 4.27375C101.44 6.39687 102.517 9.1497 102.517 12.5143C102.517 15.699 101.497 18.2899 99.4756 20.2691C97.4541 22.2663 94.9791 23.3278 92.0317 23.4537L103.538 35.1489H95.0924L83.5865 23.4537H81.5461V35.1489H74.9146V35.1669ZM81.5649 17.6422H91.0304C92.334 17.6422 93.4487 17.1564 94.4311 16.1488C95.3947 15.1592 95.8859 13.9537 95.8859 12.5323C95.8859 10.967 95.4136 9.68947 94.45 8.68189C93.4865 7.67431 92.3529 7.17052 91.0304 7.17052H81.5649V17.6422Z" />
        <path d="M117.346 35.1669L105.065 1.08904H112.49L121.691 27.3762H122.712L131.913 1.08904H139.319L127.057 35.1669H117.346Z" />
        <path d="M144.191 35.1669V1.08904H150.842V35.1669H144.191Z" />
        <path d="M159.249 35.1669V1.08904H165.899V29.0854H182.771V35.1669H159.249Z" />
        <path d="M188.385 35.1669V1.08904H195.035V29.0854H211.907V35.1669H188.385Z" />
        <path d="M217.536 1.08904H241.568V6.93661H224.187V15.2132H240.529V21.0608H224.187V29.3373H241.568V35.1849H217.536V1.08904Z" />
        <path d="M262.523 35.1669V1.08904H278.885C282.096 1.08904 284.76 2.15063 286.914 4.27375C289.068 6.39687 290.145 9.1497 290.145 12.5143C290.145 15.699 289.125 18.2899 287.084 20.2691C285.063 22.2663 282.588 23.3278 279.64 23.4537L291.146 35.1489H282.701L271.195 23.4537H269.155V35.1489H262.523V35.1669ZM269.155 17.6422H278.62C279.924 17.6422 281.057 17.1564 282.021 16.1488C282.984 15.1592 283.476 13.9537 283.476 12.5323C283.476 10.967 283.003 9.68947 282.04 8.68189C281.095 7.67431 279.943 7.17052 278.62 7.17052H269.155V17.6422Z" />
        <path d="M293.452 35.1669L306.224 1.08904H315.935L328.707 35.1669H321.282L318.58 27.8619H303.541L300.839 35.1669H293.452ZM305.714 22.0144H316.445L311.59 8.394H310.569L305.714 22.0144Z" />
        <path d="M357.345 23.0055H364.241C364.052 23.9052 363.731 24.8588 363.353 25.8304C362.956 26.802 362.333 27.8995 361.464 29.123C360.595 30.3465 359.593 31.4261 358.479 32.3617C357.364 33.2973 355.89 34.089 354.076 34.7187C352.263 35.3484 350.298 35.6723 348.144 35.6723C343.232 35.6723 339.113 34.017 335.769 30.7063C332.425 27.3957 330.762 23.2035 330.762 18.1296C330.762 13.0737 332.425 8.88139 335.769 5.57076C339.113 2.26013 343.232 0.604859 348.144 0.604859C350.147 0.604859 352.017 0.892741 353.736 1.45051C355.456 2.02627 356.891 2.74596 358.063 3.62759C359.234 4.50923 360.254 5.51681 361.124 6.66833C362.012 7.81986 362.692 8.89942 363.164 9.94299C363.636 10.9686 363.995 12.0121 364.241 13.0197H357.345C356.665 11.3284 355.569 9.85301 354.058 8.57554C352.527 7.31606 350.581 6.68634 348.163 6.68634C345.027 6.68634 342.457 7.72989 340.436 9.81703C338.433 11.9222 337.413 14.675 337.413 18.1116C337.413 21.5481 338.414 24.319 340.436 26.4242C342.438 28.5113 345.027 29.5548 348.163 29.5548C350.619 29.5548 352.603 28.9071 354.114 27.6116C355.626 26.3341 356.703 24.7868 357.345 23.0055Z" />
        <path d="M370.628 35.1669V1.08904H377.279V35.1669H370.628Z" />
        <path d="M385.704 35.1669V1.08904H394.641L407.677 24.6952H408.697V1.08904H415.347V35.1669H406.411L393.375 11.5427H392.355V35.1669H385.704Z" />
        <path d="M450.88 35.1666L450.37 31.2802H450.124C449.482 32.0899 448.632 32.8096 447.574 33.4573C445.25 34.9147 442.624 35.6524 439.658 35.6524C434.745 35.6524 430.627 33.9971 427.282 30.6865C423.938 27.3759 422.276 23.1836 422.276 18.1097C422.276 13.0538 423.938 8.86155 427.282 5.55092C430.627 2.24029 434.745 0.584961 439.658 0.584961C441.981 0.584961 444.097 0.962795 446.043 1.70049C447.97 2.43818 449.595 3.42776 450.899 4.66925C452.184 5.91073 453.242 7.2062 454.035 8.55564C454.829 9.92307 455.414 11.3265 455.754 12.7479H448.858C446.875 8.69961 443.814 6.66645 439.658 6.66645C436.521 6.66645 433.952 7.71 431.93 9.79713C429.928 11.9023 428.907 14.6551 428.907 18.0917C428.907 21.5283 429.928 24.2991 431.93 26.4043C433.952 28.4914 436.521 29.5349 439.658 29.5349C441.226 29.5349 442.643 29.2651 443.946 28.7073C445.25 28.1495 446.27 27.4838 447.007 26.6922C447.763 25.9005 448.329 25.1088 448.745 24.2991C449.142 23.5074 449.35 22.8237 449.35 22.23V22.0141H440.413V17.1561H456V35.1666H450.88Z" />
    </symbol>
    <symbol id="btn-arrow" viewBox="0 0 15 15">
        <path d="M6 2L10.6239 7.69851L6 13.397" stroke-width="2" stroke-linecap="round"/>
    </symbol>
    <symbol id="swiper-next" viewBox="0 0 30 30">
        <path d="M11 7L19.2516 15.4746L11 23.5032" stroke-width="2" stroke-linecap="round"/>
    </symbol>
    <symbol id="search-loupe" viewBox="0 0 25 24">
        <path d="M22.3774 20.8203L17.6509 16.0938C17.5337 16.0156 17.4165 15.9375 17.2993 15.9375H16.7915C18.0024 14.5312 18.7837 12.6562 18.7837 10.625C18.7837 6.17188 15.1118 2.5 10.6587 2.5C6.1665 2.5 2.53369 6.17188 2.53369 10.625C2.53369 15.1172 6.1665 18.75 10.6587 18.75C12.6899 18.75 14.5259 18.0078 15.9712 16.7969V17.3047C15.9712 17.4219 16.0103 17.5391 16.0884 17.6562L20.8149 22.3828C21.0103 22.5781 21.3228 22.5781 21.479 22.3828L22.3774 21.4844C22.5728 21.3281 22.5728 21.0156 22.3774 20.8203ZM10.6587 16.875C7.18213 16.875 4.40869 14.1016 4.40869 10.625C4.40869 7.1875 7.18213 4.375 10.6587 4.375C14.0962 4.375 16.9087 7.1875 16.9087 10.625C16.9087 14.1016 14.0962 16.875 10.6587 16.875Z" />
    </symbol>
    <symbol id="filter-1" viewBox="0 0 24 18">
        <path d="M23.5562 16.1074C23.7063 16.4323 23.8476 16.7377 24 17.0674C23.8349 17.1213 23.6781 17.1745 23.5201 17.2242C21.7815 17.7704 19.9957 18.0731 18.1357 17.9848C16.5932 17.9119 15.1221 17.5747 13.6991 17.0752C12.4265 16.6286 11.1682 16.1507 9.89246 15.7112C8.81796 15.3413 7.70058 15.1088 6.53438 15.103C5.1189 15.0962 3.80305 15.4327 2.57175 16.0116C1.94142 16.3078 1.33927 16.6481 0.702578 16.9798C0.487042 16.7278 0.253643 16.4554 0 16.1592C0.451714 15.9032 0.884773 15.6441 1.33291 15.4064C2.43203 14.8241 3.59665 14.3724 4.86883 14.146C6.35059 13.8822 7.8149 13.9797 9.22958 14.4079C10.3811 14.7563 11.5044 15.1766 12.6285 15.5885C13.9317 16.0658 15.2376 16.5294 16.636 16.7664C18.7414 17.1226 20.7947 16.9355 22.8096 16.3368C23.0521 16.2649 23.2931 16.1885 23.5562 16.1077V16.1074Z" />
        <path d="M0.709643 8.00176C0.472566 7.72402 0.243034 7.45482 0 7.16992C0.133828 7.08666 0.258919 7.00648 0.386789 6.92937C1.58647 6.20808 2.85605 5.60655 4.27454 5.26331C6.09332 4.8235 7.8855 4.95214 9.63082 5.51886C10.8488 5.91431 12.0373 6.37629 13.237 6.812C14.4399 7.24873 15.663 7.62712 16.9568 7.81614C18.9066 8.1007 20.8056 7.90724 22.6693 7.37532C22.9576 7.29309 23.2427 7.20131 23.5532 7.10645C23.699 7.42104 23.8447 7.7346 24 8.06897C23.6839 8.1686 23.3845 8.26994 23.0795 8.35762C21.6257 8.77491 20.1373 9.01989 18.5988 8.99873C17.2034 8.97963 15.8457 8.76399 14.5443 8.33647C13.3653 7.94887 12.2041 7.52067 11.0394 7.10202C9.93302 6.70452 8.81951 6.33125 7.6242 6.17669C5.93567 5.95833 4.33927 6.22344 2.83738 6.89218C2.17023 7.18936 1.54477 7.55649 0.901052 7.89223C0.840294 7.92396 0.781918 7.95979 0.709246 8.00141L0.709643 8.00176Z" />
        <path d="M0.695129 2.98482C0.473608 2.72585 0.243752 2.45663 0 2.17138C0.0857497 2.11782 0.16356 2.06834 0.242561 2.01989C1.37319 1.3269 2.56733 0.736948 3.89447 0.363326C5.68727 -0.14132 7.48444 -0.117094 9.25184 0.416213C10.4039 0.763562 11.5258 1.18768 12.6497 1.59986C13.9589 2.07994 15.2722 2.54262 16.6783 2.776C18.7089 3.11312 20.6935 2.94013 22.6439 2.38396C22.7943 2.34097 22.9444 2.29661 23.0937 2.25055C23.2362 2.20653 23.3771 2.15978 23.5447 2.10587C23.6939 2.42695 23.8396 2.74018 24 3.08514C23.4319 3.24551 22.8853 3.41372 22.3291 3.55464C19.4283 4.2896 16.5882 4.09545 13.8077 3.11585C12.5723 2.68047 11.3503 2.21677 10.1129 1.7848C8.98546 1.39104 7.8195 1.12012 6.59122 1.10375C5.09615 1.08396 3.71939 1.45519 2.42719 2.07175C1.84441 2.34984 1.28902 2.66989 0.694732 2.98482H0.695129Z" />
        <path d="M0.717117 12.0026C0.476093 11.7201 0.246186 11.4505 0 11.1619C0.291453 10.989 0.569008 10.8175 0.854108 10.6559C1.92025 10.0523 3.04636 9.55554 4.28166 9.25764C5.93786 8.85794 7.57659 8.9413 9.2042 9.38336C10.5181 9.74036 11.7562 10.2555 13.0169 10.7246C14.3185 11.209 15.6424 11.6319 17.0516 11.826C18.9889 12.0924 20.8734 11.8936 22.7206 11.3586C22.995 11.279 23.2662 11.1923 23.5569 11.1031C23.7042 11.4218 23.8475 11.7317 24 12.0614C23.8328 12.1181 23.6768 12.1744 23.518 12.224C22.0091 12.6961 20.4593 12.9913 18.8472 12.9998C17.4177 13.0073 16.02 12.8102 14.6858 12.3787C13.2881 11.9268 11.9202 11.4075 10.5388 10.919C9.55759 10.5719 8.55815 10.2784 7.50114 10.1554C6.08239 9.99008 4.72201 10.1811 3.40889 10.6573C2.50832 10.9839 1.67724 11.4147 0.883889 11.9022C0.835843 11.9315 0.787399 11.9606 0.717117 12.0029V12.0026Z" />
    </symbol>
    <symbol id="filter-2" viewBox="0 0 24 27">
        <path d="M11.5363 4.56052C13.1745 4.56052 14.5026 4.2654 14.5026 3.90136C14.5026 3.53731 13.1745 3.24219 11.5363 3.24219C9.89811 3.24219 8.57007 3.53731 8.57007 3.90136C8.57007 4.2654 9.89811 4.56052 11.5363 4.56052Z" />
        <path d="M22.8921 4.62623C23.2417 3.63313 23.1101 2.89263 22.2406 2.27101C21.5994 1.81285 20.8679 1.4327 20.1196 1.16151C18.2876 0.496555 16.3576 0.240231 14.4121 0.110211C10.9584 -0.121348 7.52537 -0.0297151 4.1504 0.790028C2.948 1.08226 1.77012 1.46489 0.801233 2.26359C0.147139 2.80471 -0.113467 3.47339 0.0452187 4.29932C0.148429 4.8355 0.26712 5.37787 0.272281 5.919C0.295503 8.61102 0.282602 11.3018 0.282602 13.9938C0.282602 16.8085 0.317435 19.6243 0.26583 22.4377C0.245188 23.5608 0.696733 24.4115 1.67465 24.8684C2.91059 25.4467 4.20459 25.9804 5.536 26.285C9.1161 27.1035 12.753 27.0577 16.3743 26.529C18.1276 26.2727 19.8603 25.8752 21.3826 24.9254C22.3193 24.3409 22.816 23.567 22.8082 22.4204C22.7682 16.7503 22.7889 11.0789 22.794 5.40759C22.794 5.14631 22.8069 4.86893 22.8934 4.62499L22.8921 4.62623ZM20.1351 23.7094C18.854 24.1428 17.5664 24.6282 16.2376 24.8511C12.4279 25.4901 8.61424 25.4281 4.86384 24.4338C4.033 24.2134 3.24344 23.8122 2.48614 23.4048C2.23069 23.2673 1.99589 22.8525 1.99331 22.564C1.96493 17.1824 1.97267 11.8021 1.97396 6.4205C1.97396 6.34373 1.9946 6.26695 1.99976 6.22733C8.35879 8.1219 14.6894 8.12809 21.0962 6.21618C21.0962 6.40193 21.0962 6.61739 21.0962 6.83161C21.0962 11.9457 21.0782 17.0598 21.1156 22.1739C21.122 22.9565 20.8356 23.4729 20.1338 23.7106L20.1351 23.7094ZM11.5815 6.20752C6.16687 6.20752 1.77657 5.18222 1.77657 3.91669C1.77657 2.65117 6.16687 1.62587 11.5815 1.62587C16.9962 1.62587 21.3865 2.65117 21.3865 3.91669C21.3865 5.18222 16.9962 6.20752 11.5815 6.20752Z" />
        <path d="M5.72157 9.71311C5.71383 10.4932 5.1178 11.0517 4.29857 11.0467C3.51288 11.043 2.86652 10.4338 2.86523 9.69577C2.86523 8.94289 3.56706 8.28413 4.34759 8.30518C5.12038 8.32623 5.72932 8.95032 5.72157 9.71187V9.71311Z" />
        <path d="M18.7619 11.0484C17.9452 11.0484 17.3556 10.4825 17.353 9.69988C17.3505 8.94081 17.971 8.31795 18.7412 8.30681C19.5217 8.29443 20.2197 8.9631 20.2094 9.71226C20.1991 10.4515 19.5514 11.0496 18.7619 11.0484Z" />
        <path d="M8.93895 12.1577C8.14939 12.159 7.50174 11.5609 7.49013 10.8216C7.47852 10.0712 8.17519 9.40501 8.95701 9.41615C9.72721 9.4273 10.3491 10.0502 10.3465 10.8092C10.3439 11.5918 9.75431 12.1565 8.93895 12.1577Z" />
        <path d="M14.1369 12.1577C13.3203 12.1577 12.7294 11.5918 12.7268 10.8092C12.7242 10.0502 13.3461 9.4273 14.1163 9.41615C14.8981 9.40501 15.5961 10.0724 15.5832 10.8204C15.5703 11.5658 14.9291 12.1577 14.1356 12.1577H14.1369Z" />
        <path d="M5.72159 13.5504C5.73191 14.3132 5.12684 14.9373 4.35406 14.9633C3.57611 14.9893 2.86912 14.3318 2.86525 13.5789C2.86138 12.8409 3.50644 12.2292 4.29213 12.2217C5.11265 12.2155 5.71127 12.7703 5.72159 13.5492V13.5504Z" />
        <path d="M17.3531 13.5938C17.3466 12.8063 17.9259 12.2317 18.7374 12.2218C19.5321 12.2119 20.1823 12.7927 20.2094 13.5344C20.2365 14.2798 19.5502 14.9596 18.7671 14.9634C17.9981 14.9671 17.3608 14.3479 17.3544 13.5938H17.3531Z" />
        <path d="M10.3462 14.7014C10.341 15.4555 9.70497 16.0747 8.93735 16.0747C8.15424 16.0747 7.4666 15.3961 7.49111 14.6494C7.51563 13.9064 8.16456 13.3244 8.95928 13.3331C9.77077 13.3418 10.3526 13.9151 10.3462 14.7014Z" />
        <path d="M12.7269 14.6655C12.7359 13.8853 13.3333 13.3269 14.1525 13.3331C14.9433 13.338 15.5807 13.9398 15.5832 14.6865C15.5858 15.4369 14.8801 16.0969 14.1009 16.0746C13.3268 16.0523 12.7179 15.4282 12.7269 14.6667V14.6655Z" />
        <path d="M5.721 17.4383C5.72745 18.2284 5.15077 18.8042 4.34057 18.8166C3.52005 18.8289 2.85434 18.211 2.86337 17.4458C2.8724 16.7152 3.53553 16.0824 4.30057 16.0762C5.06949 16.0688 5.71326 16.6879 5.71971 17.4396L5.721 17.4383Z" />
        <path d="M18.789 18.8169C17.9672 18.8268 17.3673 18.2745 17.3518 17.4944C17.3364 16.7093 17.984 16.0642 18.7774 16.0753C19.5399 16.0865 20.2043 16.7242 20.2095 17.4523C20.2146 18.1928 19.576 18.8082 18.7903 18.8169H18.789Z" />
        <path d="M8.94156 19.9252C8.15071 19.9277 7.50307 19.3333 7.49017 18.5928C7.47727 17.8437 8.17135 17.175 8.95317 17.1837C9.72209 17.1923 10.3465 17.8152 10.3465 18.573C10.3465 19.3569 9.75692 19.9228 8.94156 19.9252Z" />
        <path d="M14.1699 19.926C13.3481 19.9383 12.743 19.3848 12.7276 18.6097C12.7121 17.8221 13.3559 17.177 14.148 17.1856C14.9118 17.1943 15.5762 17.8283 15.5839 18.5577C15.5916 19.3019 14.9582 19.9148 14.1712 19.926H14.1699Z" />
        <path d="M5.72106 21.3469C5.72106 22.1035 5.09663 22.7251 4.32643 22.7338C3.5459 22.7424 2.85052 22.07 2.86472 21.3221C2.87891 20.5816 3.52784 19.9885 4.31869 19.9922C5.13405 19.9959 5.72106 20.5631 5.72106 21.3469Z" />
        <path d="M17.3531 21.3606C17.3479 20.5743 17.9285 20.001 18.7399 19.9923C19.5347 19.9836 20.1836 20.5656 20.2081 21.3086C20.2326 22.0553 19.545 22.7326 18.7619 22.7338C17.9943 22.7338 17.3582 22.1147 17.3531 21.3606Z" />
        <path d="M8.94418 21.1006C9.75954 21.1043 10.3465 21.6715 10.3465 22.4553C10.3465 23.2119 9.72212 23.8335 8.95192 23.8422C8.17139 23.8508 7.47601 23.1797 7.4902 22.4305C7.5044 21.69 8.15333 21.0969 8.94418 21.1006Z" />
        <path d="M12.7269 22.474C12.7191 21.6852 13.2997 21.1106 14.1112 21.1007C14.933 21.0908 15.5948 21.7087 15.5832 22.4752C15.5716 23.2045 14.9046 23.8373 14.1422 23.8423C13.3732 23.8472 12.7346 23.2281 12.7269 22.474Z" />
    </symbol>
    <symbol id="filter-3" viewBox="0 0 23 26">
        <path d="M6.5059 0C6.78225 0.12769 7.08793 0.218242 7.32854 0.391208C7.75639 0.698477 7.94151 1.14463 7.94365 1.65589C7.94418 1.80699 7.94365 1.95858 7.94365 2.15292C8.06901 2.15292 8.17891 2.15292 8.28934 2.15292C10.7823 2.15292 13.2758 2.1519 15.7688 2.15393C16.354 2.15393 16.9393 2.1636 17.525 2.17174C17.9129 2.17734 18.1636 2.38947 18.1652 2.70539C18.1668 3.02182 17.9102 3.24311 17.5314 3.24922C17.3815 3.25176 17.2311 3.24922 17.0358 3.24922V3.55038C17.0358 6.08026 17.0358 8.60963 17.0342 11.1395C17.0342 11.2657 17.0305 11.3949 17.0006 11.5165C16.9403 11.7576 16.7024 11.9199 16.4506 11.9138C16.2057 11.9077 15.9854 11.75 15.9262 11.5175C15.8974 11.4041 15.8926 11.2835 15.8926 11.166C15.891 8.63609 15.891 6.10671 15.891 3.57683V3.26397H2.28016V11.9189H2.61466C6.3768 11.9189 10.1384 11.9189 13.9005 11.9189C14.0072 11.9189 14.1139 11.9158 14.2196 11.9235C14.529 11.9453 14.7536 12.1682 14.7563 12.4505C14.7595 12.7303 14.5354 12.9643 14.2318 12.9938C14.1438 13.0025 14.0547 12.9979 13.9656 12.9979C10.1768 12.9979 6.38854 12.9979 2.59972 12.9979H2.27376V21.6492C2.40073 21.6492 2.5133 21.6492 2.62533 21.6492C4.90545 21.6492 7.18556 21.6502 9.46621 21.6482C9.7559 21.6482 10.0194 21.692 10.1635 21.9682C10.3433 22.3121 10.0931 22.7237 9.69028 22.744C9.49555 22.7537 9.29977 22.746 9.10504 22.746C6.29251 22.746 3.47997 22.746 0.667436 22.746C0.264655 22.746 0.0187181 22.5558 0.00111305 22.2399C-0.0159585 21.9341 0.193168 21.6965 0.51486 21.6752C0.706914 21.6625 0.901103 21.6726 1.11076 21.6726V12.9974C0.934713 12.9974 0.760263 13.002 0.585813 12.9964C0.239581 12.9857 0.00431396 12.769 4.60783e-05 12.4642C-0.00368832 12.1519 0.219842 11.9357 0.570342 11.9219C0.745859 11.9148 0.921376 11.9209 1.11183 11.9209V3.24922C0.942182 3.24922 0.776268 3.25227 0.610887 3.24871C0.243849 3.24057 0.00324699 3.02843 4.60783e-05 2.71404C-0.00315483 2.39253 0.226244 2.17784 0.59915 2.17276C1.41485 2.16207 2.23108 2.15902 3.04732 2.15292C3.15241 2.1519 3.25751 2.15292 3.40475 2.15292C3.40475 1.99877 3.40422 1.86701 3.40475 1.73576C3.40955 0.846516 3.84328 0.295568 4.7374 0.0406979C4.76087 0.0340845 4.78061 0.0142443 4.80195 0.000508723C5.37011 0.000508723 5.93774 0.000508723 6.5059 0.000508723V0ZM6.80946 2.13511C6.80946 1.9596 6.81959 1.79325 6.80732 1.62842C6.78278 1.3003 6.57365 1.09681 6.22742 1.08358C5.85612 1.06985 5.48321 1.07086 5.1119 1.08358C4.80622 1.09376 4.58375 1.26825 4.55014 1.53024C4.52507 1.72661 4.54534 1.92806 4.54534 2.1346H6.80999L6.80946 2.13511Z" />
        <path d="M22.7038 21.2045C22.6681 23.7196 20.6115 25.7931 17.9606 25.9865C15.3753 26.1752 13.02 24.4084 12.5633 21.967C12.3606 20.8824 12.6316 19.8884 13.0888 18.9167C13.7941 17.418 14.7634 16.0755 15.8074 14.7793C16.2337 14.2497 16.6845 13.7369 17.1369 13.2272C17.3994 12.9316 17.7792 12.9174 18.0379 13.2043C19.6373 14.9787 21.1172 16.8335 22.1378 18.9808C22.4723 19.6844 22.7219 20.4154 22.7043 21.2045H22.7038ZM17.6378 14.4044C17.5706 14.4328 17.5493 14.4354 17.5391 14.4466C16.2486 15.9458 15.0248 17.4913 14.1782 19.2672C13.9322 19.7831 13.7124 20.3457 13.6575 20.9028C13.4926 22.5628 14.566 24.0803 16.2316 24.6796C17.8245 25.2529 19.6795 24.7579 20.7235 23.4561C21.7195 22.2148 21.8044 20.8804 21.1343 19.4707C20.4968 18.1302 19.6501 16.9149 18.7315 15.7418C18.3772 15.2895 18.0038 14.851 17.6378 14.4044Z" />
    </symbol>
    <symbol id="filter-4" viewBox="0 0 25 31">
        <path d="M6.01255 0.000606629C6.86172 1.26846 7.70188 2.54238 8.56247 3.80235C9.51501 5.19699 10.4892 6.57646 11.2037 8.11851C11.5733 8.91502 11.8768 9.73639 11.9574 10.6215C12.2248 13.5575 10.3456 16.2837 7.51618 17.0171C5.52216 17.534 3.72586 17.0827 2.11165 15.7881C2.15913 15.722 2.19038 15.6716 2.22824 15.6268C2.37668 15.4508 2.52692 15.2761 2.68798 15.0875C3.35025 15.6322 4.08103 16.0053 4.90436 16.1958C7.8359 16.874 10.7867 14.6992 11.0655 11.674C11.1737 10.4995 10.8329 9.44339 10.3474 8.41394C9.59133 6.81365 8.55887 5.38686 7.55585 3.94248C7.04081 3.20057 6.52398 2.45988 5.99212 1.69492C5.71327 2.10136 5.44343 2.48475 5.18381 2.87421C4.16937 4.39563 3.1351 5.90432 2.15372 7.44758C1.60263 8.31385 1.18135 9.25958 0.990838 10.2811C0.722204 11.7249 1.06356 13.0401 1.90612 14.2285C1.96381 14.3098 2.02331 14.3892 2.09723 14.4918C1.87186 14.6859 1.65431 14.8727 1.42294 15.0723C0.696362 14.1981 0.259456 13.2118 0.0743572 12.1047C-0.19608 10.4874 0.305731 9.03877 1.02089 7.63564C1.87907 5.95285 2.99988 4.44174 4.0648 2.89423C4.66277 2.02493 5.24331 1.1435 5.82865 0.265097C5.88214 0.185022 5.91219 0.0885678 5.95306 0C5.97289 0 5.99332 0 6.01315 0L6.01255 0.000606629Z" />
        <path d="M14.4651 4.59746C13.7638 5.62144 13.0787 6.62117 12.3827 7.63727C12.1267 7.45528 11.9002 7.29392 11.6616 7.12406C12.5979 5.72578 13.5282 4.33479 14.506 2.87402C14.5192 2.92134 14.521 2.96805 14.5426 3.00081C16.2007 5.43582 17.8612 7.8684 19.5187 10.3034C20.8943 12.3241 22.2267 14.3721 23.2002 16.6299C23.8553 18.1489 24.2916 19.7146 24.2549 21.3993C24.1594 25.8149 20.9111 29.8277 16.6244 30.7541C13.5901 31.4092 10.8401 30.7553 8.38148 28.8474C8.31057 28.7922 8.24386 28.7316 8.14771 28.6497C8.33401 28.424 8.5155 28.2038 8.71382 27.963C8.78654 28.0176 8.84904 28.0612 8.90853 28.1086C14.2788 32.3926 22.092 29.3558 23.2405 22.5446C23.5542 20.6852 23.1918 18.9369 22.4821 17.2347C21.6485 15.2359 20.5253 13.4015 19.3161 11.6198C17.741 9.29883 16.1364 6.99788 14.5438 4.68845C14.5276 4.66479 14.506 4.64417 14.4651 4.59685V4.59746Z" />
        <path d="M14.4876 29.1388C14.4755 28.8622 14.4635 28.585 14.4497 28.2726C16.3229 28.1161 17.9143 27.3784 19.1866 25.9995C20.4528 24.6273 21.073 22.9822 21.1193 21.0713H21.9781C22.1241 25.2121 18.6241 29.0242 14.487 29.1395L14.4876 29.1388Z" />
        <path d="M5.18925 18.1484C5.4699 18.2382 5.73313 18.3225 6.01078 18.4117C5.01797 21.7979 5.78241 24.7595 8.06309 27.3619C7.86537 27.5682 7.67306 27.769 7.48075 27.9692C5.17002 25.8047 3.9212 21.6675 5.18985 18.1484H5.18925Z" />
        <path d="M9.71319 11.6299C9.79072 13.4965 8.21798 15.2436 6.21614 15.3685C6.19931 15.2242 6.18068 15.0786 6.16566 14.9318C6.15124 14.7935 6.14102 14.6551 6.1272 14.4974C6.8724 14.3907 7.52986 14.1316 8.05091 13.5905C8.56834 13.0536 8.81354 12.3997 8.84298 11.6299H9.71199H9.71319Z" />
        <path d="M22.0071 19.2783V20.1349H21.1375V19.2783H22.0071Z" />
        <path d="M9.71206 10.6731H8.85327V9.80566H9.71206V10.6731Z" />
    </symbol>
    <symbol id="menu-arrow" viewBox="0 0 10 13">
        <path d="M3 2L7.5 6.5L3 11" stroke-linecap="round"/>
    </symbol>
    <symbol id="select-arrow" viewBox="0 0 14 14">
        <path d="M12 4L6.86487 9.06192L2 4" stroke-linecap="round"/>
    </symbol>
    <symbol id="copy" viewBox="0 0 16 16">
        <path d="M14.5 5H6.5C5.65625 5 5 5.6875 5 6.5V14.5C5 15.3438 5.65625 16 6.5 16H14.5C15.3125 16 16 15.3438 16 14.5V6.5C16 5.6875 15.3125 5 14.5 5ZM14 14H7V7H14V14ZM11 4V1.5C11 0.6875 10.3125 0 9.5 0H1.5C0.65625 0 0 0.6875 0 1.5V9.5C0 10.3438 0.65625 11 1.5 11H4V6.5C4 5.125 5.09375 4.03125 6.5 4H11Z" />
    </symbol>
    <symbol id="link" viewBox="0 0 14 14">
        <path d="M12.5 0H1.5C0.65625 0 0 0.6875 0 1.5V12.5C0 13.3438 0.65625 14 1.5 14H12.5C13.3125 14 14 13.3438 14 12.5V1.5C14 0.6875 13.3125 0 12.5 0ZM12.3125 12.5H1.6875C1.5625 12.5 1.5 12.4375 1.5 12.3125V1.6875C1.5 1.59375 1.5625 1.5 1.6875 1.5H12.3125C12.4062 1.5 12.5 1.59375 12.5 1.6875V12.3125C12.5 12.4375 12.4062 12.5 12.3125 12.5ZM10.625 3H6.375C6.03125 3 5.84375 3.40625 6.09375 3.65625L7.59375 5.15625L3.09375 9.65625C2.9375 9.8125 2.9375 10.0625 3.09375 10.1875L3.8125 10.9062C3.9375 11.0625 4.1875 11.0625 4.34375 10.9062L8.84375 6.40625L10.3438 7.90625C10.5938 8.125 11 7.96875 11 7.625V3.375C11 3.1875 10.8125 3 10.625 3Z"/>
    </symbol>
    <symbol id="download" viewBox="0 0 16 17">
        <path d="M13.4844 7.44141C13.6602 7.26562 13.6602 6.98438 13.4844 6.84375L12.7812 6.14062C12.6406 5.96484 12.3594 5.96484 12.1836 6.14062L8.87891 9.55078V0.796875C8.87891 0.585938 8.70312 0.375 8.45703 0.375H7.47266C7.26172 0.375 7.05078 0.585938 7.05078 0.796875V9.55078L3.78125 6.14062C3.60547 5.96484 3.32422 5.96484 3.18359 6.14062L2.48047 6.84375C2.30469 6.98438 2.30469 7.26562 2.48047 7.44141L7.68359 12.6445C7.85938 12.8203 8.10547 12.8203 8.28125 12.6445L13.4844 7.44141ZM14.3281 14.2969H1.67188C1.42578 14.2969 1.25 14.5078 1.25 14.7188V15.7031C1.25 15.9492 1.42578 16.125 1.67188 16.125H14.3281C14.5391 16.125 14.75 15.9492 14.75 15.7031V14.7188C14.75 14.5078 14.5391 14.2969 14.3281 14.2969Z"/>
    </symbol>
    <symbol id="download-fancy" viewBox="0 0 35 35">
        <path d="M17.5193 34.9939C13.5832 34.9939 9.64926 35.0001 5.71319 34.9939C2.285 34.9855 0.00995118 32.7066 0.00370676 29.2716C-0.00253767 24.9888 -0.00253767 20.7039 0.00370676 16.4211C0.00786971 12.9673 2.24754 10.7301 5.7007 10.7197C7.46163 10.7155 9.22256 10.7092 10.9814 10.7238C11.9847 10.7322 12.5779 11.2321 12.6258 12.0591C12.6757 12.9319 12.0783 13.5672 11.0501 13.5902C9.25586 13.6318 7.45955 13.5902 5.66532 13.6089C3.78367 13.6277 2.89696 14.5317 2.89279 16.4357C2.88447 20.7185 2.88447 25.0034 2.89279 29.2862C2.89696 31.1235 3.86484 32.0963 5.70487 32.0984C13.5749 32.1067 21.445 32.1067 29.315 32.0984C31.0926 32.0984 32.0772 31.1152 32.0813 29.3445C32.0938 25.0263 32.0917 20.7081 32.0813 16.3898C32.0772 14.5255 31.1592 13.6256 29.263 13.6089C27.5021 13.5943 25.7411 13.6297 23.9823 13.5922C22.8604 13.5693 22.1735 12.834 22.3692 11.9091C22.5294 11.1488 23.0165 10.7176 23.8304 10.7197C25.9014 10.7259 27.9746 10.6738 30.0436 10.7447C32.6954 10.8342 34.9267 13.1756 34.9579 15.9482C35.0079 20.5414 35.0141 25.1388 34.9579 29.732C34.9204 32.7129 32.5496 34.9668 29.5294 34.9876C25.5247 35.0126 21.522 34.9939 17.5172 34.9939H17.5193Z" />
        <path d="M16.0792 21.9599V20.8475C16.0792 14.6295 16.0792 8.41361 16.0792 2.1956C16.0792 1.84981 16.0542 1.49777 16.1125 1.16239C16.2415 0.408317 16.7536 0.00419872 17.4821 3.25544e-05C18.2106 -0.00413362 18.7289 0.391653 18.8642 1.14365C18.9245 1.47902 18.8996 1.83106 18.8996 2.17686C18.8996 8.39487 18.8996 14.6108 18.8996 20.8288V22.1349C19.2201 21.8891 19.4345 21.7579 19.6093 21.587C20.521 20.6913 21.4077 19.7727 22.3298 18.8895C22.948 18.2979 23.664 18.2854 24.2864 18.8415C24.9129 19.4019 25.0045 20.1935 24.4363 20.7892C22.4547 22.8577 20.4294 24.8867 18.3646 26.8718C17.813 27.4009 17.0554 27.3322 16.4871 26.7739C14.518 24.8367 12.5594 22.889 10.6299 20.9142C10.0325 20.3039 10.0783 19.3665 10.6673 18.8686C11.35 18.2895 12.0744 18.3083 12.703 18.9436C13.7417 19.9956 14.7428 21.085 15.7607 22.1578C15.8668 22.0912 15.973 22.0266 16.0792 21.9599Z" />
    </symbol>
    <symbol id="height" viewBox="0 0 21 49">
        <path d="M9.57537 7.54782C8.89111 8.56879 8.28474 9.50554 7.64221 10.4101C7.47068 10.6513 7.21386 10.8748 6.95703 10.9663C6.55649 11.1087 6.1884 10.9237 5.96217 10.5109C5.72945 10.0846 5.7619 9.64901 6.028 9.2477C6.62696 8.34526 7.23147 7.44698 7.83414 6.54765C8.46461 5.60675 9.08953 4.66064 9.72835 3.72597C10.2476 2.96701 10.8836 2.97324 11.4019 3.7426C12.6109 5.53813 13.8153 7.33885 15.017 9.14165C15.4277 9.75818 15.3832 10.4069 14.9242 10.7947C14.469 11.1794 13.896 11.0422 13.4834 10.4371C12.8557 9.51697 12.2326 8.5927 11.6077 7.67051C11.6012 7.66011 11.5799 7.66219 11.5326 7.64867V41.3654C11.6161 41.2802 11.6958 41.2188 11.7505 41.1367C12.3281 40.281 12.8984 39.4191 13.4778 38.5645C13.8904 37.9553 14.4606 37.8139 14.9177 38.1923C15.3823 38.577 15.4323 39.2289 15.0244 39.8433C13.8339 41.6336 12.6397 43.4209 11.4381 45.2018C10.879 46.0315 10.2355 46.0211 9.66809 45.18C8.4674 43.398 7.27227 41.6118 6.07992 39.8236C5.66733 39.205 5.71091 38.5614 6.17728 38.1778C6.63994 37.7972 7.21386 37.9334 7.62181 38.5354C8.256 39.4701 8.88184 40.412 9.5763 41.4465V7.54782H9.57537Z" />
        <path d="M10.4781 48.9978C7.36466 48.9978 4.25121 48.9978 1.13776 48.9978C0.454435 48.9978 0.0372074 48.6297 0.0019748 48.0028C-0.0304763 47.4112 0.340393 46.9205 0.865173 46.8664C0.98756 46.8539 1.1118 46.8623 1.23512 46.8623C7.40082 46.8623 13.5665 46.8623 19.7313 46.8623C19.8704 46.8623 20.0104 46.8519 20.1467 46.8706C20.6325 46.9371 20.9997 47.3987 20.9987 47.929C20.9978 48.4478 20.6659 48.8803 20.1865 48.9645C20.0048 48.9967 19.8185 48.9957 19.6339 48.9957C16.5817 48.9978 13.5304 48.9967 10.4781 48.9967V48.9978Z" />
        <path d="M10.4975 2.13487C7.36825 2.13487 4.23904 2.13487 1.11076 2.13487C0.420943 2.13591 -0.00184827 1.72731 6.07483e-06 1.06296C0.00186042 0.419399 0.410744 0.00248886 1.07645 0.00144918C7.33488 -0.000630172 13.5924 -0.000630172 19.8508 0.00248886C20.5573 0.00248886 20.9875 0.409003 20.9996 1.05048C21.0116 1.7034 20.5545 2.13383 19.8387 2.13487C16.7253 2.13591 13.6118 2.13487 10.4984 2.13591L10.4975 2.13487Z" />
        <path d="M1.09102 14.9142C0.589417 14.9236 0.14901 14.4453 0.133248 13.8756C0.117486 13.3069 0.531932 12.8109 1.04373 12.787C1.56202 12.7621 2.02746 13.2642 2.02839 13.8475C2.02839 14.4068 1.59076 14.9059 1.09195 14.9142H1.09102Z" />
        <path d="M20.0242 12.7862C20.5314 12.7789 20.9681 13.2541 20.981 13.8259C20.994 14.4102 20.5397 14.9248 20.0214 14.9155C19.5207 14.9061 19.085 14.4092 19.085 13.8477C19.085 13.2853 19.5198 12.7935 20.0233 12.7862H20.0242Z" />
        <path d="M20.0517 27.6959C19.5547 27.7094 19.1041 27.2291 19.0856 26.6635C19.0661 26.0844 19.5204 25.5594 20.0378 25.5625C20.5403 25.5656 20.9761 26.0553 20.9807 26.6209C20.9853 27.1875 20.5579 27.6814 20.0526 27.6949L20.0517 27.6959Z" />
        <path d="M20.9801 30.8621C20.994 31.4277 20.5759 31.9278 20.0678 31.9517C19.5532 31.9756 19.085 31.4693 19.085 30.8871C19.085 30.3267 19.5226 29.8297 20.0233 29.8214C20.5249 29.8131 20.9662 30.2924 20.9801 30.8621Z" />
        <path d="M1.08238 36.2115C0.57614 36.2136 0.141295 35.7343 0.132951 35.1635C0.123679 34.5803 0.581703 34.0688 1.10092 34.0833C1.60159 34.0979 2.03551 34.6 2.02995 35.1583C2.02438 35.7208 1.58398 36.2105 1.0833 36.2126L1.08238 36.2115Z" />
        <path d="M20.0545 34.0833C20.558 34.0989 20.9873 34.5959 20.9808 35.1594C20.9743 35.7499 20.5098 36.2417 19.9887 36.2095C19.4815 36.1783 19.0661 35.673 19.0856 35.1116C19.106 34.546 19.5566 34.0688 20.0545 34.0833Z" />
        <path d="M2.02798 5.32176C2.03076 5.88839 1.59035 6.38743 1.08412 6.39159C0.576953 6.39575 0.136545 5.90606 0.132836 5.3332C0.129128 4.75618 0.557482 4.27169 1.07392 4.26857C1.58664 4.26545 2.0252 4.7489 2.02798 5.32176Z" />
        <path d="M1.09774 10.6554C0.596138 10.6689 0.152949 10.1948 0.133479 9.6251C0.114008 9.05535 0.523819 8.55943 1.03747 8.5324C1.55947 8.50432 2.02399 8.99609 2.02862 9.58247C2.03326 10.1418 1.59934 10.6419 1.09867 10.6554H1.09774Z" />
        <path d="M20.0402 8.52835C20.5483 8.53251 20.9785 9.01596 20.9803 9.5857C20.9822 10.1502 20.552 10.6451 20.0495 10.6566C19.5339 10.668 19.0731 10.1492 19.0852 9.5701C19.0963 9.00244 19.5349 8.52419 20.0402 8.52835Z" />
        <path d="M2.02897 18.0952C2.03546 18.6535 1.6034 19.1567 1.10272 19.1744C0.586289 19.192 0.125483 18.6805 0.132901 18.0952C0.139391 17.5286 0.577017 17.042 1.08047 17.042C1.57929 17.042 2.02248 17.5338 2.02897 18.0952Z" />
        <path d="M20.9812 18.1014C20.984 18.667 20.5556 19.1629 20.0512 19.1754C19.5385 19.1889 19.0749 18.6681 19.0851 18.09C19.0953 17.5265 19.5385 17.0389 20.0383 17.042C20.5417 17.0451 20.9784 17.5348 20.9812 18.1004V18.1014Z" />
        <path d="M1.07858 21.3008C1.5774 21.3008 2.02152 21.7916 2.02894 22.352C2.03728 22.93 1.57184 23.4488 1.05911 23.4332C0.553803 23.4176 0.127303 22.9227 0.132866 22.3561C0.138429 21.7916 0.57791 21.3008 1.07858 21.2998V21.3008Z" />
        <path d="M20.9799 22.3783C20.9734 22.9429 20.5349 23.4326 20.0342 23.4336C19.5177 23.4346 19.0644 22.9065 19.0857 22.3284C19.1061 21.7628 19.5567 21.2846 20.0546 21.3002C20.5608 21.3158 20.9864 21.8107 20.9799 22.3773V22.3783Z" />
        <path d="M2.02823 26.6251C2.03008 27.1845 1.59338 27.6835 1.09271 27.6939C0.574419 27.7054 0.120104 27.1897 0.133084 26.6054C0.146064 26.0367 0.585545 25.5553 1.08807 25.5626C1.58689 25.5688 2.0273 26.0668 2.02823 26.6251Z" />
        <path d="M1.09385 29.8215C1.5936 29.8329 2.0303 30.333 2.02844 30.8913C2.02566 31.4714 1.55466 31.9788 1.041 31.9518C0.531057 31.9247 0.11661 31.4257 0.133299 30.858C0.149989 30.2893 0.593178 29.8111 1.09385 29.8215Z" />
        <path d="M2.02905 39.4119C2.02534 39.9754 1.5905 40.463 1.08612 40.4682C0.578952 40.4734 0.14318 39.9961 0.132981 39.4254C0.122782 38.839 0.57617 38.3295 1.09724 38.342C1.59977 38.3545 2.03276 38.8525 2.02905 39.4129V39.4119Z" />
        <path d="M20.0527 38.3431C20.5571 38.3566 20.9845 38.8526 20.9799 39.4171C20.9753 39.9868 20.5414 40.4703 20.0351 40.4703C19.5131 40.4703 19.0644 39.9525 19.0857 39.3714C19.1061 38.8047 19.5539 38.3286 20.0527 38.3421V38.3431Z" />
        <path d="M2.02805 43.6807C2.02063 44.2515 1.57744 44.7339 1.0675 44.7266C0.55199 44.7193 0.12549 44.2296 0.132908 43.6537C0.140325 43.0798 0.582587 42.5953 1.09068 42.6046C1.59877 42.6129 2.03547 43.1151 2.02805 43.6807Z" />
        <path d="M20.9804 5.3113C20.9906 5.88209 20.5594 6.38321 20.0504 6.39465C19.5451 6.40608 19.0963 5.92055 19.0852 5.34977C19.0732 4.77587 19.4987 4.2841 20.0152 4.27266C20.5316 4.26123 20.9702 4.73324 20.9804 5.31026V5.3113Z" />
        <path d="M20.027 42.6055C20.5369 42.6003 20.9746 43.0859 20.9801 43.6608C20.9848 44.2357 20.5555 44.7234 20.04 44.7275C19.5282 44.7317 19.0887 44.2482 19.085 43.6754C19.0813 43.1087 19.5198 42.6097 20.027 42.6045V42.6055Z" />
    </symbol>
    <symbol id="width" viewBox="0 0 12 12">
        <path d="M1.7168 7.60742L0.110065 6.00069L1.71743 4.39333L2.52069 5.19659L1.72076 5.99653L2.52422 6.79999L1.7168 7.60742Z" />
        <path d="M11.423 6.00083L9.81543 7.6084L9.01439 6.80736L9.81817 6.00358L9.00985 5.19525L9.81363 4.39147L11.423 6.00083Z" />
        <path d="M3.74019 5.59936C3.96108 5.37442 4.32504 5.37071 4.54928 5.5909C4.77413 5.8117 4.7777 6.17566 4.55701 6.39999C4.33572 6.62493 3.97257 6.62864 3.74812 6.40825C3.52287 6.18704 3.5195 5.82409 3.74019 5.59936Z" />
        <path d="M6.17692 5.59939C6.39691 5.82384 6.39299 6.18759 6.16765 6.40848C5.94271 6.62897 5.57956 6.62499 5.35876 6.39974C5.13857 6.17509 5.14248 5.81173 5.36783 5.59085C5.59236 5.37077 5.95652 5.37454 6.17692 5.59939Z" />
        <path d="M6.98292 5.59355C7.20583 5.37145 7.56999 5.37199 7.79221 5.59461C8.01443 5.81764 8.01375 6.18139 7.79063 6.4037C7.56732 6.62621 7.20437 6.62567 6.98154 6.40244C6.75933 6.17941 6.76 5.81606 6.98312 5.59335L6.98292 5.59355Z" />
    </symbol>
    <symbol id="diametr_1" viewBox="0 0 40 40">
        <path d="M11.3623 40H0.000991961V28.6342H5.68093V34.2906H11.3623V40Z"/>
        <path d="M40 -2.80136e-05V11.3672H34.3358V5.68358H28.6201V-2.80136e-05H40Z"/>
        <path d="M11.4151 25.7472C11.4008 24.171 12.6745 22.871 14.2458 22.8567C15.8214 22.8424 17.1208 24.1166 17.1337 25.6899C17.1466 27.2676 15.8758 28.5647 14.303 28.579C12.7245 28.5933 11.4294 27.322 11.4151 25.7472Z"/>
        <path d="M20.0285 17.1292C21.5998 17.1449 22.872 18.4448 22.8563 20.0225C22.8406 21.5973 21.5426 22.8672 19.9655 22.8514C18.3928 22.8357 17.122 21.5372 17.1377 19.9595C17.1535 18.3876 18.4543 17.1134 20.0285 17.1292Z"/>
        <path d="M22.864 14.2593C22.8668 12.6859 24.1562 11.4003 25.729 11.4018C27.3032 11.4046 28.5868 12.6931 28.584 14.2679C28.5811 15.8441 27.296 17.1255 25.719 17.124C24.1448 17.1212 22.8625 15.8341 22.864 14.2579V14.2593Z"/>
    </symbol>
    <symbol id="diametr_2" viewBox="0 0 50 50">
        <g clip-path="url(#clip0_2104_143)">
            <path d="M25 50C18.3223 50 12.0442 47.3997 7.32228 42.6777C2.60034 37.9558 0 31.6777 0 25C0 18.3223 2.60034 12.0442 7.32228 7.32228C12.0442 2.60034 18.3223 0 25 0C31.6777 0 37.9558 2.60034 42.6777 7.32228C47.3997 12.0442 50 18.3223 50 25C50 31.6777 47.3997 37.9558 42.6777 42.6777C37.9558 47.3997 31.6777 50 25 50ZM25 2.55102C19.0034 2.55102 13.3665 4.88605 9.12585 9.12585C4.88605 13.3665 2.55102 19.0034 2.55102 25C2.55102 30.9966 4.88605 36.6335 9.12585 40.8741C13.3656 45.1139 19.0034 47.449 25 47.449C30.9966 47.449 36.6335 45.1139 40.8741 40.8741C45.1139 36.6344 47.449 30.9966 47.449 25C47.449 19.0034 45.1139 13.3665 40.8741 9.12585C36.6344 4.88605 30.9966 2.55102 25 2.55102Z" />
            <path d="M30.1328 13.1211H36.8837V19.8719H33.5087V16.5122H30.1328V13.1211Z" />
            <path d="M13.1152 36.8796V30.1279H16.4809V33.5038H19.8771V36.8796H13.1152Z" />
            <path d="M30.1002 21.5863C30.1087 22.5226 29.3519 23.2947 28.4182 23.3032C27.482 23.3117 26.7099 22.5549 26.7022 21.6204C26.6946 20.6833 27.4497 19.9129 28.3842 19.9044C29.3221 19.8959 30.0917 20.651 30.1002 21.5863Z" />
            <path d="M24.9811 26.7046C24.0475 26.6952 23.2915 25.9231 23.3009 24.986C23.3102 24.0506 24.0815 23.2964 25.0186 23.3058C25.9531 23.3151 26.7082 24.0864 26.6988 25.0234C26.6895 25.9571 25.9165 26.7139 24.9811 26.7046Z" />
            <path d="M23.2973 28.4095C23.2955 29.3441 22.5294 30.1077 21.5949 30.1068C20.6595 30.1051 19.8967 29.3398 19.8984 28.4044C19.9001 27.4682 20.6637 26.7072 21.6008 26.708C22.5362 26.7097 23.2981 27.4742 23.2973 28.4104V28.4095Z" />
        </g>
        <defs>
            <clipPath id="clip0_2104_143">
                <rect width="50" height="50" fill="white"/>
            </clipPath>
        </defs>
    </symbol>
    <symbol id="diametr_3" viewBox="0 0 50 50">
        <path d="M24.6396 43.525C19.5987 43.525 14.8608 41.5615 11.2959 37.9964C7.73225 34.4312 5.76953 29.6901 5.76953 24.6473C5.76953 19.6044 7.73225 14.8645 11.2959 11.2982C14.8596 7.73306 19.5987 5.76953 24.6396 5.76953C29.6804 5.76953 34.4183 7.73306 37.9832 11.2982C41.5469 14.8633 43.5096 19.6044 43.5096 24.6473C43.5096 29.6901 41.5469 34.43 37.9832 37.9964C34.4195 41.5615 29.6804 43.525 24.6396 43.525ZM24.6396 7.69578C20.1132 7.69578 15.8584 9.45851 12.6577 12.6605C9.457 15.8625 7.69499 20.119 7.69499 24.6473C7.69499 29.1755 9.457 33.432 12.6577 36.634C15.8584 39.836 20.1132 41.5987 24.6396 41.5987C29.166 41.5987 33.4207 39.836 36.6214 36.634C39.8221 33.432 41.5841 29.1755 41.5841 24.6473C41.5841 20.119 39.8221 15.8625 36.6214 12.6605C33.4207 9.45851 29.166 7.69578 24.6396 7.69578Z" />
        <path d="M35.7979 0H49.9996V14.2076H42.9V7.13627H35.7979V0Z" />
        <path d="M0 49.9986V35.791H7.08046V42.8948H14.2246V49.9986H0Z" />
        <path d="M35.7282 17.8164C35.7462 19.7859 34.1549 21.4116 32.1886 21.4296C30.2198 21.4476 28.5949 19.8545 28.5792 17.8885C28.5624 15.9154 30.1513 14.2945 32.1177 14.2765C34.09 14.2597 35.7102 15.8468 35.7282 17.8164Z" />
        <path d="M24.9588 28.5888C22.9937 28.5696 21.4048 26.9439 21.424 24.972C21.4432 23.0037 23.0658 21.4165 25.037 21.4357C27.0033 21.455 28.591 23.0794 28.573 25.0513C28.5537 27.0173 26.9276 28.6093 24.9588 28.5888Z" />
        <path d="M21.4175 32.1728C21.4151 34.1399 19.8034 35.7463 17.837 35.7439C15.8695 35.7415 14.2662 34.1303 14.2686 32.1608C14.2722 30.19 15.8791 28.5884 17.8491 28.5908C19.8166 28.5944 21.4199 30.2032 21.4175 32.1728Z" />
    </symbol>
    <symbol id="photo" viewBox="0 0 17 14">
        <path d="M8.49854 13.1967C6.016 13.1967 3.53248 13.1947 1.04993 13.1987C0.605096 13.1987 0.221448 12.9264 0.0689596 12.527C0.022339 12.4047 0 12.2785 0 12.1474C0 11.7767 0 11.4061 0 11.0354C0 8.28481 0 5.53422 0 2.78462C0 2.30068 0.288465 1.89723 0.73913 1.76209C0.837228 1.73327 0.943096 1.72134 1.04508 1.72134C2.1426 1.71836 3.2411 1.71936 4.33863 1.72134C4.39885 1.72134 4.44547 1.70544 4.47849 1.65973C4.56785 1.53751 4.65526 1.41329 4.74073 1.28809C4.87379 1.09232 4.99909 0.889607 5.13895 0.698814C5.24579 0.553732 5.37788 0.429518 5.55173 0.371883C5.63041 0.346046 5.71491 0.329153 5.79746 0.329153C7.59818 0.326172 9.3989 0.328159 11.1996 0.326172C11.4454 0.326172 11.6318 0.441443 11.794 0.615342C11.9747 0.81011 12.1068 1.04065 12.2476 1.26424C12.3292 1.39243 12.4176 1.51565 12.504 1.64085C12.5438 1.69749 12.5934 1.72035 12.6672 1.72035C13.7667 1.71737 14.8661 1.71836 15.9656 1.71836C16.4085 1.71836 16.7844 1.98368 16.9388 2.40601C16.9815 2.52327 17 2.6455 17 2.7707C17 5.89593 17 9.02016 17 12.1454C17 12.684 16.6193 13.1212 16.0977 13.1898C16.0452 13.1967 15.9909 13.1957 15.9374 13.1957C13.4578 13.1957 10.9782 13.1957 8.49951 13.1957L8.49854 13.1967ZM8.50146 12.5041C10.9811 12.5041 13.4607 12.5041 15.9394 12.5041C16.1851 12.5041 16.323 12.365 16.323 12.1156C16.323 9.01122 16.323 5.90587 16.323 2.80151C16.323 2.7548 16.3182 2.70611 16.3065 2.6614C16.2628 2.5024 16.1336 2.41396 15.952 2.41396C14.8457 2.41396 13.7385 2.41396 12.6322 2.41396C12.5827 2.41396 12.5322 2.41396 12.4827 2.40601C12.2874 2.3762 12.1398 2.26093 12.0116 2.11684C11.8329 1.91611 11.6979 1.68358 11.5541 1.45702C11.4745 1.33181 11.388 1.21157 11.3006 1.09133C11.2628 1.03966 11.2093 1.02078 11.1423 1.02078C9.39113 1.02276 7.63995 1.02276 5.88876 1.02078C5.79358 1.02078 5.72559 1.05258 5.67411 1.12512C5.59156 1.24138 5.51094 1.35963 5.43518 1.48087C5.29629 1.70346 5.16032 1.92903 4.98549 2.12578C4.81358 2.31956 4.60864 2.41893 4.34446 2.41694C3.33726 2.40999 2.33103 2.41396 1.32383 2.41396C1.22379 2.41396 1.12375 2.41396 1.02371 2.41396C0.916871 2.41595 0.825573 2.4557 0.756613 2.54116C0.69251 2.62065 0.679883 2.71506 0.679883 2.81343C0.679883 5.90885 0.679883 9.00426 0.679883 12.1007C0.679883 12.1315 0.680855 12.1623 0.683769 12.1941C0.689596 12.2756 0.72359 12.3441 0.778952 12.4028C0.858596 12.4852 0.959607 12.5061 1.06839 12.5061C3.54608 12.5061 6.02377 12.5061 8.50146 12.5061V12.5041Z" />
        <path d="M8.50346 2.41211C10.9433 2.41907 12.9198 4.44525 12.9198 6.93549C12.9198 9.41778 10.9501 11.4609 8.49375 11.4579C6.02771 11.4549 4.05314 9.38797 4.07936 6.88481C4.10558 4.43034 6.06073 2.41708 8.50249 2.41211H8.50346ZM12.2418 6.93549C12.2438 4.82981 10.5732 3.11367 8.519 3.1097C6.43273 3.10671 4.76119 4.80795 4.76021 6.93449C4.75924 9.05011 6.42884 10.7593 8.49763 10.7613C10.5674 10.7623 12.2399 9.05408 12.2418 6.93549Z" />
        <path d="M2.90023 4.85371C2.79144 4.84774 2.69335 4.85371 2.59913 4.83482C2.25337 4.76725 2.01832 4.45821 2.04163 4.11438C2.06688 3.75068 2.33204 3.47741 2.68946 3.46052C2.86138 3.45257 3.03815 3.44959 3.20714 3.47841C3.50144 3.5271 3.75008 3.82124 3.7394 4.18096C3.73065 4.48504 3.50047 4.7762 3.20132 4.83085C3.09836 4.84973 2.9925 4.84675 2.89925 4.85371H2.90023Z" />
        <path d="M8.50322 3.8042C10.1864 3.8042 11.5617 5.21527 11.5598 6.93936C11.5578 8.66445 10.1806 10.0725 8.49739 10.0676C6.78894 10.0626 5.41363 8.62569 5.44083 6.88471C5.46705 5.20732 6.80739 3.80917 8.50322 3.80519V3.8042ZM6.12071 6.93638C6.12071 8.30373 7.21629 9.41967 8.5916 9.36998C9.83384 9.32427 10.877 8.29777 10.8809 6.93737C10.8857 5.58593 9.81248 4.49582 8.49545 4.50278C7.17453 4.50973 6.11391 5.59686 6.12071 6.93638Z" />
    </symbol>
    <symbol id="info" viewBox="0 0 13 14">
        <path d="M6.05882 10.2278V5.20503H6.94118V10.2278H6.05882ZM6 4.15025V3.29639H7V4.15025H6Z"/>
        <path d="M12.5 6.76245C12.5 10.0363 9.81836 12.6987 6.5 12.6987C3.18164 12.6987 0.5 10.0363 0.5 6.76245C0.5 3.48857 3.18164 0.826172 6.5 0.826172C9.81836 0.826172 12.5 3.48857 12.5 6.76245Z"/>
    </symbol>
</svg>