<svg width="20" height="19" viewBox="0 0 20 19" fill="none" xmlns="http://www.w3.org/2000/svg">
<path d="M10.6755 15.7439C10.0126 16.3807 9.35888 17.0069 8.70827 17.6347C7.81463 18.4968 6.88945 18.2959 6.49185 17.0866C6.02965 15.6821 5.61744 14.2565 5.24368 12.8227C5.08141 12.2006 4.81993 11.8493 4.20315 11.6768C3.2403 11.4085 2.30205 11.036 1.36534 10.6717C1.04849 10.5489 0.730875 10.3634 0.480933 10.1268C-0.199679 9.48432 -0.153536 8.47832 0.596291 7.92857C0.979279 7.64718 1.43071 7.46176 1.86523 7.26821C7.07787 4.94393 12.2921 2.62535 17.507 0.306771C17.6724 0.233579 17.8369 0.157133 18.0077 0.0993922C19.2028 -0.303981 20.171 0.566199 19.9757 1.88204C19.8788 2.53671 19.7419 3.18487 19.6211 3.83547C18.7806 8.37829 17.9431 12.9219 17.0971 17.4639C16.8372 18.8603 15.2844 19.4654 14.2039 18.5976C13.1226 17.7299 12.0483 16.8516 10.9708 15.9773C10.8808 15.9041 10.7886 15.8334 10.6755 15.7439ZM7.84616 16.262C8.81286 15.3308 9.69112 14.4858 10.5871 13.6238C10.7224 13.7311 10.8455 13.8263 10.9654 13.923C12.2967 15.0022 13.6271 16.0839 14.9599 17.1614C15.3806 17.5014 15.5367 17.4379 15.639 16.889C16.4288 12.6267 17.2163 8.36447 18.0046 4.1014C18.1507 3.31011 18.2945 2.51882 18.456 1.6405C12.8588 4.13312 7.33935 6.59077 1.74987 9.08013C1.92983 9.15658 2.03134 9.207 2.13747 9.24441C3.38642 9.68926 4.63843 10.1235 5.88276 10.5822C6.13809 10.6765 6.32651 10.6538 6.55645 10.5025C9.44656 8.59787 12.342 6.703 15.2383 4.80893C15.4113 4.69589 15.5936 4.59342 15.7828 4.51454C15.8443 4.48851 15.9727 4.52836 16.0112 4.58366C16.0504 4.6414 16.0496 4.77966 16.0089 4.83821C15.9043 4.98948 15.7736 5.12285 15.6428 5.25134C13.3203 7.54309 10.9954 9.83158 8.6752 12.1266C8.55984 12.2404 8.4291 12.3909 8.40449 12.543C8.21069 13.7425 8.04073 14.9461 7.84616 16.262Z" fill="white"/>
</svg>
