<svg width="11" height="14" viewBox="0 0 11 14" fill="none" xmlns="http://www.w3.org/2000/svg">
<path d="M1.2666 8.60888H2.01124H2.51124V9.10888V9.11147V9.11407V9.11666V9.11926V9.12185V9.12444V9.12704V9.12963V9.13222V9.13481V9.13741V9.14V9.14259V9.14518V9.14777V9.15036V9.15295V9.15554V9.15812V9.16071V9.1633V9.16589V9.16848V9.17106V9.17365V9.17623V9.17882V9.18141V9.18399V9.18658V9.18916V9.19174V9.19433V9.19691V9.19949V9.20207V9.20466V9.20724V9.20982V9.2124V9.21498V9.21756V9.22014V9.22272V9.2253V9.22788V9.23046V9.23303V9.23561V9.23819V9.24077V9.24334V9.24592V9.2485V9.25107V9.25365V9.25622V9.2588V9.26137V9.26394V9.26652V9.26909V9.27166V9.27423V9.27681V9.27938V9.28195V9.28452V9.28709V9.28966V9.29223V9.2948V9.29737V9.29994V9.30251V9.30508V9.30765V9.31021V9.31278V9.31535V9.31791V9.32048V9.32305V9.32561V9.32818V9.33074V9.33331V9.33587V9.33844V9.341V9.34356V9.34613V9.34869V9.35125V9.35382V9.35638V9.35894V9.3615V9.36406V9.36662V9.36918V9.37174V9.3743V9.37686V9.37942V9.38198V9.38454V9.3871V9.38966V9.39221V9.39477V9.39733V9.39988V9.40244V9.405V9.40755V9.41011V9.41266V9.41522V9.41777V9.42033V9.42288V9.42543V9.42799V9.43054V9.43309V9.43565V9.4382V9.44075V9.4433V9.44585V9.44841V9.45096V9.45351V9.45606V9.45861V9.46116V9.46371V9.46626V9.4688V9.47135V9.4739V9.47645V9.479V9.48154V9.48409V9.48664V9.48919V9.49173V9.49428V9.49682V9.49937V9.50191V9.50446V9.507V9.50955V9.51209V9.51464V9.51718V9.51972V9.52227V9.52481V9.52735V9.5299V9.53244V9.53498V9.53752V9.54006V9.5426V9.54515V9.54769V9.55023V9.55277V9.55531V9.55785V9.56039V9.56292V9.56546V9.568V9.57054V9.57308V9.57562V9.57815V9.58069V9.58323V9.58577V9.5883V9.59084V9.59338V9.59591V9.59845V9.60098V9.60352V9.60605V9.60859V9.61112V9.61366V9.61619V9.61872V9.62126V9.62379V9.62633V9.62886V9.63139V9.63392V9.63646V9.63899V9.64152V9.64405V9.64658V9.64911V9.65164V9.65418V9.65671V9.65924V9.66177V9.6643V9.66683V9.66935V9.67188V9.67441V9.67694V9.67947V9.682V9.68453V9.68706V9.68958V9.69211V9.69464V9.69716V9.69969V9.70222V9.70474V9.70727V9.7098V9.71232V9.71485V9.71737V9.7199V9.72242V9.72495V9.72747V9.73V9.73252V9.73505V9.73757V9.7401V9.74262V9.74514V9.74767V9.75019V9.75271V9.75523V9.75776V9.76028V9.7628V9.76532V9.76784V9.77037V9.77289V9.77541V9.77793V9.78045V9.78297V9.78549V9.78801V9.79053V9.79305V9.79557V9.79809V9.80061V9.80313V9.80565V9.80817V9.81069V9.8132V9.81572V9.81824V9.82076V9.82328V9.82579V9.82831V9.83083V9.83335V9.83586V9.83838V9.8409V9.84341V9.84593V9.84845V9.85096V9.85348V9.85599V9.85851V9.86103V9.86354V9.86606V9.86857V9.87109V9.8736V9.87612V9.87863V9.88115V9.88366V9.88617V9.88869V9.8912V9.89371V9.89623V9.89874V9.90125V9.90377V9.90628V9.90879V9.91131V9.91382V9.91633V9.91884V9.92135V9.92387V9.92638V9.92889V9.9314V9.93391V9.93642V9.93894V9.94145V9.94396V9.94647V9.94898V9.95149V9.954V9.95651V9.95902V9.96153V9.96404V9.96655V9.96906V9.97157V9.97408V9.97659V9.9791V9.98161V9.98412V9.98663V9.98913V9.99164V9.99415V9.99666V9.99917V10.0017V10.0042V10.0067V10.0092V10.0117V10.0142V10.0167V10.0192V10.0217V10.0242V10.0268V10.0293V10.0318V10.0343V10.0368V10.0393V10.0418V10.0443V10.0468V10.0493V10.0518V10.0543V10.0568V10.0593V10.0618V10.0644V10.0669V10.0694V10.0719V10.0744V10.0769V10.0794V10.0819V10.0844V10.0869V10.0894V10.0919V10.0944V10.0969V10.0994V10.1019V10.1044V10.1069V10.1094V10.1119V10.1145V10.117V10.1195V10.122V10.1245V10.127V10.1295V10.132V10.1345V10.137V10.1395V10.142V10.1445V10.147V10.1495V10.152V10.1545V10.157V10.1595V10.162V10.1645V10.167V10.1695V10.172V10.1745V10.177V10.1795V10.182V10.1846V10.1871V10.1896V10.1921V10.1946V10.1971V10.1996V10.2021V10.2046V10.2071V10.2096V10.2121V10.2146V10.2171V10.2196V10.2221V10.2246V10.2271V10.2296V10.2321V10.2346V10.2371V10.2396V10.2421V10.2446V10.2471V10.2496V10.2521V10.2546V10.2571V10.2596V10.2621V10.2646V10.2671V10.2696V10.2721V10.2746V10.2771V10.2796V10.2821V10.2846V10.2871V10.2896V10.2921V10.2946V10.2971V10.2996V10.3021V10.3046V10.3071V10.3096V10.3121V10.3146V10.3172V10.3197V10.3222V10.3247V10.3272V10.3297V10.3322V10.3347V10.3372V10.3397V10.3422V10.3447V10.3472V10.3497V10.3522V10.3547V10.3572V10.3597V10.3622V10.3647V10.3672V10.3697V10.3722V10.3747V10.3772V10.3797V10.3822V10.3847V10.3872V10.3897V10.3922V10.3947V10.3972V10.3997V10.4022V10.4047C2.51124 10.599 2.55724 10.6621 2.56651 10.6726C2.57068 10.6773 2.57727 10.6836 2.59494 10.6904C2.61504 10.6982 2.65465 10.7083 2.72246 10.7083H2.72876H2.73507H2.74137H2.74768H2.75398H2.76029H2.76659H2.77289H2.7792H2.7855H2.79181H2.79811H2.80442H2.81072H2.81703H2.82333H2.82964H2.83594H2.84224H2.84855H2.85485H2.86116H2.86746H2.87377H2.88007H2.88638H2.89268H2.89898H2.90529H2.91159H2.9179H2.9242H2.9305H2.93681H2.94311H2.94942H2.95572H2.96202H2.96833H2.97463H2.98094H2.98724H2.99354H2.99985H3.00615H3.01246H3.01876H3.02506H3.03137H3.03767H3.04398H3.05028H3.05658H3.06289H3.06919H3.07549H3.0818H3.0881H3.09441H3.10071H3.10701H3.11332H3.11962H3.12592H3.13223H3.13853H3.14483H3.15114H3.15744H3.16374H3.17005H3.17635H3.18265H3.18896H3.19526H3.20156H3.20787H3.21417H3.22047H3.22678H3.23308H3.23938H3.24569H3.25199H3.25829H3.2646H3.2709H3.2772H3.28351H3.28981H3.29611H3.30242H3.30872H3.31502H3.32132H3.32763H3.33393H3.34023H3.34654H3.35284H3.35914H3.36545H3.37175H3.37805H3.38435H3.39066H3.39696H3.40326H3.40957H3.41587H3.42217H3.42847H3.43478H3.44108H3.44738H3.45369H3.45999H3.46629H3.47259H3.4789H3.4852H3.4915H3.4978H3.50411H3.51041H3.51671H3.52301H3.52932H3.53562H3.54192H3.54823H3.55453H3.56083H3.56713H3.57344H3.57974H3.58604H3.59234H3.59865H3.60495H3.61125H3.61755H3.62386H3.63016H3.63646H3.64276H3.64906H3.65537H3.66167H3.66797H3.67427H3.68058H3.68688H3.69318H3.69948H3.70579H3.71209H3.71839H3.72469H3.731H3.7373H3.7436H3.7499H3.7562H3.76251H3.76881H3.77511H3.78141H3.78772H3.79402H3.80032H3.80662H3.81292H3.81923H3.82553H3.83183H3.83813H3.84443H3.85074H3.85704H3.86334H3.86964H3.87595H3.88225H3.88855H3.89485H3.90115H3.90746H3.91376H3.92006H3.92636H3.93266H3.93897H3.94527H3.95157H3.95787H3.96417H3.97048H3.97678H3.98308H3.98938H3.99568H4.00199H4.00829H4.01459H4.02089H4.02719H4.0335H4.0398H4.0461H4.0524H4.0587H4.06501H4.07131H4.07761H4.08391H4.09021H4.09652H4.10282H4.10912H4.11542H4.12172H4.12802H4.13433H4.14063H4.14693H4.15323H4.15953H4.16584H4.17214H4.17844H4.18474H4.19104H4.19735H4.20365H4.20995H4.21625H4.22255H4.22886H4.23516H4.24146H4.24776H4.25406H4.26036H4.26667H4.27297H4.27927H4.28557H4.29187H4.29818H4.30448H4.31078H4.31708H4.32338H4.32968H4.33599H4.34229H4.34859H4.35489H4.36119H4.3675H4.3738H4.3801H4.3864H4.3927H4.39901H4.40531H4.41161H4.41791H4.42421H4.43051H4.43682H4.44312H4.44942H4.45572H4.46202H4.46833H4.47463H4.48093H4.48723H4.49353H4.49984H4.50614H4.51244H4.51874H4.52504H4.53134H4.53765H4.54395H4.55025H4.55655H4.56285H4.56916H4.57546H4.58176H4.58806H4.59436H4.60067H4.60697H4.61327H4.61957H4.62587H4.63218H4.63848H4.64478H4.65108H4.65738H4.66369H4.66999H4.67629H4.68259H4.68889H4.69519H4.7015H4.7078H4.7141H4.7204H4.72671H4.73301H4.73931H4.74561H4.75191H4.75822H4.76452H4.77082H4.77712H4.78342H4.78973H4.79603H4.80233H4.80863H4.81493H4.82124H4.82754H4.83384H4.84014H4.84644H4.85275H4.85905H4.86535H4.87165H4.87796H4.88426H4.89056H4.89686H4.90316H4.90947H4.91577H4.92207H4.92837H4.93468H4.94098H4.94728H4.95358H4.95988H4.96619H4.97249H4.97879H4.98509H4.9914H4.9977H5.004H5.0103H5.01661H5.02291H5.02921H5.03551H5.04182H5.04812H5.05442H5.06072H5.06703H5.07333H5.07963H5.08593H5.09224H5.09854H5.10484H5.11114H5.11745H5.12375H5.13005H5.13635H5.14266H5.14896H5.15526H5.16156H5.16787H5.17417H5.18047H5.18677H5.19308H5.19938H5.20568H5.21199H5.21829H5.22459H5.23089H5.2372H5.2435H5.2498H5.2561H5.26241H5.26871H5.27501H5.28132H5.28762H5.29392H5.30022H5.30653H5.31283H5.31913H5.32544H5.33174H5.33804H5.34435H5.35065H5.35695H5.36325H5.36956H5.37586H5.38216H5.38847H5.39477H5.40107H5.40738H5.41368H5.41998H5.42629H5.43259H5.43889H5.4452H5.4515H5.4578H5.46411H5.47041H5.47671H5.48302H5.48932H5.49562H5.50193H5.50823H5.51453H5.52084H5.52714H5.53344H5.53975H5.54605H5.55235H5.55866H5.56496H5.57126H5.57757H5.58387H5.59018H5.59648H5.60278H5.60909H5.61539H5.62169H5.628H5.6343H5.6406H5.64691H5.65321H5.65952H5.66582H5.67212H5.67843H5.68473H5.69104H5.69734H5.70364H5.70995H5.71625H5.72256H5.72886H5.73516H5.74147H5.74777H5.75408H5.76038H5.76669H5.77299H5.77929H5.7856H5.7919H5.79821H5.80451H5.81082H5.81712H5.82342H5.82973H5.83603H5.84234H5.84864H5.85495H5.86125H5.86756H5.87386H5.88016H5.88647H5.89277H5.89908H5.90538H5.91169H5.91799H5.9243H5.9306H5.93691H5.94321H5.94952C6.27506 10.7083 6.60006 10.7086 6.92476 10.7088C7.57304 10.7093 8.2201 10.7098 8.86782 10.7083M1.2666 8.60888L9.02402 10.4715C9.02402 10.4712 9.02402 10.4708 9.02403 10.4705C9.02278 10.5903 8.98723 10.6495 8.96721 10.672C8.95176 10.6893 8.92684 10.7081 8.86782 10.7083M1.2666 8.60888V5.4043H10.2666V8.60659H9.52401H9.02401V9.10659V9.1083V9.11002V9.11174V9.11345V9.11517V9.11688V9.1186V9.12032V9.12203V9.12375V9.12546V9.12717V9.12889V9.1306V9.13232V9.13403V9.13574V9.13746V9.13917V9.14088V9.14259V9.14431V9.14602V9.14773V9.14944V9.15115V9.15286V9.15457V9.15628V9.158V9.15971V9.16142V9.16312V9.16483V9.16654V9.16825V9.16996V9.17167V9.17338V9.17509V9.17679V9.1785V9.18021V9.18192V9.18362V9.18533V9.18704V9.18874V9.19045V9.19216V9.19386V9.19557V9.19727V9.19898V9.20068V9.20239V9.20409V9.2058V9.2075V9.2092V9.21091V9.21261V9.21431V9.21602V9.21772V9.21942V9.22113V9.22283V9.22453V9.22623V9.22793V9.22963V9.23134V9.23304V9.23474V9.23644V9.23814V9.23984V9.24154V9.24324V9.24494V9.24664V9.24834V9.25004V9.25173V9.25343V9.25513V9.25683V9.25853V9.26023V9.26192V9.26362V9.26532V9.26701V9.26871V9.27041V9.2721V9.2738V9.2755V9.27719V9.27889V9.28058V9.28228V9.28397V9.28567V9.28736V9.28906V9.29075V9.29245V9.29414V9.29584V9.29753V9.29922V9.30092V9.30261V9.3043V9.30599V9.30769V9.30938V9.31107V9.31276V9.31446V9.31615V9.31784V9.31953V9.32122V9.32291V9.3246V9.32629V9.32798V9.32967V9.33136V9.33305V9.33474V9.33643V9.33812V9.33981V9.3415V9.34319V9.34488V9.34657V9.34826V9.34994V9.35163V9.35332V9.35501V9.35669V9.35838V9.36007V9.36176V9.36344V9.36513V9.36682V9.3685V9.37019V9.37187V9.37356V9.37525V9.37693V9.37862V9.3803V9.38199V9.38367V9.38536V9.38704V9.38873V9.39041V9.39209V9.39378V9.39546V9.39714V9.39883V9.40051V9.40219V9.40388V9.40556V9.40724V9.40893V9.41061V9.41229V9.41397V9.41565V9.41734V9.41902V9.4207V9.42238V9.42406V9.42574V9.42742V9.4291V9.43078V9.43246V9.43414V9.43582V9.4375V9.43918V9.44086V9.44254V9.44422V9.4459V9.44758V9.44926V9.45094V9.45262V9.4543V9.45597V9.45765V9.45933V9.46101V9.46269V9.46436V9.46604V9.46772V9.4694V9.47107V9.47275V9.47443V9.4761V9.47778V9.47946V9.48113V9.48281V9.48449V9.48616V9.48784V9.48951V9.49119V9.49286V9.49454V9.49621V9.49789V9.49956V9.50124V9.50291V9.50459V9.50626V9.50794V9.50961V9.51128V9.51296V9.51463V9.5163V9.51798V9.51965V9.52133V9.523V9.52467V9.52634V9.52802V9.52969V9.53136V9.53303V9.53471V9.53638V9.53805V9.53972V9.54139V9.54307V9.54474V9.54641V9.54808V9.54975V9.55142V9.55309V9.55476V9.55643V9.5581V9.55978V9.56145V9.56312V9.56479V9.56646V9.56813V9.5698V9.57147V9.57314V9.5748V9.57647V9.57814V9.57981V9.58148V9.58315V9.58482V9.58649V9.58816V9.58983V9.59149V9.59316V9.59483V9.5965V9.59817V9.59983V9.6015V9.60317V9.60484V9.60651V9.60817V9.60984V9.61151V9.61317V9.61484V9.61651V9.61818V9.61984V9.62151V9.62318V9.62484V9.62651V9.62817V9.62984V9.63151V9.63317V9.63484V9.6365V9.63817V9.63984V9.6415V9.64317V9.64483V9.6465V9.64816V9.64983V9.65149V9.65316V9.65482V9.65649V9.65815V9.65982V9.66148V9.66314V9.66481V9.66647V9.66814V9.6698V9.67147V9.67313V9.67479V9.67646V9.67812V9.67978V9.68145V9.68311V9.68477V9.68644V9.6881V9.68976V9.69143V9.69309V9.69475V9.69642V9.69808V9.69974V9.7014V9.70307V9.70473V9.70639V9.70805V9.70972V9.71138V9.71304V9.7147V9.71636V9.71803V9.71969V9.72135V9.72301V9.72467V9.72633V9.728V9.72966V9.73132V9.73298V9.73464V9.7363V9.73796V9.73962V9.74128V9.74295V9.74461V9.74627V9.74793V9.74959V9.75125V9.75291V9.75457V9.75623V9.75789V9.75955V9.76121V9.76287V9.76453V9.76619V9.76785V9.76951V9.77117V9.77283V9.77449V9.77615V9.77781V9.77947V9.78113V9.78279V9.78445V9.78611V9.78777V9.78943V9.79109V9.79275V9.7944V9.79606V9.79772V9.79938V9.80104V9.8027V9.80436V9.80602V9.80768V9.80934V9.81099V9.81265V9.81431V9.81597V9.81763V9.81929V9.82095V9.8226V9.82426V9.82592V9.82758V9.82924V9.8309V9.83255V9.83421V9.83587V9.83753V9.83919V9.84084V9.8425V9.84416V9.84582V9.84748V9.84913V9.85079V9.85245V9.85411V9.85577V9.85742V9.85908V9.86074V9.8624V9.86405V9.86571V9.86737V9.86903V9.87068V9.87234V9.874V9.87566V9.87731V9.87897V9.88063V9.88229V9.88394V9.8856V9.88726V9.88891V9.89057V9.89223V9.89389V9.89554V9.8972V9.89886V9.90051V9.90217V9.90383V9.90549V9.90714V9.9088V9.91046V9.91211V9.91377V9.91543V9.91708V9.91874V9.9204V9.92206V9.92371V9.92537V9.92703V9.92868V9.93034V9.932V9.93365V9.93531V9.93697V9.93862V9.94028V9.94194V9.94359V9.94525V9.94691V9.94856V9.95022V9.95188V9.95353V9.95519V9.95685V9.9585V9.96016V9.96182V9.96347V9.96513C9.02401 10.0238 9.02413 10.0814 9.02424 10.1385L1.2666 8.60888ZM8.86782 10.7083L8.86899 11.2083L8.86752 10.7083C8.86762 10.7083 8.86772 10.7083 8.86782 10.7083Z" stroke="#F15623"/>
<path d="M3.1416 13.4996V12.4219H8.39032V13.4996H3.1416Z" stroke="#F15623"/>
<path d="M8.3986 2.86436C8.39846 2.73925 8.39806 2.61537 8.39714 2.49198C6.69034 2.10578 4.98338 1.72249 3.2751 1.3391L8.3986 2.86436ZM8.3986 2.86436C7.56075 2.67705 6.72309 2.4897 5.88623 2.30252C4.97078 2.09777 4.05629 1.89324 3.14355 1.68921V1.30975C3.18738 1.31949 3.23115 1.32926 3.27492 1.33906L8.3986 2.86436Z" stroke="#F15623"/>
<path d="M4.35765 3.68856H3.14551V3.41657C3.54965 3.50723 3.95369 3.59789 4.35765 3.68856Z" stroke="#F15623"/>
<path d="M8.38819 0.5V0.758434L7.23256 0.5H8.38819Z" stroke="#F15623"/>
</svg>
