<svg width="14" height="11" viewBox="0 0 14 11" fill="none" xmlns="http://www.w3.org/2000/svg">
<path d="M6.69882 3.91438V1.09223C6.61301 1.09223 6.53025 1.09298 6.44774 1.09223C6.18143 1.08949 5.91385 1.10048 5.64906 1.07975C5.34924 1.05602 5.14462 0.804302 5.15934 0.513872C5.1733 0.235928 5.40712 0.00468234 5.70034 0.00343372C6.72852 -0.00106133 7.7567 -0.00131106 8.78488 0.00368344C9.08597 0.00518179 9.32207 0.25241 9.3241 0.54234C9.32639 0.843259 9.08978 1.08349 8.76965 1.09198C8.4947 1.09923 8.21976 1.09323 7.94456 1.09373C7.90344 1.09373 7.86206 1.09723 7.81255 1.09948C7.81001 1.14867 7.80595 1.18913 7.80595 1.22983C7.80595 2.08314 7.80773 2.9367 7.80417 3.79001C7.80367 3.88915 7.83261 3.92986 7.93263 3.91438C7.9367 3.91363 7.94101 3.91388 7.94533 3.91438C8.44114 3.97156 8.88846 3.85944 9.31699 3.59922C9.70059 3.36623 10.1121 3.17619 10.5178 2.98016C10.6353 2.92347 10.7747 2.88426 10.9047 2.88276C11.6493 2.87402 12.3939 2.87727 13.1388 2.88052C13.5574 2.88226 13.7669 3.09503 13.7669 3.50907C13.7669 5.55307 13.7669 7.59707 13.7669 9.64132C13.7669 9.99044 13.5176 10.2429 13.1639 10.2437C12.4023 10.2457 11.6407 10.2477 10.8791 10.2397C10.7613 10.2384 10.6338 10.2042 10.5282 10.1515C9.94761 9.86258 9.3731 9.56191 8.79427 9.26898C8.73334 9.23801 8.65921 9.21754 8.59118 9.21729C7.70263 9.21379 6.81408 9.21379 5.92553 9.21704C5.85723 9.21704 5.78234 9.23477 5.72167 9.26523C5.14284 9.55766 4.56833 9.85833 3.98747 10.147C3.87805 10.2015 3.7468 10.2379 3.6252 10.2394C2.86358 10.2479 2.10197 10.2459 1.34035 10.2434C1.00194 10.2424 0.767617 10.0084 0.767363 9.67403C0.766348 7.60506 0.766348 5.53609 0.767363 3.46687C0.767363 3.11775 0.984423 2.88651 1.33857 2.88251C2.10425 2.87427 2.87018 2.87477 3.63611 2.88301C3.75746 2.88426 3.88744 2.92696 3.99712 2.98165C4.57747 3.27109 5.15198 3.57175 5.73055 3.86493C5.78793 3.8939 5.858 3.91063 5.92248 3.91188C6.17559 3.91712 6.42895 3.91413 6.69806 3.91413L6.69882 3.91438ZM12.6678 3.96158C12.6394 3.95234 12.6315 3.94759 12.6234 3.94759C12.0905 3.94684 11.5577 3.94559 11.0248 3.94759C10.9849 3.94759 10.9425 3.96457 10.9062 3.98305C10.4074 4.23677 9.90978 4.49374 9.40991 4.74571C9.34264 4.77967 9.32283 4.81913 9.32283 4.89055C9.32512 6.00582 9.32588 7.1211 9.32283 8.23612C9.32283 8.32028 9.35127 8.36023 9.42489 8.39694C9.90369 8.63493 10.3784 8.88041 10.8582 9.11615C10.9413 9.15685 11.0415 9.18058 11.1345 9.18183C11.5955 9.18832 12.0565 9.18033 12.5173 9.18807C12.645 9.19007 12.6686 9.14711 12.6684 9.03149C12.6653 7.45023 12.6671 5.86897 12.6676 4.28772C12.6676 4.18008 12.6676 4.0727 12.6676 3.96182L12.6678 3.96158ZM1.85419 3.95333V9.17383C1.8844 9.17783 1.90471 9.18283 1.92527 9.18283C2.43733 9.18332 2.94914 9.18482 3.46119 9.18183C3.51298 9.18158 3.56884 9.1611 3.61606 9.13713C4.10704 8.8859 4.59575 8.62993 5.088 8.38121C5.16442 8.34275 5.18727 8.30005 5.18727 8.21914C5.18473 7.10761 5.18498 5.99608 5.18777 4.88456C5.18777 4.81114 5.16188 4.77518 5.0974 4.74247C4.60133 4.49174 4.10755 4.23627 3.61174 3.9853C3.56477 3.96158 3.50816 3.94509 3.45586 3.94484C2.95244 3.94185 2.44875 3.94285 1.94533 3.94335C1.91664 3.94335 1.88821 3.94959 1.85444 3.95358L1.85419 3.95333ZM6.30075 4.9807V8.13947H8.21849V4.9807H6.30075Z" fill="#F15623"/>
</svg>
