<svg width="24" height="14" viewBox="0 0 24 14" fill="none" xmlns="http://www.w3.org/2000/svg">
<path d="M23.5469 0.971619C23.7351 1.49543 23.1213 2.69855 21.7054 4.581C21.5089 4.8429 21.2429 5.19074 20.9074 5.62452C20.58 6.04193 20.3549 6.33658 20.2321 6.50845C20.1094 6.68033 19.9825 6.88494 19.8516 7.12229C19.7288 7.35146 19.6797 7.52333 19.7042 7.63791C19.737 7.74431 19.7902 7.88345 19.8638 8.05533C19.9457 8.2272 20.0807 8.40317 20.269 8.58323C20.4572 8.76329 20.6905 8.98018 20.9688 9.2339C21.0015 9.25027 21.0219 9.26663 21.0301 9.283C22.1842 10.3552 22.9658 11.2596 23.375 11.9962C23.3996 12.0371 23.4241 12.0903 23.4487 12.1558C23.4814 12.2131 23.51 12.3195 23.5346 12.475C23.5673 12.6305 23.5673 12.7696 23.5346 12.8924C23.5019 13.0151 23.3996 13.1297 23.2277 13.2361C23.0558 13.3343 22.8144 13.3835 22.5033 13.3835L19.3605 13.4326C19.1641 13.4735 18.9349 13.453 18.673 13.3712C18.4111 13.2893 18.1983 13.1993 18.0346 13.1011L17.7891 12.9538C17.5435 12.7819 17.2571 12.52 16.9297 12.168C16.6023 11.8161 16.3199 11.501 16.0826 11.2227C15.8534 10.9363 15.6038 10.6989 15.3337 10.5107C15.0718 10.3143 14.8426 10.2488 14.6462 10.3143C14.6217 10.3224 14.5889 10.3388 14.548 10.3634C14.5071 10.3797 14.4375 10.437 14.3393 10.5352C14.2411 10.6335 14.151 10.7562 14.0692 10.9035C13.9955 11.0427 13.926 11.2555 13.8605 11.5419C13.8032 11.8202 13.7786 12.1353 13.7868 12.4872C13.7868 12.61 13.7705 12.7246 13.7377 12.831C13.7132 12.9292 13.6845 13.0029 13.6518 13.052L13.6027 13.1134C13.4554 13.2689 13.2385 13.3589 12.952 13.3835H11.5402C10.9591 13.4162 10.3616 13.3507 9.74777 13.187C9.13393 13.0151 8.59375 12.7983 8.12723 12.5364C7.6689 12.2663 7.2474 11.9962 6.86272 11.7261C6.48624 11.4478 6.19978 11.2105 6.00335 11.014L5.69643 10.7194C5.61458 10.6375 5.5 10.5148 5.35268 10.3511C5.21354 10.1874 4.92299 9.815 4.48103 9.2339C4.03906 8.65279 3.60528 8.03486 3.17969 7.3801C2.75409 6.72534 2.25074 5.86187 1.66964 4.7897C1.09673 3.71753 0.564732 2.60443 0.0736607 1.45041C0.0245536 1.31946 0 1.20897 0 1.11894C0 1.02891 0.0122768 0.963435 0.0368304 0.922512L0.0859375 0.848851C0.208705 0.693346 0.441964 0.615593 0.785714 0.615593L4.14955 0.591039C4.24777 0.607408 4.34189 0.636054 4.43192 0.676976C4.52195 0.709715 4.58743 0.742453 4.62835 0.775191L4.68973 0.812022C4.82068 0.902052 4.9189 1.033 4.98438 1.20488C5.14807 1.6141 5.33631 2.0397 5.54911 2.48166C5.76191 2.91544 5.92969 3.24692 6.05246 3.47608L6.24888 3.83211C6.48624 4.32318 6.7154 4.74878 6.93638 5.1089C7.15737 5.46902 7.3538 5.75138 7.52567 5.956C7.70573 6.15242 7.8776 6.30793 8.0413 6.42251C8.20499 6.5371 8.34412 6.59439 8.45871 6.59439C8.57329 6.59439 8.68378 6.57393 8.79018 6.533C8.80655 6.52482 8.82701 6.50436 8.85156 6.47162C8.87612 6.43888 8.92522 6.34885 8.99888 6.20153C9.07255 6.05421 9.12574 5.86187 9.15848 5.62452C9.19941 5.38717 9.24033 5.0557 9.28125 4.6301C9.32217 4.20451 9.32217 3.69297 9.28125 3.0955C9.26488 2.76812 9.22805 2.46939 9.17076 2.1993C9.11347 1.92921 9.05618 1.74096 8.99888 1.63457L8.92522 1.48724C8.72061 1.20897 8.37277 1.033 7.8817 0.959343C7.7753 0.942973 7.79576 0.844759 7.94308 0.6647C8.07403 0.509194 8.22954 0.386427 8.4096 0.296397C8.84338 0.0835988 9.82143 -0.0146155 11.3438 0.0017539C12.0149 0.00993817 12.5673 0.0631373 13.0011 0.161351C13.1648 0.202274 13.2999 0.259566 13.4062 0.333226C13.5208 0.398703 13.6068 0.496917 13.6641 0.627869C13.7214 0.750638 13.7623 0.88159 13.7868 1.02073C13.8196 1.15168 13.8359 1.33583 13.8359 1.57318C13.8359 1.81053 13.8318 2.03561 13.8237 2.24841C13.8155 2.4612 13.8032 2.75175 13.7868 3.12006C13.7786 3.48018 13.7746 3.81574 13.7746 4.12675C13.7746 4.21678 13.7705 4.38866 13.7623 4.64238C13.7541 4.8961 13.75 5.09253 13.75 5.23166C13.7582 5.3708 13.7746 5.53858 13.7991 5.73501C13.8237 5.92326 13.8687 6.08286 13.9342 6.21381C14.0078 6.33658 14.1019 6.43479 14.2165 6.50845C14.282 6.52482 14.3516 6.54119 14.4252 6.55756C14.4989 6.57393 14.6053 6.52891 14.7444 6.42251C14.8836 6.31611 15.0391 6.17698 15.2109 6.0051C15.3828 5.82504 15.5956 5.55086 15.8493 5.18256C16.1031 4.80607 16.3813 4.36411 16.6842 3.85666C17.1752 3.00547 17.6131 2.08472 17.9978 1.09439C18.0305 1.01254 18.0714 0.942973 18.1205 0.885682C18.1696 0.820206 18.2147 0.775191 18.2556 0.750637L18.3047 0.713807C18.3211 0.705622 18.3415 0.697438 18.3661 0.689254C18.3906 0.672885 18.4438 0.660608 18.5257 0.652423C18.6075 0.636054 18.6894 0.631962 18.7712 0.640147L22.3069 0.615593C22.6261 0.574671 22.888 0.586947 23.0926 0.652423C23.2972 0.709715 23.4241 0.775191 23.4732 0.848851L23.5469 0.971619Z" fill="white"/>
</svg>
