<svg width="12" height="12" viewBox="0 0 12 12" fill="none" xmlns="http://www.w3.org/2000/svg">
<path d="M1.7168 7.60742L0.110065 6.00069L1.71743 4.39333L2.52069 5.19659L1.72076 5.99653L2.52422 6.79999L1.7168 7.60742Z" fill="#F15623"/>
<path d="M11.423 6.00083L9.81543 7.6084L9.01439 6.80736L9.81817 6.00358L9.00985 5.19525L9.81363 4.39147L11.423 6.00083Z" fill="#F15623"/>
<path d="M3.74019 5.59936C3.96108 5.37442 4.32504 5.37071 4.54928 5.5909C4.77413 5.8117 4.7777 6.17566 4.55701 6.39999C4.33572 6.62493 3.97257 6.62864 3.74812 6.40825C3.52287 6.18704 3.5195 5.82409 3.74019 5.59936Z" fill="#F15623"/>
<path d="M6.17692 5.59939C6.39691 5.82384 6.39299 6.18759 6.16765 6.40848C5.94271 6.62897 5.57956 6.62499 5.35876 6.39974C5.13857 6.17509 5.14248 5.81173 5.36783 5.59085C5.59236 5.37077 5.95652 5.37454 6.17692 5.59939Z" fill="#F15623"/>
<path d="M6.98292 5.59355C7.20583 5.37145 7.56999 5.37199 7.79221 5.59461C8.01443 5.81764 8.01375 6.18139 7.79063 6.4037C7.56732 6.62621 7.20437 6.62567 6.98154 6.40244C6.75933 6.17941 6.76 5.81606 6.98312 5.59335L6.98292 5.59355Z" fill="#F15623"/>
</svg>
