<svg width="19" height="22" viewBox="0 0 19 22" fill="none" xmlns="http://www.w3.org/2000/svg">
<path d="M11.5893 15.2723V17.8627C11.5893 18.4111 11.4297 18.6853 11.1105 18.6853C10.9222 18.6853 10.7381 18.5952 10.558 18.4152V14.7199C10.7381 14.5398 10.9222 14.4498 11.1105 14.4498C11.4297 14.4498 11.5893 14.724 11.5893 15.2723ZM15.7388 15.2846V15.8493H14.6339V15.2846C14.6339 14.7281 14.8181 14.4498 15.1864 14.4498C15.5547 14.4498 15.7388 14.7281 15.7388 15.2846ZM3.87946 12.6083H5.19308V11.4542H1.36272V12.6083H2.65179V19.5938H3.87946V12.6083ZM7.41518 19.5938H8.50781V13.529H7.41518V18.1696C7.16964 18.5134 6.93638 18.6853 6.7154 18.6853C6.56808 18.6853 6.48214 18.5993 6.45759 18.4275C6.4494 18.4029 6.44531 18.2597 6.44531 17.9978V13.529H5.35268V18.3292C5.35268 18.7303 5.38542 19.029 5.45089 19.2254C5.54911 19.5283 5.78646 19.6797 6.16295 19.6797C6.5558 19.6797 6.97321 19.4301 7.41518 18.9308V19.5938ZM12.6819 17.7768V15.3583C12.6819 14.7608 12.6451 14.3557 12.5714 14.1429C12.4323 13.6845 12.1417 13.4554 11.6998 13.4554C11.2906 13.4554 10.91 13.6763 10.558 14.1183V11.4542H9.4654V19.5938H10.558V19.0045C10.9263 19.4546 11.3069 19.6797 11.6998 19.6797C12.1417 19.6797 12.4323 19.4546 12.5714 19.0045C12.6451 18.7835 12.6819 18.3743 12.6819 17.7768ZM16.8315 17.654V17.4944H15.7143C15.7143 17.9118 15.7061 18.1615 15.6897 18.2433C15.6324 18.5379 15.4688 18.6853 15.1987 18.6853C14.8222 18.6853 14.6339 18.4029 14.6339 17.8382V16.7701H16.8315V15.5056C16.8315 14.859 16.721 14.3843 16.5 14.0815C16.1808 13.6641 15.747 13.4554 15.1987 13.4554C14.6421 13.4554 14.2042 13.6641 13.885 14.0815C13.6559 14.3843 13.5413 14.859 13.5413 15.5056V17.6295C13.5413 18.276 13.66 18.7507 13.8973 19.0536C14.2165 19.471 14.6585 19.6797 15.2232 19.6797C15.8125 19.6797 16.2545 19.4628 16.5491 19.029C16.6964 18.808 16.7824 18.5871 16.8069 18.3661C16.8233 18.2924 16.8315 18.0551 16.8315 17.654ZM9.36719 6.44531V3.86719C9.36719 3.30246 9.19122 3.02009 8.83929 3.02009C8.48735 3.02009 8.31138 3.30246 8.31138 3.86719V6.44531C8.31138 7.01823 8.48735 7.30469 8.83929 7.30469C9.19122 7.30469 9.36719 7.01823 9.36719 6.44531ZM18.1942 15.6652C18.1942 17.5804 18.0878 19.0126 17.875 19.9621C17.7604 20.4449 17.5231 20.8501 17.1629 21.1775C16.8028 21.5048 16.3854 21.6931 15.9107 21.7422C14.4048 21.9141 12.1336 22 9.0971 22C6.06064 22 3.78943 21.9141 2.28348 21.7422C1.80878 21.6931 1.38728 21.5048 1.01897 21.1775C0.658854 20.8501 0.425595 20.4449 0.319196 19.9621C0.106399 19.0454 0 17.6131 0 15.6652C0 13.75 0.106399 12.3177 0.319196 11.3683C0.43378 10.8854 0.671131 10.4803 1.03125 10.1529C1.39137 9.82552 1.81287 9.63319 2.29576 9.57589C3.79353 9.4122 6.06064 9.33036 9.0971 9.33036C12.1336 9.33036 14.4048 9.4122 15.9107 9.57589C16.3854 9.63319 16.8028 9.82552 17.1629 10.1529C17.5312 10.4803 17.7686 10.8854 17.875 11.3683C18.0878 12.285 18.1942 13.7173 18.1942 15.6652ZM5.94196 0H7.1942L5.70871 4.89844V8.22545H4.48103V4.89844C4.36644 4.29278 4.11682 3.42522 3.73214 2.29576C3.42932 1.45275 3.16332 0.687501 2.93415 0H4.23549L5.10714 3.2288L5.94196 0ZM10.4844 4.08817V6.23661C10.4844 6.89955 10.3698 7.38244 10.1406 7.68527C9.82961 8.10268 9.39583 8.31138 8.83929 8.31138C8.29092 8.31138 7.86124 8.10268 7.55022 7.68527C7.32106 7.37426 7.20647 6.89137 7.20647 6.23661V4.08817C7.20647 3.43341 7.32106 2.95461 7.55022 2.65179C7.86124 2.23438 8.29092 2.02567 8.83929 2.02567C9.39583 2.02567 9.82961 2.23438 10.1406 2.65179C10.3698 2.95461 10.4844 3.43341 10.4844 4.08817ZM14.5971 2.09933V8.22545H13.4799V7.55022C13.0461 8.05766 12.6246 8.31138 12.2154 8.31138C11.8389 8.31138 11.5975 8.15997 11.4911 7.85714C11.4256 7.66072 11.3929 7.3538 11.3929 6.93638V2.09933H12.51V6.60491C12.51 6.875 12.5141 7.01823 12.5223 7.0346C12.5469 7.21466 12.6328 7.30469 12.7801 7.30469C13.0011 7.30469 13.2344 7.12872 13.4799 6.77679V2.09933H14.5971Z" fill="white"/>
</svg>
